<mxfile host="Electron" agent="Mozilla/5.0 (Windows NT 10.0; Win64; x64) AppleWebKit/537.36 (KHTML, like Gecko) draw.io/25.0.2 Chrome/128.0.6613.186 Electron/32.2.5 Safari/537.36" border="50" scale="3" compressed="false" locked="false" version="25.0.2">
  <diagram name="Blank" id="YmL12bMKpDGza6XwsDPr">
    <mxGraphModel dx="1994" dy="532" grid="0" gridSize="10" guides="1" tooltips="1" connect="1" arrows="1" fold="1" page="0" pageScale="1" pageWidth="827" pageHeight="1169" background="none" math="1" shadow="0">
      <root>
        <mxCell id="X5NqExCQtvZxIxQ7pmgY-0" />
        <mxCell id="1" parent="X5NqExCQtvZxIxQ7pmgY-0" />
        <mxCell id="iRvrH8neB90cJZZumifG-1" value="" style="shape=image;verticalLabelPosition=bottom;labelBackgroundColor=default;verticalAlign=top;aspect=fixed;imageAspect=0;image=data:image/png,iVBORw0KGgoAAAANSUhEUgAABVcAAANZCAYAAAALfQ7DAAAAAXNSR0IArs4c6QAAAARnQU1BAACxjwv8YQUAAAAJcEhZcwAAEnQAABJ0Ad5mH3gAAP+lSURBVHhe7P1/dFTV3ff/v/zYhZbQScQIUeRKQiLeCEgDWIXy4+JKY+UOSz8xKFelQP0UsLSgVSvNp4DLJeAnUn8WKxXosmChd5To0kW+2KYpl8SC1mCKgtzVhAwXUkIcMZmSFLxr+/3jnJk5Z8+ZycyQX8DzsdYsnbN3zo99ziThnfd+7wuys7P/JQAAAAAAAACAJ1/OGP3z81O6+LKh+sfJVklSa2OdLiC4CgAAAAAAAACJm/ztxfrbpy36v8wGAAAAAAAAAEBsrc0f69TJIMFVAAAAAAAAAEiGb9AV+uL/fE5wFQAAAAAAAACScfCN/5/++cUX1FwFAAAAAAAAgFSQuQoAAAAAAAAAKSBzFQAAAAAAAADiGFr4/+j/nPxM/9eX+umvf6zQDTeM0Je+dCGZqwAAAAAAAAAQz99b/Po8+IlOHHxTknT69P9RU1Nz8pmrX/7yl81NAADgLPPI/7dakvST/3eZ2QQAAAAA57y///3v5qakjPqPm/XPL/5B5ioAAAAAAAAAJOOf//xCpzvaU89cPdPoLgAA6D1PPvWEJOneH95nNgEAAAAAOnHN1P+p/hmXkrkKAAAAAAAAAMk43dGui9K+0r2Zq77ZOzRiWOT98arp8r/r7IHz23BlbvyBhvikQNU9OrrJbE/MgDVPKy8n8j7+vrrmmN3rtH7/erP0Sra+8ZzZ1hu6ZsySuk9T5uqqxePUX3413v6kTprtiM8ev454Y+wpcq8tQR19ZoUCu9y9etW8ezWmOEcK7tXB+Zv1udmeiPDzZetkX6Fnt6Pu5/pozYdmc6949NnDmqUs5Xz/IrMpYWSuAgAAAEDqeqTmanDLdL29crre/uU7BEeS0G/pSo158V4NMBvg6eTSe7Tv9nu075m96jAbzzpfaGtFs/LbMlXRJwKrXefcuk/nqg8VmG/fpyq/2Xju2LVZH91uXWfjWXqZP67MVHBYs9576AuzCQAAAADQA3q25uoVD2vkd69T+9mUuWpmNoX4q7Rv6e/MrV2q39KVGjH+RI9m7JlZhT1xnV0u5Wy9vuPRZw9r1rAMVdyUrh+bjeeKc+A+nZHQ9xYzW7IrMjJDumKM592rMcUDY2euRn2P7INZrgkYsOZp5Q3sgjHvDXe1yV/SqoYUs9zJXAUAAACA1BVkf1X/NvDK7s1cPRcEquwsrtvv0b7bqxTIKT7HskqHK3Pj08rL8asxfJ33aN+Bkbpq6XCzM7pTYbumD5MaXjmHA6uI8F0l35TI2wEjnX/d6OPm3asxi8dJdT93fH98QZp7Ln1vPAs8l66KQ1J+SZseNdsAAAAAAN3qn//8Qm8feucMM1fHPqPri/MijYcq9faWjZH3IZ1mrk7T4CVLlZMR2XLyT2t04Lc7nZ3C+4n8471RB1cuVtDVSbrom9v01a+lRTbEOq94YmV+hbK1jMxOM/MzZm2+UHZaSHg/N2rIi8XKdPZ1ia492dkxIxmwVbrYWUfRmRlnn0/c+pdhnddjTOiYCewnLJnsuFj3TEr4mOaYRkSPf+x76Wy3Mv9OzXDu12NfoazVSzO1elaaNhhtIeb5mffc0tm12u0nqrRve5ZrfN3762w/DuZYxLhGqZP7ZN7vGFmc5jhERB/XeibDFxE9ZkncJ3NfUfc8EfPu1Zhi6WjdQF2iF+xzuVFDXhyp03UDNWT4R65rTuyY3t8/oj/XZr/oawyLmblqPxfyvjdRzGcj6vytc+pf93N9dLzY1dd1/p3uJyLq+eisb4zMVXM/0ePp8cw6RD1rnY5/op9Nh8J2vfdAQHrrSl370IVmq2XqMm2+e6zS/K+p9P7IBZC5CgAAAABnLuXMVd/sHbq+OE/Hq+y6qiun6+2DX1XOWLNn53yzfyBVOvZT1agBX1uqkd+cFulkB1b1pzWRfr88oaGz5zt3ZQdWJf8vI/v7c+CmlM7L067NOuaXlDPSDvLeqCEv2v84D2VwPbNXGv8DjVlzo+tLB6x5OhzIdGaIDpknSb/TUXvbwbqg/Y9uZ9as8x/giR9TylHeiz/QJR+GMsyqFPCN0wijX//BnWWp3qghL9r/6A+fpzRk8UplOrLvLJ0dM9G6jjdqyFzpsGMcGv2+GMfsTGLHDNcFDb+qFJAUqIoOslmBJ0e/nGKP8fdpyOKnlafQuP1cR4M5yts4V/1c/U5r3DApePDiTgKr7ufiWOYcYyySuE85xRqz+Cp9FrqGKr/6j/+B/Twq4THTlLm6auQBx5jZ15hKhneCtTATvU8D1jxtB/vtfvbnJDoru/P7ZAU55bjn9+hgYLJjvJJz6q2PpPHFGiCp39LJ6l9XpcDxE5LvUvuYVla56/xDz5nz+ZkyV1fZwcnweHjVtfXo1+hP8T5JjvOMLfHPidR//A80pljhaz1YF1RmseO53fSk494YX+zQb+lKpR9wPBvP7FVHjGN2JqE6wY5nNvxc1AWl4F4ddgZDkxn/Tj+bDjUXa3+b5BtxSgvMNtvkCVcrTZJyRstrFwAAAACA1KUWXM1arqHDpONmJuq7i2NkpsYX3DJTx//q2PBupfyt0oDh0xReBzlroAaoXYH3Hdmsf31QB4yM1Isy06TWD9Tq2N/p385M6bziG6iLp1hBkUz51ejMetq1WYfrglLO5EhgYMpcXZ7jkfm06cnoTKhOJHxMW6DqHkfG0+/U5pc0MMsKjGyq0tGgHdh40SMAZwsf05H99fmaF3Q06NOQGdFBi7jHTNjvdNTIJju5fa865NMlN5jBse4xYE2xMv1VUdl/l433qaPuBUdG3+90tMrvOf4ddT93ZM19qOCHwejA1F2nlK/+2l8bI/NMw3XxQEn+A67g4cmlZuZwMvfJr8bbHV+/6YACCQXaDbs26yNXVuCHCtT6JeUovYciOZ73KfyZcwRc7c9Jfzuo6dTZfeqX6ZOCHynoGO/P16xI+vMbtustfRbMUfq84fINlz57y8hKnFesIb6gjj7jDBjbz5lvnC6zx3bADKt+qyuQ58Gr38mlVQooR5dHBZvjidzfvBefjhO0TO5zouBeHXT8Eenztz5Sh3y6KNfo14moexL1B7FuNmWussdLRze7v3clN/7JfDYv1M6D/aX0fyjfbLLV7vmL2iXJ/75SfVwBAAAAAG7XTP2fGn/LnNSCq/2u+R8aoEad6PKAZchO/f2Esan5hE4qTTnf3abBVxhtDqcD7VLGdfrqkocjgdku9nkglDY1XL7hPin4adR0UjMw0O+Gq9RffrWd8b9sEz+mJajTTc73djZWOGhpZydW+cPZe2NefNrI7LOPaQT2pA916oRX0LSzY56BXc2xM8i62rx7lZcT1NHtxnTieSOVqWB0MKzpU4/xlzqOu/t9vmaFkYksLbj8c0n9dKTGsdHFHuu4GXhJ3qeoZ8jKnvacepyspk97/T7F+sx9fvxE+I8jTp3dp88DQck3TiOiso6T02/wQHvsrSBl5uQ5ukTuoK0UqsF6QqfMMgyuQNuNSs+ROj58q5PPVqx+fp0OSv0zPWssxLbpyUgGaU6xxrz4dHQt6iQ/JzrR7D43OyM05eC1Q+R7dncbrsy549TfX2uUUkhy/JP8bG441k/S5xpaaLbY3lituaWlrpIAAAAAAIAzc7qjXRelfSXF4Oql/aXWEzptNqTqioc1csUOXe94jRhm9PnrgzqwslLHlaac74b6PSNHJULJzlJ9u6rRCrCG9meUDjhT/TKNo5pBAYdQppGV9Wb+g/kMJHDMpBhTbvuP/4Fj6nGOLvI5gyiRl3fdy67Tb+lK45jRdSW7x40aUpxjZN1Z+g0e6ApEh18x6i52lZNL7enGjvvgDoL33n0asKZnxyIizn3K9EWyK50vV23YxH2+ZoX1RwjfOI0I7StmoDtBmw4o4POpo9b5hwdH4DfO94yogFw8U7LUPzT13jUezpq6yTLLRlhjHZq63lufk1DZFOcxXTVru1G/pXM0xOfOHJe6a/wBAAAAAL3py19J19+DrakFVz//tEPKGNg1maGhRaoOVUZqqa6croOHzI6StFF+R11WKU8jPAKsenexez/DSrswwGpPzzamB8cSyoazst46r1HYFcwMvORYAZODdVaWnjX12Mqukj9Sx9P16oqMVA+hhXxcNWrt2prdbcCaYmXGmGptZT4GXbU3na+uyLSLxcqmdAfBIwHW3rlPVi1YYzzi1ajsQnHvU8CrdnHoZS7SlKDwHyHsmrBxM4kTYWUkpvLMdATiFKU12RnfHc66rM6XGQxM1qYnw5/NzMnWH2V653NiLxgVdNSjDtex7mZT5ip7vC+q7q/UA+MPAAAAAOhxbS1/1Refn04xuBo4LilPA7tgkaiLRl+jAWqXf6e7dmqn3l1sB1iz9OU4ZQKCW+wA68B/65pg8LxiDfGFpnfadRk9avmZU5KtQENiNShjTVu2JH7MrhNjWnm3CpU/2KtPuvx6OhGaZm7UTAyLNa35DHQ6rTfKhwrMtwOs4QzG3rhP1nRnRU2D7gGd3Kf4n6Mzd3KpHWD1HO/JWvZ8pSorK/XYne6WqMz3GE4e8Eu+q+Qzz9813d57WvmAGWZ2qHe/btUNn5NOzRupTEkBVyZwTwiVAzDrM4d07/h3WlZk6jJtrqxU5eMJ/AACAAAAACQkfdAVurDfRakFV/Xeq/K3SoOLjfqnY59RTpIB19OfNEtKU+boafaWaRq8JLoswEXf3Ba1b9+IPEnN+nt48appGrzEzGSdr4HDJJ347zMvYzDvXmtKsSNT7vM1tQooR3nO7DU7g6mjriqSwWQvHOVa/VrWPqNWgLaDEtELEFkSPmYC+i1dGX18eyEaZ2Dz5Pa96vCN04gzytJLhh0odAaX7NW2u7csQOxp5mH2AjlR9/JMPHexGtShUZO/MFtsN2qIWetzyg26xOfOYOz5+2RnyzqD/fPu7Zmp353dp01V1kJeiz1WY0/acGVuNPdjB5a9SnRMnaKr7W9EuaOiPmCxOQOSofOf67zv1nVHgtmhP7ZEFojqt3Sl8gYGjcxhexGqnGKjlEQqPJ5FhRZTcwQ2u+Nz0hm71m/myMjzP2BN95cFiFkOIKwrx9/0haaN6JDavqQGs8k2ecLVSpOknNFK4mkEAAAAAMQRyly9IDs7+19mYzxf/vKXJUl///vf5ZttBEEPVertLaEM1PnKWVGqwY7miEYdXLlYoYmaF31zm776tbRw6/Gq6ToxYodGDHxHf177YDgoGnW8Vne7Jfq4J/+0Rgd+u9OxJQFT5uqqqABRUEef8ZpObE9FdWwJVHlPe7WmUDs2+Ku8p4SGArlhfjW6FkHq/JjWtHrFOOeIqHOyp69GL54SfUwZx03omJ5jawvu1cHw9PXhytzorEnoV+PtB5T+YrH6h8/P+5wsjjFL8JheYxHiPb5G0MZ5/vY9NL8ulkefPaxZl2Zq9aw0bTAb5X0N3vv2HpNIX3tc5RxrDx7HC3PdJ+N4wb06uFnKXjxOHeFjep+TJXKfPMfU5nwmk7lPnn2dn7uE71P0NXh/TmRnrv5QY31S0/ZS/ej5SMuANU8rb2CMsbfHPDJu5mfA+5iua/RXad9SaciLxZJ5TZ731PF9zbPd5rznnv3M71EWz3vq9fzE+l5o87yPNte9M753dtT9XIc1RyPGn0jyOYu+3xHJf2+RYvV1/lxJ8LPpVNiu9x4IqOWVbH3jObPRNnWZNt89Vmn+11yLWj351BOSpHt/eJ+jMwAAAAAgEUUjC9Xa0XpmwVUAXcgOkuitK3XtQxearQAQpdM/ysRBcBUAAAAAUjfsslx1fN6RYlkAAF2vJk07Dkm+G05oa8K1VwGct+5q06xhUsMfkg+sAgAAAADOzKFPmtTcdpzgKtCX/Pj7V2p3W4cmPtCmR81GAAgpbNd7Ja0KvnVl7HIAAAAAAIBuR3AV6FMu1B2zstSgVo27y2wDAMujpQH5DmVRQgQAAAAAelnKNVcBAMDZ65H/b7Uk6Sf/7zKzCQAAAADOeV21nhSZqwAAAAAAAACQhP957Td1/bDrks9cLSkpUW1trQKBgNkEAAAAAAAAAOe864ddp8+/+D9krgIAAAAAAABAMt4+9I7qD/+Z4CoAAAAAAAAApILgKgAAAAAAAACkgJqrOM8MV+bGH2iITwpU3aOjm8z2xAxY87TyciLv4+5rylxdtXic+suvxtuf1EmzvS+4q03+EqnipnT92GyDJMk3e4dGDIu8P141Xf53nT26QWG73nugQ/t/epnuqDEbAQAAAABAbyNzFUjByaX3aN/t92jfM3vVYTaebQrb9V5Jq4JvDSCwGkdwy3S9vXK63v7lOz0XIK9J045DHZr4QJseNdsAAAAAAECvI3P1nHWjhrxYrP51P9dHaz50tQxY87TyBu7Vwfmb9bmrpSdFMkhDOjzOtc+zs1I74mWu9mmn9fvXm5V/KEs537/IbDzLTdPgJUuVk2Ful3SoUm9v2WhuTcwVD2vkd69Te09krkqSvtDWio81UZlaPStNG8xmAAAAAADQa8hcRS+4UUNe/IGGaK8O3m5ngN5+jw5rjobMM/uiOy14KKh8ZajinAusOhyqtDJOna9UA6u94kLdsT5TwfSAljz0hdkIAAAAAAB60TmWuVquOTWzlLFntdYujwRPslbt04IJLdpeWKR6o2+kbGZQdeVjtKM6vMFm9mvw3E/GntVae3SWVszMD7f4t+XqhXXhtz0suczVfktXasR4Rxqpv0r7lv4u8l7yyDYN6ugzKxTYFelh7eeEGm+v0sXOvsHI8aw+ivpab50d024/UaV927Ps2qYWdyZsZ/txmHevxhQ7CqrGq5UaL3M1XGvV5hgDJ7N+a0T0cc37FJXtO+9ejSkeqKPPrNCpGc79Ru8rlLU66K0rde1DF7papPma/vIy5X+wWm8OWqYZeVKr6xk3Pi+Lql3PfqzPibblqnrIPi2YELoGRz97H63G51eSCtY3aUaeuc/O2JmrJxLIUrWzUQeEN7TL/8uZOv5XVy9LApmrZn3Wk39aowO/3ensImm+claUanD4faMOrlysoKtPxKPPHtasYRnUxQUAAAAAoA85TzNX7YBpY4VWFubarx3KXLRFWc5uRVu0xA6chvptb8zXjJpqFTj7ScqYsEwrZkrb7X4b9gSVM3OfphcZHfugSLAzkkV6MDDZyCK1s01PVEX61ElDFq9U5hRnP0nKUd6LP9AlH/7c7lulgG+cRqy50dHHp4tyHW89JXHMnGKNWXyVPgtdQ5Vf/cf/wHENHyowP9IW05S5umrkgfDx9t3+cx0N5ijvxXsdgbcE7dqsj+z9NMY5ZLh+a/hVpYCkQJU7GDpgzdN24Nru98xeafwPdNXS4Y5ekuTTkMVPK0+hcbOvYeNc9XN2u+uU8tVf+2vNwKrDNUs0qWW1NuwJKuOaJVoyU9peWCG/fMqfOt/qU7RFSwr2Oj5Lq1XX5v05yZnZpAWDdrj7vWx/7tZVqK5NyrhmmvtzqHKNypPUuDeJwGoy5iunVGpwZLYePJSmnO9u0+ArzL6dswKrjTro2N+RzB+493XFwxq5olRpf1rjOGaeRqx4Ro4/cbj8eF+GpFaNu8tsAQAAAAAA3W1o4f+jrOtLdMXXZ0mS/uM/CnTLLRPP0+Bq0VBlSPLXlzk2lumFW2er2bGl4LaJymjbrZccWXT1CyvkV74mrbIDSyFtu7XBkVXX/MZ+tcqnTGcyX6e+q59VVakq1mvtd80v6BL9Mn1S8CMFHVmcn69Z4crE7Ld0sjLlV6Mjm/XzNS/oaNCnITOcQVNLoOoeR0bl79TmlzQwS/0kfb6mVgFJmcVPa0ycoGVyx/Sr8XZHJuqmAwpI6j/YDDx2YtdmfeTK2P1QgVq/pByl91DJggFripXpr3Jnwk6Zq8tzjIDrrs06XBdU//HFUWPYUfdzR+bxhwp+GJR8l7qCq4+OaZXa+mtnnFXoM9Jb9Gbo+U/3qXVb5BnPGGQ/3NWztXah87O0UTuqGyTla9Qix2bZn5Nw342q/yAopQ/S5a73o1Tg/KPEonHKUVB1L4W+rqs/JxvlX/ugTju2BHe+o5NKU+boaY6tiZimLw+UdOjPrgzU4BZ3Fqxv2nUa0PqOGhzZrMEtlTquPA39ZoxjPnexGiQNupzSAAAAAAAA9LS/t/j1efATnTj4piTpn//8p9LSLj5Pg6vVR9RqZ9HNMYM/YVa2XOsHO10BV6lBgTZHYCkkcMTdr3q21hYmWxbgl7q7uFjFsV5Lfml+QZf4PBCUfOM0wsxsDBsu33Cf5D9gTCv/UKdORIKmEUGdbnJtsLIzw1Pif6ejt9+jg3VBO8v1aY158WkjUzbJYwY/NabbW8cwSyKkpOlTdZjbusu8e5WXE9TR7e6SDP1uuEr95VebUXrg8+MnJA3UxUYmb8dx93V/vmaF9rnKAnyhoZdK+vRL8RdIcmWLBhVocLXG1tCiVnObvD5PbqE/SoSzYiUVFORLbftVHy7ZkeTnZFiprl+xw/XKGevuEuWv/612c1tCdurvJ+xjzjb+ABM2XwOHSSc/3OkK6EqN+nurNCAzz7U14ktqaZN8g/5hNgAAAAAAgG4WeP8POnHwTZ06cVSSdPTUpTrYetl5GlxVmV4oXK26NivAuqKmSStqjCn8dnZrxoRldnvotUzj0x39zgGfr1lhTZX3jdMIO9A5xjWFP0cX+eyp96F2++VdKzQxVsAvMg0+s9h53O45ZiIGrHEfb4yzbmq3ulFDinPUUfdCVC3Yfpk+VyA6/HLVhu09Beudn5EmrSibqAyzUyKqZ+vNRmdpAOuPHP5qd1Z5UjwWtDJrpV70zW1GANZZCzU5wS3T9ec/tbuCuiOd2ahX/JvSJA342lLjmEuVk9KgAQAAAACAnvbPL75Q8JPm8zW4Kmvq8q12jcjy3WqVT+PLHAFWO7u11VFv1fVyTYPuKl093TkJm54M1/xs9NtBzXCg06/TQXuRK1dtUPvlsUhTcqwsU+u4k+16qt19TG/W4lJBV/3Zfc/s7ZHM1QFripUZ3KvDHtm2nweCdukDj7FwlkPoBdZiU0HVlTs+H+W7PTNXE1Ff3xApDbBonHLUoP2uDPCu/Zxc9M1t+urX0nS8yhmArdRxs2MSTv92pr2fNfK3WoHUcIDVzoo96ai36np1tvgWAAAAAADodY3vvKHGd944H4Kr81VwTawlYmzVs7XWDrBGaqTGmP7frZKc7pyA/plmZuNwXTxQ0onmmMHJk0vtQGd46n2MqfjdqjeOeaPScyT5a3s+WBkqB7DZO2gca/p/6i7UkU8lXfoPLTCbkhJabGqHdoSn7Z+hdRWqa7NKAxQU5HssZNWVn5NpyhieJrW+o2NGNmvX2Knja+0Aa3i6f2fT/2P5hwalS8GWL5kNAAAAAACgl5xjwVU7IBqeUjxf01/2mMa/qFpLjAWpsqaOUoarpqS9KE/erKi+Z4ff6ZO6oCMT1NJv6RwN8Tlreg5X5kZzUSk7yOgIwJ7cvlcdvnEa4SoXkJoBa1a6zkmKLNjkDGx25TETY2fL5oyMjMe8e3ugLEDscgBhm6qshbwWm/cqdT/elyGld2haodmSDOszp7xxKghtWlSdelkAKbywVcaEZVZGbHghq+5g10jNuEYZV9ibrnhYI1MuCzBfOUse1kXOTVdMU2aGdDLQaG/YqeN/bJSGlbrLBXTmrlPKl9Ry7EKzBQAAAAAA9LCC7K/qloIZuiA7O/tfZmM8JSUlqq2tVSAQMJv6iHLNqZmlUL5m657VWnt0llbMlLYXRlY6z1q1TwsmODNaG1ztYUVbtCQqUBRUXfkYO1PPPl5jRTeVCjgz/Zau1Ijxzuv0q9G1sJGs4N6Lxcp0bOmo+7nHYlDR/SQpUHVPeGV763jS0WfiTVUfrsyNP9AQI6HYuZ+Izo5p70t7dTBeqYApc3VVrCBp0Pm1xvGCe3Vws5S9eJw6wsf0PidLZHyjxz7COb5WKQKzh8UcE8++/irtW2oHy+fdqzHFOVFf5+20fv96swa9daWufcgM2Nl/mAhYz7X1eZH93JvPvPszp7bd2rBOuq1solq3hRZ1s/pk7Fmttcsj096t/bZEf/ZCn7u23dpwa6r1Vqdp8JKlyjlR2clUe7tf+EPeqIMr/6yBK0qV9qc1OvDbnVbQNGbAtVEHVy5WMPT2ioc18rvXuYLgx6ui67x69ZPa5f/lTB3/q2ujJOnRZw9r1qWZWj0rLf4iZAAAAAAAoNuNGTpax4Mt52JwFUCiFjz0iZbdIO3+6WW6o8Zs7UV2cFVGMPa8Vdiu9x4IqOWVbH3jObMRAAAAAAD0lnOsLACAZGx4yKcGdWjiwvYzrL3atawyHQ16k8CqpC+0dWFAvrZMVRBYBQAAAACgTyG4CpzXLtI3fpqpYHpAy549bTb2jkXVWjDBJ/82jzId56FHn/1YE9MzVEE5AAAAAAAA+oyrbvgPFfzPWQRXgfNeTZqufSVDGnZKj5ptPShr1T6tqGnSipn58odrtZ7nCts1fVh/7f5pun5stgEAAAAAgF7zzy++UPCTZmquAgAAAAAAAEAyrrrhPzRg4GVkrgIAAAAAAABAMkKZqwRXAQAAAAAAACAJ/9eFF8p3WRbBVQAAAAAAAABIBpmrAAAAAAAAAJACMlcBAAAAAAAAIAVkrgIAAAAAAABACshcBQAAAAAAAIAUkLkKAAAAAAAAACkYGDipq09fTHAVAAAAAAAAAJJx5MTH+vTkCYKrAAAAAAAAAJCM5rbjevvQOwRXAQAAAAAAACAVBFcBAAAAAAAAIAUEVwEAAAAAAAAgBQRXAQAAAAAAACAFBFcBAAAAAAAAIAUEVwEAAAAAAAAgBQRXAQAAAAAAACAFBFcBAAAAAAAAIAUEVwEAAAAAAAAgBQRXAQAAAAAAACAFBFcBAAAAAAAAIAUEVwEAAAAAAAAgBQRXAQAAAAAAACAFBFcBAAAAAAAAIAUEVwEAAAAAAAAgBQRXAQAAAAAAACAFBFcBAAAAAAAAIAUEVwEAAAAAAAAgBQRXAQAAAAAAACAFBFcBAAAAAAAAIAXnZ3D1ioc1csUOXR96LXlYF5l9AAAAAAAAACCO8zO4+tcHdWDldL29croOHjIbz0/9lq7UmBfv1QCzAQAAAAAAAICn8zO4epYbsOZpjXnxaQ2Z59w6XJkbvbYDAAAAAAAA6A4EV89imSNvjLyZcoMu8TlbAQAAAAAAAHSnC7Kzs/9lboynpKREtbW1CgQCZlMfMk2DlyxVTkbofbv8v5yp439195Ik3+wdGjHwHf157YM6bTZK0thndH1xnmNDow6uXKygY4tC+xkWeX/yT2t04Lc7nV0kzVfOilINDr+PfV6xDVfmxh/okg/3qmP8pWq7/UmdtKf1Z+sjdYwfJ1Xdo6ObQv1v1JAXi5UZ/nq/Gu2viW4zOftKmjJXVy0ep/7h9qCOPrNCgV3hDRFTl2nz3WOV5n9NpfeHTwYAAAAAAAA4Z5x7matXPKyRK5YqR+/oz3Zd1bdX/lyalsKiVVc8rJEj/mzvY7reXrlG/tY8jVjxjJxJolZgtVEHw/2m60jmDzT4CkenUGD1UKVjf6/ry6UpnJck6S21+XN0+dLhkm7UZeNP6Niat3Q6KPUfPNzqMmWurnqxWP3rfq59t9+jfbffo0Z/jvLCtVV/p6P29oN1QTuYar23Xo7Aqm7UkLnSYUd7o9+nIYtXKnNKuFPY5AlXK02SckaLKgUAAAAAAAA4F51zwVXftOs0oNXMRN2p41tiZKbG89cHdWDLRseGnTr+x0ZJeRo4NrRtmr48UNKhP7uyWYNbjIzUK/5NaZKOH3Tub6P8sTJmE3DygF/9h9+gfvNGKtN/wBEItQyYMU79g3t1eM2H4W0nl1YpoFBQNhm/09H5m/W5Y8vJ7XvVIZ8uuSF6X7V7/qJ2SfK/L/JWAQAAAAAAcC46x4Kr8zVwmHTyw50pByw71XzCCGLu1N9PSBpWqutnz3e1uPz1v9UuaXDxDuWEA7OpyNFFPqnj+IfSpiod1VXKnpyjwIHfGf1uVHqO1PHhW66AqOS3slszc1xbU7KrWR3mtpA3VmtuaSklAQAAAAAAAHDOOreCq3Z2aPsnZq3T1Plm79D1Kxyv715nT6mPCG6Zrj//qd0KsNr9Rn5zmtFro/wr18jfagVYrX7bjNIByfpQwQ+l/tqrTxwxzP6ZOdKULPWX1H/8DzTmxacdrx9oSIoLX/VbutLYV7x6rQAAAAAAAMC57dwKrtrZoWmXmYHN1Fi1VNvl/2Wklurbv3wnavq9JJ3+7UxHXVZpwNeWegRYd+r4Wud+0pTz3TMLsH6+ZoX2GdP1pUhWaYej3qrrtdTMdI2v39KVGjHep0CVcz9V6svLmgEAAAAAAADd6dwKrqpRf2+VBgyfluIiUU5WiQEdet1dO7VTO3V8rR1gzcwzGyP++qAO2AHWL2eZjXHYGamdS276/+fHT0gaqIs9FqeShss33CcF3RmycU1dps2Vlap8nOWsAAAAAAAAcG46x4Kr9oJTGdfpq676p9M0ePbDSQZcrUCthn1V4Vn0Y5/xKAswXzlLjH1fMU2ZGdLJQGNk29hnojJZLxp9jQaoXX9vdm0+Ax/q1AlJA7PUTx8qUOuXcop1VSKLVzV9qg75NGTGjWZLZL++q+QLBV+nzNVVccoCTJ5wtdIkKWe0CK8CAAAAAADgXHRBdnb2v8yN8ZSUlKi2tlaBQB+eEH7FwxrpCoK2y//LmeEM1Iu+uU1f/VpapL/DyT+t0YHfhmq2zlfOilINDjW2vqM/V0r5371O7VXT5X/X3h51POm4s90WfdxGHVy5WEHHlk5NmaurFo9TR9U9OuqRRTpgzdPKG7hXB0OlAuz+7mzXoI4+s0KBXa6N0rx7NabYmenqV+PtT9plEIYrc6OzXqtfjbcfUPqLxepf93N9tOZDx9fZmat3j1Wa/zUWtQIAAAAAAMA56dwMrgIAAAAAAABANzvHygIAAAAAAAAAQM8guAoAAAAAAAAAKSC4CgAAAAAAAAApILgKAAAAAAAAACkguAoAAAAAAAAAKSC4CgAAAAAAAAApOGeCq7m5ubr44ovNzQAAAAAAAADQLc6Z4CoAAAAAAAAA9CSCqwAAAAAAAACQAoKrAAAAAAAAAJACgqvnjPma/nKTVqwvNxs6VbC+SStqIq85i8weAAAAAAAAAEwEV6H6hblaWZirleW71Wo2no+mLtPmyko9dqfZAAAAAAAAAEQQXEUfNU+PVVaq0nw9v0yTza5ns5iB3Mla9nylKh+fZzYAAAAAAACgjyC4ij6t/Z2nVFpaar+e0rsaqx9WbtayqWZPAAAAAAAAoGddkJ2d/S9zYzwlJSWqra1VIBAwm3pVbm6ujh07plOnTplNva9oi5aUjVJD+Q5lls1SjoKqKx+j5tuaNCNPUttubbh1tprt7lmr9mnBBF/k6xsrtHJhWeS9rWC9/fVOUX3LNadmlnLC7xu0vbBI9Y4eYUVbtKRsolq35eqFdWZjT5unxypv1qB3ntLc8tqo7bnBd/XUnasVaplctlk/vC4t0s3/mkrv3xR5H2Z/ffh9k14r/ZE2SZr3eKVujgxUlKbtpfrR85H3nR7zzsdUOWOQ3v3ZXH18s3PfkWNq6jJtvnusWox9W5mrP9TYE+59mufYHjU+inxt+BFq17s/m6vVbxjtJ15T6WtXavPdYxW6Cu/9AQAAAAAAwAuZqz0of9F0BcpXq67Np/xF+zRDFVq5rUFKH6WCIoUXpVowoUXbC+06qIUV8ufN0oqXtygrvCer34zM3doQ7rdadW3Oo9nB0ppZytiz2u6Tq+2N+ZpRU60Co+vZY5Nefadd8l2tKVMVnj7/w+ta9Fo4w/U1NeXcHF1C4M7HVFl5s3L9rzmyYd/XaHvq/ab77W0/e1ftdjA10s8Z/EzimErT2LsrdbNCx3xK7wZzdXNUv85ZgdUmxzFLVXPZAiOLd54eq7QDp3afp96Rxt7tke2bc7Mq775af/mZvb/tTUq77oceJQoAAAAAAADgheBqj/EpI7BDO6qtdxnpLdoezjD1KTNf0qJZGp8eVF25M7O0TC9sa5DSJ6pokb0p1G9dJNvVS8FtE5XRtlsvLd8Y3la/sEJ+5WvSqvmuvl3ju/pZVZWqYr3Wftf8gjOQpkuGSbrzFo31tevdn9mZoJKkTfrR9ibJN1a3hAOFk7VsSm50dqk26UeeGa5xJHxMS/s7TzmOWatdf2mXfJdomLtbJybryoGS/O87jiltut+ZkSpNLitUrpr0muOaass36N1gmsbebNZvbdJrpY6vf/59NUkaNDjZsC8AAAAAAMD5ieBqD/LXO6brt7XomLNRUkFBvqQWNdsB2LB1e+WXlDHECogWFORLbftVb/ZzKdeoPKn1g51GALZBgTYpY1C+a2vX+KXuLi5WcazXkl+aX5CS2uMt4f+fNypXUos+dgQYJY9A4dQputonNe1PMpDqIeFj2lqOu6fZ15bPVWmoLEDCavXxCTvbNOYiV5M15eq0qABs+GsHXunOlg1+pkPO99qkH5WWUhYAAAAAAAAgQQRX+xqPoGtIUgHRoqHKkJQxYZlW1DQ5Xss0Pt3sfHaZPHiQe0NUkDAi7TI7P3TYJUpTuz6L1TFZiRyzi226v1RPvdNuBVgrK1VZWanNZc5w6TBd4rMDsHZ76BWvliwAAAAAAABSQ3D1LNLa0mBuiq36iFoltTrqrbpeHgtknbmeKQsw7LI0SU1637UAlLf2T+wQ6KHP1B4qJdDNwsfsBlbWa6h2q5R23Q8dAdZD+ixoL6zlqMsafjkWAAMAAAAAAMCZI7jah9TXOxe3clg0TjkKquENq3bqsZaglD5Il7v6zDIyUrtz+n8sPVAWYOoyFeZEao9u2t/kWNzK4c7RylW7/rLHDie+8bFaJOWOijWl3sHua07vD0n4mEmIPpaVhRo7UFur1XfaAdZwpmyM6f8AAAAAAADoFgRX+5J1Fapr82n8oi3KCm8s15yZ+VJjZDGs5jf2q9W5KFXRFi2ZOUitbeEvkrRRO6obpLxZWtIti1f1gqnLtPnusUpzLtj0/KvWYk3fWeYIKM7TYzNyJX+NY7GnTXrVnlLvnko/T49F1TC1MkDTrrtFZouUzDET8MZq1fijjzXv8ZuVqybVhOufztNjzzuPF6kj6wzAbnrtXbX7xuqHUdcEAAAAAACArnZBdnb2v8yN8ZSUlKi2tlaBQMBs6lW5ubk6duyYTp06ZTb1vqItWlI2Ua3bcvXCuvma/vIyjddubbh1tpoXVWvFzHz5t+XqhXWSZLc7slBb96zW2uVW1mqY/XWWBm0vLJLWN2mGKtxT/u1jZ0S2SAqqrnyMHawt15yaWfIuyWntt97c3CPm6bHKm5VrbG3aXqofRZUDmKxlz/9QY32RLe3vPOW9MNOdj6lyhnOvTXrNc3Gp6OO7j53AMe1jeZ+z27zHjbqowXf1lDmNPxxcjvDed/S5y9XXPnd5HAMAAAAAAAAJI7gKAAAAAAAAACmgLAAAAAAAAAAApIDgKgAAAAAAAACkgOAqAAAAAAAAAKSA4CoAAAAAAAAApIDgKgAAAAAAAACkgOAqAAAAAAAAAKSA4CoAAAAAAAAApIDgKgAAAAAAAACkgOAqAAAAAAAAAKTgguzs7H+ZG+MpKSlRbW2tAoGA2dSrcnNzdezYMZ06dcps6nuKtmhJ2URlhDcEVVc+RjuqI10K1jdpRp7Uume11i7fGGlIxqJqrZiZH3nfWKGVC8ucPWIqWN+kGZm7teHW2Wo2G/uoKdOKdW+BT+31Vfr2zqDZ3POyRurXd1yrtND74Ht6cuMB7XL3kkZP0itFQyPvD7+pksojzh7dps+NGQAAAAAAwFmEzNWeFgqsNlZoZWGu/XIHVrvMuiJ7/6tV12Y2ots1H9C3n/iNSp74jV49bDY6vP+mSp74jUqeqNJe4psAAAAAAABnDYKrPSxr6ihlKKi6l+JnkNYvtAKvKWetnod2BawI8vEAEcpEMWYAAAAAAACpI7jaK1rU3B2ZqgAAAAAAAAB6DMHVPqZgfZNW1ERecxaZPSKyVu1z9V2yar7ZJWHmvmbkmT0kqVxzHH1W1OzT9CKzTy+yp9ff/77Z0D2+U/otvXKf41XqqJt6tujhMQMAAAAAADiXEFztCYuqwwHJBRN8kvI1wxmkXF8e7hoqB7CyfLdaXTtxK1jfpAUTWrQ9VLe1fLc0YVlKAdaofRXmanuj2atcc2pmKcdVK3aHMhdtUZbZ9TwwZVqxRn9o1VMteeI3Ktn6ntqzJ52dAVYAAAAAAACkhOBqTwgvLJWrDXuCkhpcgcyVC+PXX41StEWT8iT/tiLVh7ZVz9ZLe4LKmDBLBe7e8Xnty0vRUGVI8tc7z7VML9w6W82OLYn49wdfVFVVVYzXi3roP8yv6Ht27axyZ3s2H9DvD0vKztZ3HJsBAAAAAABw7iK4ehayFsVq0P517u3NR1skDVJWElP1Y+0rSvURtUrKmRm/VEEi/uvh21VcXBzjdbse+oP5FWeHQydYFAoAAAAAAOB8QnD1LHT5II/SAjVNWjEz3+zahcr0QuFq1bVZAdY+WXO1Rw3V4856q/d9S/cW+MxOAAAAAAAAOIcRXD0LHWvxKC0Qfo3RjmrzK7rKRu241VkT1qfxZckHWM/+sgBD9fh9kzQs+J6eDNVcfeI3erKezFUAAAAAAIDzCcHVs1Aq0/9j8dyXXYc1rurZWmsHWDOTTJg968sCjM7WMEmH3j6gXWYbAAAAAAAAzhsEV89G6ypU1+bT+LLq5Bav8rJur/zyafxt5faGcs0pmyi1GVmYi6q1ZNV81yarXmtQgQbX5nPfJ5+pXdKw4UPDm75TSlkAAAAAAACA880F2dnZ/zI3xlNSUqLa2loFAgGzqVfl5ubq2LFjOnXqlNnUp2St2qcFE1q0vbBI9WajyjWnZpZyzM2SXQbA/TUF65s0w8wwbazQyoVlsdtt/m25eiG0iFXRFi0pm6gMSVJQdeVjVD91nxZcs18bbp2tZrubde7OAGL0OZ03Rk/SK0WR4Gp7fZXWa7LuLWjTq0+8qV9JmjKtOGbAtb2+St/eaQWwv1P6Ld2SbfawHKr+je5/39wKAAAAAACAvoDgKgAAAAAAAACkgLIAAAAAAAAAAJACgqsAAAAAAAAAkALKAuCcF6+macRpfaGLdKG52XT4TZVUHjG3dqvEzv/v6tCX1d/cbAq+pyc3HtAuczsAAAAAAACSRnAVAAAAAAAAAFJAWQAAAAAAAAAASAHBVQAAAAAAAABIwTkTXG1qaqIkAAAAAAAAAIAec84EVwEAAAAAAACgJxFcBQAAAAAAAIAUEFwFAAAAAAAAgBQQXAUAAAAAAACAFBBcBQAAAAAAAIAUEFwFAAAAAAAAgBQQXAUAAAAAAACAFBBcBQAAAAAAAIAUEFwFAAAAAAAAgBQQXAUAAAAAAACAFBBcBQAAAAAAAIAUEFwFAAAAAAAAgBQQXAUAAAAAAACAFBBcBQAAAAAAAIAUEFwFAAAAAAAAgBQQXAUAAAAAAACAFBBcBQAAAAAAAIAUEFwFAAAAAAAAgBQQXAUAAAAAAACAFBBcBQAAAAAAAIAUEFwFAAAAAAAAgBQQXAUAAAAAAACAFBBcBQAAAAAAAIAUEFwFAAAAAAAAgBQQXAUAAAAAAACAFBBcBQAAAAAAAIAUEFwFAAAAAAAAgBRckJ2d/S9zYzwlJSWqra1VIBAwm/os3+wdGjHwHf157YM6bTYmauwzur44z7GhUQdXLlbQsQVeTuv3rzdLr2TrG8+ZbV2jYH2TZjhujX9brl5Y5+xhmq/pLy/T+PTIltY9q7V2+UZnpz7GPOeg6srHaEe1u1dY0RYtKZuoDDVoe2GR6s12DwXrmzQjc7c23DpbzWZjb7KvpbXT+5oIexwDFVq5sMxs7EFfaGvFxxp18Epd+9CFZiMAAAAAADhLkLmaCDuwevJPa/T2yun269wKrBauelA1NYv1PbPhjHyhrRXNym/LVEU3BVYlqX5hrlYW5mpl+W61mo1RQkHKBm0vtL+uMLePB1YlaaN23Gqf77YGs7H3FW3RkpomzVlkNpxbslbt04qaahWYDUm7UHf8IUO+Gz7W7+8y2wAAAAAAwNmC4GoCfCPyJDXqyG93mk2I49FnP9bE9AxVzErTBrOxtxRNU3661LqnIqFszrNW9WytLczVygSzVtELnkvX6rf6K7/kE20tNBsBAAAAAMDZgOBqolpPpF5S4HxU2K7pw6SGV9L1Y7OtD2g92tczVXE+2PDQQO1u69DEhe1aYDYCAAAAAIA+75ysuXrRN7fpq19Lc29sNWuuTtPgJUuVkxF63y7/L2fq+F/DHcK6pGZryKLFqpmZHXnf+LoKF9bYb/L1yMt36frA6yp8abBeLSvQALvl5J7ndMty93TwwlUP6icTvhJ+79Un6ng6rJcKn9EvJEmFeq7mJuU7Wt2cfRU5v3Ddz7/p7fKH9ROPup+PPntYsy7N1Oo4WatmrVTvuqdJ1BpNpDZnIn26gn0ceVxT1qp9WjBB7utYVK0VM513Ik6t1EXVWjFzkPc4hGut2tpi11C1zsPn3hjV3xx/930y76Epqv6teZ2NXrVPyzWnZpZyjK1R+0qQ5zmaxzXHzfWceZ9PhHmv4o9ZlLva5C9pVUOcusSTyzbrh9elqWl7qX70vNkKAAAAAAB6yzkXXPXN3qERw9yLTUUHR+crZ0WpBh+q1NtbrICHFZBVOMDqGaB1OPmnNTqQZJmA763/qW7Lkxq2PaC7QkGiRYv1nJ6x3zuDl47ApR0gdX6dtS9H8LPoDr1aViA5A6xFd+jV247rFjN4m24GTUOB2hNR2yPsQKwjGGx9jTwCrNYiVoPeir1YjxXwcgelCtbvU9ZLzoChHdRyBMI8A5MhMQOnyQbHuoIdYFOMYKVzQaWiLVpy2xGtDQf7nHVhPc4rXnDVId4CVd7jH90/6p7YwdGoYGHMsY+IvnfR99czKJ3Avr153QOP8Ve55rw8VNWu627SjLzoQL51DS3e98WW8JiFWZ+X/ENZyvn+RWajpMla9vwPNdYnyf+aSu/fZHYAAAAAAAC95NwqC3DFwxo6TDpeFX+xqYu+eZMGq1EH7cCqJJ3+7c/lb01TzrT59vuZ4cWrDh6yM1/Di1lNTzqwqqI7NN0MrErSulBg1emwXip0BCzXHVSDpKwhdsZfeF+OQGj1Vv1sz980YMJNkUWpqrc6AquS1KCfVB+WlK2CJBceKlz1deXrsF5y7K9m+Va93fYVXX+bUTDyrlPKV3/tr/UOrErzlZUpqXGvK0BVv9AMZE1Xjhq03ZFh2Lx8rerafBp/W3mkY6fK9EJo8Sp70Sv/tshiVt1Tl3Sj6j8ISumjVFDk2GzXfPXXO7Imq2c7AquyFq+qbpCUr1FJ3qeEFG3RpDzJv63z6zbvidZVqK5NyrhmmrIcmztXrqIJPrXuWevYX5le2NYg5U3XdHuMCm6bqIy23XrJMwiZpEWzND49qLp10cFltzK9YASg61/arVb5lD/V+n6QjOTH7CLtPSTp0n/EKA1Qq11/aZckNe0nsAoAAAAAQF9yTgVXLxp9jQaoUSfeNVucpiljeJp06M9GAHan/n5C0sB/k1fu2JkqnJqvATqs+qhAqoe2E/rItaFGdxU+EM5IjbWvmqMnJA3UvzmDeaaGEzppbutUvgqv+YrUeNDIam3QfwckZQ6WM7y64PLPJfXTEWdc12WjmgOS8mZpxfpYQdL5KrjGFxWADX9t5tAYgaq+o3n5DvmNAF3W1FHKUIP2d/YcNLSo1dzWRRI+B0/2+Cdr0TjlKKiGN4ygaUOLWuVTZr4klWtUntT6wc5OgqGJKSjIl9r2qz5Odm9M1Ue6cPw7H7OGlv5S+j9iluioLZ+r0lJKAgAAAAAA0NecU8HVxOTpyxmShpXq+hU7XK8Rw8y+XeeqQV/xCJqm5qpBX5GUrdtqfqoa58tVW9XyvfVGH0cd18Rl69J0SXk3ufdVY5U5SEX9wlxt2BO0Aqw1TVpR06Qlq5xZgvnKTLcDsHZ76BVVP7PPKtP+RmfGohUwbt1TEZUxWrDefY0rXPU/e1HRFi3pgvHPGjJIkk/jy/rmdWat2mc8Z/HKSHSii8YMAAAAAAD0fedhcLVRf2+VdKgyPMXf9eqKRas8fNTyNyl9oK4yG1LwUcvf7NIBD6gw6hUpJ2DVZf2b3i53tJfXp5C5elifttmLb0Ud7wEV3rpVMZNU42hePsaelr/amjY9YZkjwNqgQJu98FB4+r7j5VFHtC+qr2+IlAYomqb89OjszUh9T8f12eULelVokSfjHmxvNDt2rvloi71IlMe9LEy2lmrXCi3s5S4VUSG/2TERXThmAAAAAACg7zungqunP2mWlKUvX+HYaNdhjeje6f+xWFP2k6916iWh6f8qVEGepMY/GotNeYu/T+/p/7FsONZP0ucamkhnyaoxeqsdYB0Umhjdy9P/73xMlZWVqnx+mSabbclYV6G6Nqs0QNbUUcqImqZuTYVX4464i1N1JSvQOUhZrlqwVh1WJ6t8QFB1LznrwcZgT6PPGBKjRqlr+n8sVkA98gxYCm5LLbv1WEtQSh+ky50bF83S+HTnBrv8RNtuVScQ4PUcO4ekxswhf1CH1PYl2UvRRZlctlmVlZV67E6zBQAAAAAA9KZzKriqd/+s44osSiXNV853r5NarcVgQoI739HJjOv01dkxAkHdYd3rertNyp/5oB5xBmYWLdZzyQZc171uLSRVtjiyeFUUO9s0b0Skz6LFscsCNJzQSXksTmX7xUv1OpleoJ+s9253ee5iNahDoyZ/YbbYyjXn5S3uoKm90FNrSyS8VP/SbrWmT9SCmHVZu8/kwYOs//GN1S1nFNCyFrbKuGaWiq7xyV9tZtzaGbp541QQ2rSoununy6/bK7+ci4KVa07ZRKnNXYXYCiQ6a8bO1/SXY01xtwOjE2ZFrsOperbebJRyZu4LL14VzV4EzLHAVdaqfZqRGUwpi7f5jf1qVb4mhbKhi7ZoycxBam1z9rKD+M6Fx4q2aEmssgB2kDjWgmrJjVnIaY0bJunTL2mD2SRJmqwpV6dJknJHzTMbAQAAAABAL7ogOzv7X+bGeEpKSlRbW6tAoJMVWnrLFQ9r5HevswOI7fL/cqZaR2/TV4d/oD+7pvzPV86KUg12fKkkHa+aLr+xIJZv9g6NGPiO8fWpsabqOzY0vq7ChaFJ9fl65OW7dL3q9UgCU+2j9iVzf4V6ruamyCI5bfV6ZJ10d1mBmrc9oLvMTL1Fi426rYf1UuEzjkWsjP3ZGjz29eizhzXr0kytnpXmHTAKTZ92bPJv85oeXq45HoGuSF/vdkuDthcWueub2sdt9TyW0zw9VnmzciU1bT/DhYTC1+pxPlL0NbTt1oZ10m3O8/QYr7C23dpgl0kITXH30rpntdYut0sSuPYXVF35GNVP3acF1+wP70se+/Nvy9X+gibNyIwcMyL6Xpj31Nyf5D5/hcsk2G8aK7RyoTSnZpbU6T3zsKhaK2aGnlhr/LW+STNUoZULQ9ml8zX95WWOjNYGbS/cq1E1s5ThHLMQ1z4V9ZyZ1xh/zCTd1SZ/yefa/dPLdEeMD/3kss364XVpZ/4sAgAAAACALnXuBVfRNxS2670HAtJbV+rahy40W88K8x6v1M057Xr3Z3O1+g2zFegKX2hrxcea+GmWcr7fk4VKAAAAAABAVzi3ygKg76hJ045Dku+GE9qaQCWBPufOx3RzjtT+zgYCq+g2Cx46oYnp/bW7ksAqAAAAAABnI4Kr6DY//v6V2t3WoYkPtOlRs7HPmqfHKitVOSNXTdtLNbe81uwAdI272rTshg41vBK7HAAAAAAAAOjbKAuAbnZav3+9WXolW994zmwDkhSv9qxTo7Omal9klQMYdfDsLZsBAAAAAAAIrgIAAAAAAABASigLAAAAAAAAAAApILgKAAAAAAAAACk4Z4Krubm5uvjii83NAAAAAAAAANAtzpngKgAAAAAAAAD0JIKrAAAAAAAAAJACgqsAAAAAAAAAkAKCq0hd0RYtqWnSnEVmA5KyqForapoir/XlZg+H+Zr+stUv4XHvw/epYH2TVry8RVlmQyoWVWtFzT5NLzIbet6jzx6W/3XH69nTZhdL1kj9+r5v6ZX5IzXFbDsrDNXj931Lr9w3Sd8xmyRJp/V75zi8fli/v8vsAwAAAADA2YvgKnpNlwbWzmbrirSyMFcrC1errs1s7H3nx30q15yaJi1ZNd9sSF1bplbflK2cm7KV8/2LzNbzxEX6RmgMfpqpoNkMAAAAAMBZjuAqcFbZqB235mplYa5eWGe24azTHNRxSfosqF1m21mhTZ8FJQU/0yGzCQAAAACA8wDBVQAAAAAAAABIwQXZ2dn/MjfGU1JSotraWgUCAbOpV+Xm5urYsWM6deqU2dQnZK3apwUTWrS9sEj14a3lmlMzSxl7Vmvt8o1GX1/4vRortHJhWeS9zezX6rmfFm0vrFDWy8s0Pt1uaNutDbfOVnO4Z6Ks880xtvq3GVmUi6q1Yma+Y0ND5LqLtmhJ2URlOFpdzHOL6h9UXfkY7agOb+hxBeubNCPPcU1h9vg471dS5z9f019epvEBr/ttt4XuYdz9JHafrOtwdIh73gbzPkUd02t8op9ZyWtfCfI8R3NczHFzf048z8fB/EzFHTOHR589rFmXZmr1rDRtMBsTNlSP3zdJg+ur9O2dkQn1U6YV696CNr36xJv6ldF3WPh9UHu3VmlV1KCa/Y547mdwfZW+HbhWrxQNDbccqv6N7n8//DZ5he1674GAWl7J1jeeMxsBAAAAADg7kbnax1jBHqmu3Jr6vbIwVxtapkctRlSwvskOnNr9yndLE5Z51IzM14yaZcr/YLW9vwr50ydqQdxFkzwUbdESOxAcOq+V5bvV6tWvYG+kT+Fq1bXla0ZNtQokqXq21tpt2xvtwFq4b65WmgG7RdJLjvbtjT6NL+vdRYvq6xsk5WuUuUDUonHKUVB1L4WCbV15/pFyACu3NZiNEQnep6xV+zSq3jHu5bvVmjcrsphWMvfJ45jbGx333Bb1zIb2nYpF1VpRNlGt2xzn5DEuBeuXSOvcfTIcn5Pm5WPstgr57WBquG9hbtQfK+KOWa+xA6aH31TJE7+xX+/pkhnGIllZI/VrO3Aa6vfq4aG6xWMxqrSCYr1SJL1q93uyPqhhRcVafm4X3gUAAAAAIGkEV/uYywf5pLb9qndkJDYvH+PODC3aokl5kn+bIzOwerZe2hNUxoRZroCW7IzFSJCoTPsbJWUOTWqBooLbJiqjbbdecgSbPFXP1lpXJt9G7aiOEYzsVJleMDIa61/arVb5lD/VDCLH9+8PvqiqqqoYrxf10H+YXxHHur3yS8opcAfVCgryjXvXdeefqETvU9QzVT1bbzZKyhsX9fx0xuuY9Qsr5Fe+JoWC/V7PbMrma3pRvtRY0Wnd2fqFRnbvugrVtUkZ10xL6vlXF49Zl8ryabCkQx8ecWw8ovs3HnDVcf3O169VWvA9rXdkwf6q8k0d0lB9Y5qRvRt8T086Mlp3HfSrXT5dcpm7GwAAAAAA5zuCq33MsZaglD5RC+Kszp41dZQy1KD9RmCp+WiLpEHKcmVFBhUwEvrqF5oZop0p16g8qfWDnUl8jUNDS1TmZMqqj6S0r/96+HYVFxfHeN2uh/5gfkU8ZareEzSCagmOUYrnn5gEzyGGYy2prOUe65gNCrRJGYOs8hCxntmUFE1Tfrrkr4+ejt+5jWruwoomqY1ZF7MXxRpW9C09PtpsDBmq0dlSe+MRY+Esa0GqtIGOugnyWGCr+YC+/cQZlgUAAAAAAOAcRHC1j2lePsaa3pw+UQtqmrSipilq2vHlg3z2dH+7PfRy1TntPQXrjfOKqouZuKxV+9z78qgl2hua39ivVmc27qJxylGD3jQyRvvq+Vs1Ut33KV7t0ZiKhipDUsaEZcZ1uuuc9pqiLVpiXKerZmpSumjMutwR3f9ElfYGrQDrK/d9S6/cZ0zht7Nb0wqK7fZIv3F94RIAAAAAADhLEVzti9YVuWtSGnUdrWy5Blftysgr1iJHPcNa8CfoqhnrVfMzEaHFhvzOupp2bcxkdWlZAEmq3qmGtkhpgIKCfKlxr2vKe1eef9eyF58y6qhu2JNCFqadiWvWKg2/PBZ76jGhBa8aK1znlFqd1y4cs24R1KqNdr3Vre+pXT6Nu8MRYLWzW9sd9VZdr0pnSQEAAAAAAJAogqu9adG4TrMY6xfawSBHjVTv6f/dyT3FO6TgNjMj1ZoirsYdCQV4rRIIg3S52SBJmq+Ca3xS225Vd8FU8q4tC6BILdm8cSqwr9s9Tb1rzz8xCd4n+7nzVydWGiL+ffI+psnzmbXrsCbNDuhmDHHWrbXrsDpYpQicC4zF08l1JDlm3cenKXmdpJo2H9C37QBrpEZqjOn/AAAAAADgjBBc7SFWcMk5jbzaYxr/fE1/2b3CejhgGTgSCeqsq1Bdm0/jy8y+3WWj6j8ISnnTw6vcZ63apxmZQSMj1QpQuWqR2qu6e5UFCI1JeNEjF7s2ZvooFYQCcvaq9J0FpHvMur3yK1+j1o9TTlQQtTfOP8H7ZNfAdS7IVbA+9hT3zu6TFWSepSWe7bZ1e+WXT+NvCx2zXHPKJkptqWR+WouyORdvK1i/TOPlvk7rvJ2Lh83X9JdjlQWw75dj7FySHLOuYQdE84ZqiiTJp+XzPabxj56kXxsLUk0ZkaM0BfXZJ6EtQa16+4iUHd0XAAAAAACk7oLs7Ox/mRvjKSkpUW1trQKBLlwVpgvk5ubq2LFjOnXqlNnUZ4SmiVsatL2wQlkvL1P+B6u1Nlyr055+7Pi61j3O9ghrCr6xsbEiPBXbOp5UV941pQJcx2us0MqF0pyaWdK2XMcq6sb5t+3WhnXSbWUT1erqZ3GPid0/vNjWfE1/2Vm7s0HbC/dqVM0sZcQYk54WGhPve5TY+XveR5s/NGahKe5mB5ljluB9MoL7rXtW6yUt0YIJLdpeWOQqb6BO71Os8wu6nz1XH6utfuo+Lbhmv3tfCXGPbeue1Vr7xjQtKRulBscxzfP2b8vV/oImzcg0zl+K2qfMz14SY/bos4c169JMrZ6Vpg2O7ckbqsfvm6Rh9rv2+ip9O3CtXimSXn3iTf3K3j5lWrHuLXAGTY+42sOyRurXd1yrNNfGoPZurdKqZkWOd/jNri8VUNiu9x4IqOWVbH3jObMRAAAAAICzE8FVAOhiXRdcPYcQXAUAAAAAnIMoCwAAAAAAAAAAKSC4CgAAAAAAAAApoCzAecysRxlLuO4n0G2iaw17Mmu99lGPPntYs0KFUiXpUJZyvn+RY8P54rR+/3qznEv3NVAWAAAAAABwDiG4CgAAAAAAAAApoCwAAAAAAAAAAKSA4CoAAAAAAAAApIDgKgAAAAAAAACkgOAqAAAAAAAAAKSA4CoAAAAAAAAApOCC7Ozsf5kb4ykpKVFtba0CgYDZ1Ktyc3N17NgxnTp1ymxCggrWN2lGntS6Z7XWLt9oNidmUbVWzMyPvG+s0MqFZc4eDvM1/eVlGp8u+bfl6oV1ZnsvCl1H225tuHW2ms12RCR1z1N4zoq2aEnZRLX2tWckdC2ZXfSMLKrWipmDVFc+Rjuqzcae9eizhzVrmGPDoSzlfP8ix4aQoXr8vkkapiN69Yk39Suzua/LGqlf33Gt0s7o/H1aPr9Y43yh90Ht3VqlVbEeiNGT9ErRUCn4np7ceEC7zPZeE7mOQ9W/0f3vm+3d4zul39It2bGPmfizCAAAAAC9g8xVdK11RVpZmKuVhatV12Y29r6C9U1a8fIWZZkNSB33vA8o15yaJi1ZNd9sSF1bplbflK2cm7IJZsUV1KqNv1HJE79RSfURs7H3ZY3Ur+/7lh4fbTacHX78ffsZvOlK7e6D318AAAAAgOAqwuoX5mplYW5i2YRdYqN23Gods69lJIYDhl2RkQiXnn/O0H3a9FlQUvAzHTKbzgbNB/TtJ36jkpSzVlPw/ptWILZPZa3KFST2yiDtLodOBCUF9dknZgsAAAAAnB0IrgIAAAAAAABACqi52qPKNadmlnLC74NGfUWrXdtyVT1knxZMCBXxa9D2wiLVh7/OkrXK2Sd2DcvO+oVqYIbErH9q177MCG8wz9/Jrqca8Kq/Gam1avHej3neEdH9zWtw1f2MOm+Ds65qEvVDo87P6Ju1ap8WXLNfG249oiLHfTfHv6dZY+X1TNnPp+s6zHsV7/zj3fPoexTzOYv6nFii+pv3yvk5SeaeSx7XGf2Myeuey2tfCfI8x+jjmuPmfM48z8ch6l7FGzOHR589rFmXZmr1rDRtMNqSNWVase4tcJzj4TdVUumYPp81Ur++I0f/e2uVPv66VX9TUoyapKEaryGxaqV2Ugc1XGs11Ox1LEuoJmiYef5OoyfplaJ075qroVqrIZ77Ma/PwexvXoNxjVHnbYjUOO1krFzM8zP7Wu2q/o1ezXTe91j3KRlfaGvFx5r4KTVXAQAAAPQtBFd7jFfgqlxzXh6q6nBgxhFUCgds7KCP3AGcqACZHaiRK5gSChi5AzZZq6pV8EZRVOAo/sJB5rmGziE6GGSJH2gLS2oRH2uf+R+4A0ZZq/ap6OiYyDmHglYegdHEFyCKd/6hcXUGpux75wi0RQJfjjGyg1tRgcKeFOscPO5Fwfp9ynrJcW/sr40K2kmdjJlDvOfM6zn26l+0RUtuO6K1UUHg6GBh5/c8+rNp3TsZYxEdlO583zF43QOP8U/82bauIcPzvtiSGLOuCq5agVW5AnBTphXrlkBVZOq5M0gYDiDaQTxnQNHup/oqfXtnUAoHEI3AXWh/roCpT8tLh2pXZXQA9Tul39Itl3gHV2OeqxnoDIkXXA2zg5mfxdiHafQkvVIkIzg5VI/P9+lVxzlbY2EGOyPnfDzGglEu8c7fDg63O8Y/FDiPBGodwdfwGNnXK+8xThzBVQAAAAB9E2UBekrRUGVI8tc7AyJlesErKOPKhNuoHdUNUvooFRTZ7UVbNClP8m9zBESqZ+ulPUFlTJilgtC2RbOiAquS1LzcI7DaqehzrX9pt1rlU/7ULlxEJ46sVUs0Xrv1khE8al7uCD7JGos3GyXljYuMRVcKj6szIFWmF7Y1SOkTVbTI1Vv+bY7xX7dXfkkZQ5Ibs39/8EVVVVXFeL2oh/7D/Io47HPIKSh3bS4oyJfa9qve8WzULzSC3usqVNcmZVwzrVsWiCq4baIy2qLvcZTq2Y4goSKfE+VrlDH+nclaNV05atB2x/6al69VXZtP42+zx8jrM5ey+ZpelC81VkQHlw1d+mx34ZglathAnxT0a5fjG8eunY5gpZMrYHlEr9YHpexsfcfe8p2vWwHT9XZgT5J+VfmmDmmovjEtkhkb6ucO5AW1yiOw2pmoc20+oN8fluu8utdQPV40VIeqzazPI7rfCFT+6o/vqV0+/Y8RsTOZU+fT8uuHSoffDAdWJWnXzlrtDUrDrh+pKc7uwff0ZPheBrWrMSj5LvHOyAUAAACAsxzB1Z5SfUStknJmNmlOJ4GM1g92ugOuDS1qlU+Z9mzerKmjlKEG7TcCM81HWyQNUpYdhPUKlnUp+5p6RNEW3TbBJ3+1RzDaw7GWSACgqxUU5EtqUbM5rp6B0+j7lIr/evh2FRcXx3jdrof+YH5FPGWq3hM0AnTlGpXn8exF2ajmbktaT/QcYmhoSeF5nK+Ca3xS414jaGpfZ+ZQZcX5zKWkaJry080/tCSuS5/tlMYscYdOBCXftbp3vhF883DoQ3cW565Am6R0XZklSUM1OltqbzxiBEitBbXSBobqOcTq13WsBZh6xndKJ2lY8D296hWMNjUHddzc1lWyhup/+KT2E21Gg3fgtDvHHwAAAAD6GoKrPaZMLxSuVl2bFWBdUdOkFTX7ND2UjZqEywf5JOVrRk1oP/bLVUtxvrIyJQWOpBao8pC1ap/7eB51MbvHfE1fZE2F9s70K9ccYyzi1aHsEm0tOmZus2UMct6Hvqn5jf1qdWYsLhqnHDXoTTNjtGiLlhhj66r/2YsK1hvPf1T90kTkKzNdUt4s49nuK9fZtc9214xZ4nbtrFJJ9RErwHrft/TKfd/SK6WOuqOJyvJpsKS0gmJrH+GXs1ZopN/xQFcFQIfqcdfxvuWuH9udRk+ypvlv9864nTLNHIsYtVq7UOxxDQXBAQAAAOD8Q3C1R23UjltztbIwVyvLrSn148uSD7BamWsN2l5o78v1Ck3jdmfenalQ/VD/NuexKuQ3O3aDrFVLrLqQnnU8HbVOHeOwYU+sIED3a21pMDedsS4tCyBJ1TvV0BYpDVBQkB+dvems7+kY2+2Nzk69I1Lv1/E8lu9OIQuzQYE2e5GoqM9SrlZ6le3oMV37bHfdmCXp/TdV8sRvVPLEb/TqYUnZk5IPsNpZme31VeF9uV6hKeh2v8GZXREAteuHBt/Tk45jPVmf2vgnxyoH0F5fG1371Kh1GhmHN3XI7Nhj2vSxx3kCAAAAwPmA4GpvqZ6ttXaANTTdPxZzSrI5/T+WYy1Bd63WlNlTp9t2q9ozc7QbhcoBxKp1uWiccqTkygWkD9LlZkMS6uuNGrghi8YpR0E1vNFJvdAUdG1ZAEXqbeaNU4E9Hd+cpm49d0HVveQV1O4OVqDTzPwtuM3MrrTOV407EqodHP+eJ/ZHCM/PnF2HNWl2OQ13+Qi7DqtTUs+299hFJDdm3eVXlXaA9RJfp2UCvjN8qKNeqzn9Pxa7X97QTvffqdHZGibp0NvemaPdKVQOwFlfNsKnKXk+KclyAWcUcG4+ov8dlIYNN4Pi9rkcPmzUhAUAAACA8wfB1Z6yqFpLVrkXMQoFrwLxEh3t4GLrnopIcHFdhbXYTll13EVtmpfvkF/R/bJWVSeZLWsHoIxFtZZ0e1mAzsoBRGpGOhdnKlgfe+q0FSTL1yTjXiQlNP6LtjgCcuWaMzO/14NXSVm3V37la9T6ccrxCJxbY+VcsGy+pr/cndPlN6r+g6CUNz38fGat2qcZmUEju9LONnXWjF1UHXOKe2f3vP6l3WpNn6gF690LfLms22t9lkILXKlcc8omSm1ewa/OlGl/o1yLzxWsX6bxMq4zqWfb/ow6xs4tuTHrGj4tnz/JWPjJqomqz4LxA5ajJ+mWbGdgM6hVbx+Rsifp147Fq6LZ/XzX6l5XdqxPy0s7r/vq8slnapc7oPid0h4oC9BJOQApqI8/k+TL0ZTQN6Cskfp1zLIAdsC54NozWIQrMv6Pj45snTJtssb5gtr7R3e9XAAAAAA4n1yQnZ39L3NjPCUlJaqtrVUg0G2r2qQkNzdXx44d06lTp8ymPiM0tT6iQdsLnRmZ9jRgRw9J8m/L9QwuWtN8jY2NFVrpmj4/X9NfXqbxjoSv1j2rtTZcW9P7mBbn+Zn7adD2wr0aVTNLGY79eZ6TLXwdoenmZgdJatutDfZU7OjxinBdw6JqV73Z1j2r9ZKWaMGEFmN8LVH7dRwzofOXPMbDHNfQccxzsMbbOWa9KXS95rmHmGPl35ar/QVNmpGZ7Jgl+pwZ+2us0MqF0pyaWZJr/I39te3WhnXSbWUT1erxeTGvw3nPLd7n57rnruc2qLryMaqfuk8Lrtlv7CsR7uendc9qrX1jmpaUjVJDeai0R7LPdmfPZOJj9uizhzXr0kytnpWmDZHNKbCn1ju2tNdXuVacV9ZI/fqOa5Xm6CMFtXdrVfSU+ET7RvVz9wlNq/fiOr/Rk/RKUSS42l5fpfWarHsL2vTqE29a2ZpRx3IIvqcnN1pB0u+Ufku3ZJsdLIeqf6P735fneEUciRxTPi2f76w3e0SvPnFYo++bpMHm+Eqe+w0fM8Hzl6LHw31OCh/HPAdrvB1jlpIvtLXiY038NEs537/IbAQAAACAXkNwtU/pW4E3AOenrguuJsAO7h0PBxgBLwRXAQAAAPRNlAUAAAAAAAAAgBQQXAUAAAAAAACAFBBcBYAuULC+SStqOnvti7HgVB+UHtCy1w/L//ph+Z89bbYCPeLRZ+1n8PWPNdFRTxgAAAAA+gpqrgIAAAAAAABACshcBQAAAAAAAIAUEFwFAAAAAAAAgBQQXAUAAAAAAACAFBBcBQAAAAAAAIAUEFwFAAAAAAAAgBQQXAUAAAAAAACAFBBcBbpJ1qp9WlFTrQKzIa75mv5yk1bUNGnOIrMN6HkLHvpE/op2LTAbbN9dW6UXH/x3c7PbfzykF6t+pu+a289Z9ud4fbnZ0MO+0NaKw3rvoS/MBgAAAABAFyG4CpynUgv+nqsK9VzNT/Xqqnyz4fx2V5uW3dChhj+kaYNz+4KfqWqtFSpt/KRdzcf+S9J39bOqF/XQf4Q6/bse2mq//8MRNbedUKOkf3/wxfDXwlvXfTYv1B1/yJDvho/1+7vMNgAAAABAVyC4ih43YM3TGrNxrvqZDfPu1ZgXVypzitlwPtmoHbfmamVhrl5YZ7YBPaiwXe+VtCr41pX6xnNG24aX9c6lt6qq6kXdepmka3+mqqpblXfot3roD6FO/6WHdjbruvurVLV2jKSBunVrlR64XnrnlV+694fu81y6Vr/VX/kln2hrodkIAAAAADhTBFcBAFEeLQ3I15aptQ9daDZZgdM7ilVc/KxOXJqmPO1TcXGxipcYQdMNd1vb35Py0rN0YmOxiotvdwRg0RM2PDRQu9s6NHFh7PIOAAAAAIDUXJCdnf0vc2M8JSUlqq2tVSAQMJt6VW5uro4dO6ZTp06ZTX1C1qp9WjChRdsLi1Qf3lquOTWzlLFntdYu32j09YXfq7FCKxeWRd7bzH6tnvtp0fbCCmW9vEzj0+2Gtt3acOtsNYd79qwBa55W3sC9Ojh/sz53Nsy7V2OKB+roMysU2BXaeKOGvFiszHCnoNFum3evxhTnRN77q7Rv6e8cHaz99K/7uT46XuzqG6i6R0c3ObomyBx/8z5Fxn+vRtXMUuiI5n0qWN+kGXnht7ag6srHaEe1e6t5THNfYYuqtWKmY4p7+NysZ84xUoYG4xmNPr+Yx0xIvh55+S5dH3oW9Te9Xf6wfhK6zkWLVTNzoN4uf1j/fdtPdVv4uIf1UuEz+kXorWRP5b9Jkav06mMeTzq55zndsrxBklS46kH9ZMJXIo0GZ18pdH7ZkfeNr6twYU3kfYK+t/6nui2zXo/culXhry66Q6+WFah52wO6y5G1HHWOnsc0r9MY1/B+Tuilwtf1b86+bcZ5yM5afSCglleyo7NWJXvK/wO6Lr1djYckqVl5w/LU/vZPdfvD/xXptuBnqvq/86RDjWq8VJLylJfeqJeL71Y4DFu0RUvKJqp1mztbu2B9k2ZkGt+r7L4Z4V7Rz6sU7/l3tg9SXfkYNd/mfL5j7C8B5udE8jhu1Pk7P+fJfjbna7rz+3pnn8272uQvaVVDzHsKAAAAAEgFmat9jBU8k+rKranhKwtztaFletTiRgXrm+zAnd2vfLc0YZmWrJrv7qh8zahZpvwPVtv7q5A/faIW9PpCK4mwA6v+Ku27/R77VauL5rpLCvRbutIOyob6VCmQU6wxa2509LL0H/8DjSmWGu39HawLKrM42VIE1mI1rvEvrJA/b5ZWvLxFWc6ubYM0qWaWtM3ut61BGROWue5n/cLIvQ718ZLoPS9Y36QVM/PlDx2zMFcr68fZxyzTC6Hnak/QDtg4j+8VWHX3eXPQEk0vcnRKVNEderXmLl2vej1S+IAKCx9QYeFW6bY75J6t/BVdX/ZT3abX7T7P6e22bN32sqNf0R16teYmZe15zu7zgF5qzNZtNYv1Pceevrf+Dmld6FgPqHDbYQ2YcFe4tmrN8oftttfVYAdTw30LH3AFVgtXPWgHfkPtr6sh7ybVrO++udZWQFSOYz6gR1q+rudc3w8K9VzNXbo+EBqvB/TIHun6sgf1SNR9ytZtNXdp5Aeh63xdDekF+olxDQsmd8inDO2NFYRbcKuu+/RlFRffrn1Kk967W8XFL6v5+u+7a65Oy9I7jxer+JUTytIJvXxHsX76dpZuTaXmqh2Y1J7Q97JcrSxv0STje1nWqn124NT4bEZ9z/NpfFmTZqjC7rdadW35mmF+hjtlfT+YkblbG8Kfk9WqazP7lWvOIuklx2dpe6NP48v22Z+nZD+bS6R1jnb7e4v5/SDsuYvVICl/zGmzBQAAAABwBgiu9jGXD/JJbftV78g4a14+xl1/s2iLJuVJ/m2Of2xXz9ZLe4LKmDArahEU/7ZcRzZTmfY3SsocmkQA4d/10NYqVVXFeG19SJ2sFZ6aKVnqLylwwJmB+jsddWW83qjLxvvUUfeCI5v1dzpa5ZdyJkcHTYN7dfD2J3XSfvv5Wx+pQz5dlGv0i2fRLI1PD6qu3BnsKNML2xqk9Ikqcga+0n3ujLx1Faprk3KKkgzgJHrPw/2Mmq3rilKo4TpfWZmSGve6gjr1C6MzahPxvdsKNCAqS7JBP1loZE2Ggpzh7MwG1XzwNyl9oK6yt4T29TNH8PMXC19Xg7I13bEo1S8WurM3te51vd0mDbjma0ZAtzOFun3CV3Ryz1bH/mp017bDUt7XPYKYXeOqQV+R2hpU47iGmuUPG5mtX1e+DuslRzZrzfKtervtK7r+tuirbNjmDBrXqL5RUuZgx3h8oWkjOqRDF+vH4W2GDXe7SgBkXf7vkn6pu11T/v9LD93heJ8+UHmS/uvh26PLByQif5AyFFTDG47MzOrZWuvK6i9X0QSfWvesdTyj9mczb3rUHwVa96x2ZJZuVP0HQSl9kC53d4sv9P1gXWezAcr0gjFjoP6l3WqVT/lTYwRE44j6HNrfWzKumRbje8tF2ntI0qX/oDQAAAAAAHQhgqt9zLGWoJQ+UQviZE9lTR2lDDVovxEsaz7aImmQslwBhKACRiJk/cJcrUyqLECovmKM1x0PyTERuOvsalaHpMzipzVkntlomzdSmQrqs7c+dG9v+tQ7aHqi2V2KYNdmfXR7cmUBCgryJbWo2Qwwrtsrv6SMIc5AiXmfNqo5oKQDOIne81j9UmOfq2fWX7IKVZAnnfzgT1GBVC/NR90PrZVhGpryH2tfh/VpmzRgkGPafpQG/XcqFU0WjVC+/qYDbxgfpoYTOqmv6FLHDPSu9FHL36T0Av3EmbXrkq/Ca74iNR40yiHY1+kKmkrS3/SpcQm/WPiACl0B739oULoUbPmSq18sv1xS7C4F4OUPD+l2ZymAVDS0qFXOTE8Pi8YpxwzAKvK1mcZ9aj3q7te8fExUhmhnCgryo/4glrDqI2o1t6XM/rzG0dDSX0r/h6OUBgAAAADgTBFc7WOal4+xpoWnT9SCmiatqGmKCmxdPshnT/e320MvZ43Bc8LvdPT2n+to0AqwjnnxaY150T2Fv9/ggZJ8GrI41G6/Fo9Tf+euulpbi46Z22wZg+Lfh2MtQXNTpxK951bmc+xzS1b9QnuKct6s8DFjTjuOp2iwsjyCpimx9zVgwl2qqfmp4+WurWr1vUOvuvo467gmrnDIwHC5Atcxywo0wOzchWqWP6zCbYetAGvomK4p/Nm6NF1S3k3GWKR2nX1a9WytLayQ357Obz2P1a5M/awhg8LT/V2fE1ed096TtWqf+7zi1ljtRNEWLTG+H0TVfAUAAAAAdDuCq33RuiJHTb7ozEErOGfW4wu9UpuyHV8vlQWQJH2owHy7luoze9Uhn4YsjgRYPz9+wl7kKlRv1f1KJiO1q7S2xA8gphIATfSeW5nPyWXFdsbK5ssN15GMW9cxlurjapaUNSR+4Dkh9r7M+qjhV2h6vL1A1IDGSC3SwsIH9FKjucPO1Rw9YS8S5XG8QvcCVF1u3TPuc3fVebWydWVcY/hlLlR11ovUJbVqE+drhiPAamVyB101q52v5EtjdJ3QYnSuWsiFFfKbHRMRWhirMVQv1nptT+HZBgAAAACcGYKrvWnRuE6zluoX2v9gdtRINaeCd79uKAvgu9S1KJXCWagndCpcO9Wwa7M+sgOs4en+sab/n6k7H1NlZaUqn1+myUZTfX2DlD5KBeb4x5qS7FKuUXmSAkeSKMuQ+D23+uVrlLEAmpdE9xmxUTtutQOsXtm5ccYsPGU/6VqnXhKZ/i8VTs3XAP1Nb7+USHixk3128/R/hc83vl8stAOs4en+sab/n4kvqaVN8g36h9nQg+zPSTzriuwAq+MZjjH9vzt5/kFj0SyNd2VRz1fBNT6pbbeqEwjwdvbZtMp/BFX3krPebOfyB3VIbV9S/D//AAAAAACSQXC1h0QFvRZVR03ptladdk9z9QzGratQXZtP48vMvmeHk9v3qkM5unzp8MjGKXOVPd6njrqq8GJTmnevrnL2kdTvhqvUX0GdbrI37NqsY34ps9hdLuBMzRtlR2t9V2vKVKMxNP6LnHVxyzVnZr7UuCNu5nDB+lnKUYO2uxbhSUCi9zy0YNZMoy7lomrNMQOuoRqWt8Wqp1quOWbt36Jpyk/3zs6NO2Zq0E+q7entrmnt+Xpkfax6orHY+8q7Sa86Fq8yWdmmX9HIqaE++Xrk5VjT5e0gZazFqaq3akejlD/zQe/2JFm1VPNVaO+rcNWD+smErxi98vXIy4v1Pdc2q96sAsfDGam/eKleJ6PG9UxcqJ0H+0vDTulRs6k72HVHcwpCz2G55nhMl89atS/qGY6qf1w9W282ejz/3aj5jf1qVb4mhbK5i7ZoycxBam1z9grVWnb8UaZoi5Z4XKfU+WfT+nniXAhrvqa/3FlZgNMaN0zSp1/SBrMJAAAAAJCyC7Kzs/9lboynpKREtbW1CgQ6WTmjh+Xm5urYsWM6deqU2dRnhKaFWhq0vbBCWS8vU/4Hq7V2eSjbMTqw0LrH2R5RsN7jH9ONFeHVr63jSXXl3VEq4AxNmaurjLqogaroafz9lq7UiPGhMZMkvxpvfzISgLVF95MU3KuD8zfbC1jdqCEvFivTX6V9S3/n7uflzsdUOSNXCr6rp+5crVqzXfM1/eVlruy0qPsUmrob2SK17daGzhYTW1StFTMHed63zu55SFQ/jz6SV5C/QdudC/p4XIN/W4zp1Z2OmWOqfnjD3/R2+cP6Seg6Fy1WzcxsNWxLYKp91L4UtT8zaNmw7QHVF/xUt2XW65GoKfP5euRld93Wk3ue0y3LI4Fkc3+SpDavfXXue+sdgd62ej1y63HdXnOT5Lr2Qj1Xc5NrASLznCzR/WRfb2hf1rnLPd6xFLbrvQcCanklW994zmzsBsZz5t+Wq+oh+7Tgmv2uz0vUcx3j8+T+Xmtz9rWf+5jPcrJcnyPrM6T1TZoh5+fO/J7RoO2FezWqZpYyzO8dMvepqM+meY3+bbnaX9CkGZneY6K72uQv+Vy7f3qZ7kj2YQUAAAAAxERwFehr4gRXgZ7y6LOHNWtYhipuStePzUacZb7Q1oqPNfHTLOV8/yKzEQAAAABwBigLAPQxUVOdgV7w48pMBdWqWc+eNptwllnw0AlNTO+v3ZUEVgEAAACgqxFcBXpVueasd9RVLNqiSXlS656KyNR8oDfUpOnaVzKkYc1676EvzFacLe5q07IbOtTwCuUAAAAAAKA7UBYA6G1GbcWo2q04K7hqqMZk1Jg9Cyx46BMtG9Ffq2elnT8LIXnUGvYUq5Zxn2GVAxh18Epd+9CFZiMAAAAAoAsQXAUAAAAAAACAFFAWAAAAAAAAAABSQHAVAAAAAAAAAFJAcBUAAAAAAAAAUkBwFQAAAAAAAABSQHAVAAAAAAAAAFJAcBUAAAAAAAAAUkBwtadddp823rVJW+96WLPNNsPs4k3aepfjVfyfZhcAAAAAAAAAvYTgah81u3iTiq/s0J9fnqc7nrNfVf/L7NbD5itnxQ6N/OY0swEAAAAAAAA47xBc7WmfPKH5z83THc89qC1mW9h/auSVkj5+Q2s+MdsAAAAAAAAA9AUEV/uwjtbD5iYAAAAAAAAAfcQF2dnZ/zI3xlNSUqLa2loFAgGzqVfl5ubq2LFjOnXqlNnUN1x2nzbeOkb9Q+//tk/PbH1Cu929bP+pR+6arkH7f6H5f9xjNibMN3uHRqhSb+/8N4387nUaYG8/XjVd/nfdfS/65jZ99WtpkQ2HKvX2lo3ebYaTf1qjA7/daW6OrWiLlpRNVOu2XL2wLrK5YH2TZmTu1oZbZ6s5vLVcc2pmKSf8Pqi68jHaUR3eYFlUrRUz8yPvGyu0cmGZo4O1n4w9q7X26CxXX79xHpKkqcu0+e6xSvO/ptL7NxmNAAAAAAAAAJmrPSdcDmCeqj42GyVpgpbeEVq8arpyJPUf9T3HglbrtPQy82sSMKxU1393oI6snK63V07Xn//UrsHF2zT4ilCHaRq8ZIe++rVmHbT7vL2yUseHler6JQ/rIkmnfzszst0OplrvrVdSgdWk2IHVxgqtLMy1XzuUuWiLshy9slbt04qZg1RXHupTIX/eLK1YX+7oZcmYsEwrZkrb7f1t2BNUzsx9ml7k7jd5wtVKk6Sc0ZrnbgIAAAAAAAAkgqt9yR6t2RpavGqH/JI69v8ispjVc4tSrL/aLv8vFytovzv9/gc6qTR9ORSdHFuqnAx3H2mj/FWNUsZ1unxseGPPKxqqDEn+emcGapleMDJbiyb41LpnrSObtUwvbGuQ8qZHBU3VtlsbCotUb79tfmO/WuVTpiPpVZJq9/xF7ZLkf1/krQIAAAAAAMALwdVzXesHav2ruTHCNyJPUrP+bvZ59886LintsmlGQw+qPqJWSTkzmzRnkdloWzROOQqq4Q2rhEFYQ4tn0FSBI47ArKTq2Vpb6FEW4I3VmltaSkkAAAAAAAAAxERwFVLrCZ02t9kGZOaZm3pQmV4oXK26NivAuqKmSStq3FP4s4YMkuTT+LJQu/0qm6gM564AAAAAAACALkZwFXGdDDSam3rYRu241a6lWr5brfJpfFkkwNp8tMVe5CpUb9X9ispIBQAAAAAAALoIwdXzXPBgo5RxjTLCC1zZxn5Vg9WuwPvOxaoa9ffW7spmLdeoznZbPVtr7QBreLp/rOn/Z2rqMm2urFTl4yxnBQAAAAAAAG8EV89371bK35qmnNKHdVF443zlFOdJh17XcVct1p36+wlJw27SYDMYm4xQLdWCcntDuebUzFKO0U2LqrVk1XzXpqypo5ShoAIN9obq2XqzUcqZ6S4XcKYmT7haaZKUM1qEVwEAAAAAAODlguzs7H+ZG+MpKSlRbW2tAoGA2dSrcnNzdezYMZ06dcps6hMmfn2dFo/qb26WJHXs/4Xm/3GPY8t/6pG7pmtQ1Pbk+Gbv0IiB7+jPax+M1FS94mGN/O51aq+aLv+7oY3TNHjJUuU4ipSe/NMaHfitM2s1JJm+cRRt0RJHXVT/tlxVD9mnBdfs14ZbZ4cXncpatU8LJvgcX9ig7YVFqndskWc/SW27HfuyA7iNFVq5sMzdz8vUZdp891il+V9jUSsAAAAAAAB4IrgKAAAAAAAAACmgLAAAAAAAAAAApIDgKgAAAAAAAACkgOAqAAAAAAAAAKSA4CoAAAAAAAAApIDgKgAAAAAAAACkgOAqAAAAAAAAAKSA4GoPyM3N1cUXX2xuBgAAAAAAAHAWI7gKAAAAAAAAACkguAoAAAAAAAAAKSC4CgAAAAAAAAApuCA7O/tf5sZ4SkpKVFtbq0AgYDb1qtzcXB07dkynTp0ym3pdXz63bjPiYW2dki39bZ+e2fqEdpvt55Mpc3XV4nHqL78ab39SJ832hAxX5sYfaIgv9D6oo8+sUGCXu1dYlxzzPBEeK1twrw7O36zP3b3CBqx5Wnk5Ukfdz/XRmg/NZg/2vTtRpX1Lf2c2dh3u+Rn4QlsrPtaog1fq2ocudGwfqsfvm6RhOqJXn3hTh6YV694Cn3T4TZVUHnH063rfKf2WbsmW2uur9O2dQXdj1kj9+o5rlRZ6H3xPT248oFjfDpLn0/L5xRr3WfdfJ+BmP3u+oPZurdKqyybplaKh0c94Ybvee6BD+396me6oce8BAAAA6GlkrgJnhQ8VmH+P9t1+j/ZV+c1GnIldm/XR7dbYNvbBoe23dKXGvHivBpgN6DKPPvuxJqZnaIcrsBptV6BNktR+wvpvr2k+oG8/8RuVPPEbvXrYbOx9U6YV65X7Juk7ZsN5aagev+9b+vW08F/GkIxPPlO7JH0WdP/xoCZNOw51aOIDbXrUuR0AAADoBQRX0T0OPqg7npunO873rFU5g3c9mE3YG8fsETdqyItPa8zGuepnNsnO3nzxaV21dLjZ0mVOLrUCsYllrfagnrzn8+7VmBef9nwNmWd27tsWPPSJZg3rr90/TdePzUa16bOgpOBnOmQ2hfm0fP639Mp9Hq/SoWbnhP2q0gqeRmWtAue0oD7+TJLa9HGz2eb24+9fqd1trZpV0a4FZiMAAADQgwiuAjiL/E5tfkm+q+SbYrZJ/W64Sv0V1Gdv9bHA5zkqUGVnUzteRzeZvfqy05p1Q4eCbw1MbGqxnUV3POAR8Dz8pkrsbNLwiyn1wJlpDup4zGzxC3XH+kwF0wNa8tAXZiMAAADQY6i52gP68rlJE7T0ju/pq207dMefrtDGW8eEa0927P+F5v9xT6TrZfe52qUO/fnlRVrzSaRLuNZqyMc7dEfV/3J0iJhdvEnFV0beRx1PipzfV0LvPY6ZhFC9zBDvupk3asiLxcoMvzdrWDpqaG7PctXrdO0vmVqe8+7VmGLHiUUd02HevRpTPNC75mpCxzSvz8EfXRe039KVGjE+MqXVHDOr/YQab6/Sxc66sB7HNvfldbxO2WNlnkf4vsh5XLNWbfT5Ow1Y87TyBkafd7jNcYsCVbEDiWZfyeNa497zOPdIcvdN6J7bzL7mczZlrq5afJU+e2aFTs1wXIO5T/vc441Bwp8T+1r71/1cHx0vdo1J1P47O/9k9mVnrS67oZ8qbvLKWk1UEvVJR9v1I8OsWq6/cmwJ1VoNOVT9G93/vqOD4Tul39Itl8SruRqqGxsSfUx5HFeyA8adXVOYeRxT9HHNY3rWl01YqFZn6L1dszOU/Th6kl4pStferVX6+OvO40afV/S1ePUxj+c+/ymh+rwxRF2r+WwkNfYRns+DXaP3uPEsRZ2j5zHN6zTGNbyfNr36xHu60tnXrJPaTR599rBmDcs4w88xAAAAkDqCqz2gL5+bO3jpCFzaQVL/rnn6yUFJ+k89cscV2u6Y5m8FR2MFOx1BW4/gqvW1h1X13IPaEt62TkP+5NzXf+qRu6YrxxGgnfj1dVo8SjGOGZ8V8HIHYwasWamLtzuClHbwRo7gT/TXOQN2joWl4gSc4gXtNGWurprRrI/CgbfQ/s3AkS1ecNUh7jFN8+7VmGJFHS/q2j3GxxkwjQTN7OCgI6Bo9ZPrvPstXanLjq+IGq/47H2bAT+Pc4u6vzEDs5aExsw+TofHfY4b4HUuaJXEPY8Erz2eBUO88w/dJ+fzad1fxzPsCF7Gu5fxnvWIRD8nzkBy5PrN5yWh809wXxZrEauJn2Yp5/sXhTamIMHgatZI/frrQX073CcUtPIK3MUOiJk8g2kh9j7kCORZAU3nMe3zkHMfCV5TDJFgm8d1SZHgpTP4FlqkyzPA14nQ17qCeT4tLx2qXZX2e2fwMnwMj2tPaMyk75QW68o/msHbodFBU/taB0dtj7DGS46gpT0+KYyF5/Pg8SxFH9PadkugyvG8RZ9HrK8LBWkj1x/9td3mrjb5S1rV8Eq2vvGc2QgAAAB0P8oCwHZYVc85ApYHP5Bf0qCBE+wN/0s/MeqnbvnTPnWov4YPD/VJ1AQNSZf08QfhwKokbalyB0wnfn2qcnRYVY7g7O4/btaf/9ZfX/3af0Y6JmS4Lh4oyX/AFaA6udQdoBwwY5z6B/fqsCPwdnJplQLK0eVRdTz9arzd8fWbDiggqf9gs18ndm12BNlkLV5V65eUo/QeqV95o4YU5yhQZQTvpszV5Tlyb9+1WYfrguo/vjhqgaVAlbMOqT19f2BWuDZqv0yfFPxIQcd4f74m2cCqJP1On9QFo0oDWCUB/DrmundGAHpTlY4Gpf7Db/Cu2Xqm5hVriC+oo5ujg5suPX7Pb9Rl433qqPu5a7ytZ9unITNudHaW/FVx72VyEvycBPfqoCOA/PlbH6lDPl2Uq+TPP+6+bIWnNCpdath3JoHVJDQfcARWJSmoVW8fkTRUo0c7Nneh73zdCjiudwT1flX5pg5pqL4RWmBp9LXWyuzbPYKz3WTKtGs1TEf0qjMA2HxA6+uDUva1Wp7l7t+Z0HW6A8xBrQoFVh3a66scwb6gdjUGJd8l4SzVhMZM0q8q3dmbev897Q1KaXlD5VGxJI6huqXAp/b6Wsf+juj+6iMpjUWihg30SUG/djmuYddOZ2DVcZ8cz+2unbXaG/Rp3Nej6wkfqnbWCD6i9w9LusSX5Hik4LmL1SBp0OWUBgAAAEDvILgKy99a1eTa8L/0k+fmeUzTd/jkr2oxtyVkj462SbpyurYWxwqSTtCk7P5RAdjw16ZfoYmu7Z35UKdOSMop1pg1RiAm7Eal50gdH75lBMb8Oh2U+mca87yDnxr9fqejXbXQUdOn6jC3dZMBa6ws0E+MIGcoWNlmbP/8+AlJA3Wx61/MQZ12P0DWwk+ODMrPA0HJN04jYi1GlYRQsOySG0IBuuHyDfdFBc+j2c9BNxkwMicqgJyw7rzn80YqU1LHcfPZ9A6cBg4kVqohs9hc0GqlMs1ISqKfkxPN7n72Al1HNyV//nH3FZL/D/nUXy0Njm1nIntS1IJWj3cWNA2thN4thmp0ttTeeMQIMFqLdKUNTJckfWf40KggW/fyaUqez3ORsF0H/WqXT5dcZjTEFes6vZn1cnftrFJJOCM11r7cY+YttBBTkkZna5iC+t8HjazWTz5LYSwSd+hEUPJdq3vnj4wR/LTv0+HDRvaxfZ1RQdOgPjNmk/yq8jcq8cqo7nJfUkub5Bv0D7MBAAAA6BEEV5GwiV9fp613bXK8psssK5moLVXz9Mz+DivAau9v49edGbDZyviKHYB1HdNdpzUZJ5feo4N1QSvAageDXKvKT8lSf0n9x//ACBi5a3Z2hwFrjCCVq65kN5p3rzWt2iPTsl+mT1KO8swV4V11QhP3+ZoV2lfltwKsoX3FDHR3Ytdb+syZgTrlBl3i8wgKTpmrq4zzj6qF2kt6/p5HB8DDfJemFPCOXtAqfqmKM9P159+lPBa0Mqfzf6fUHXx95Y5rlebu0nWyfBosKa2g2Aj6uuuE9prPgjGDboMzkzhB+zrNoGlKkhmzrJH6tRFMj6pZm4ApmemSfBp3Rw8+G6GgcvURK8AaOmapMxs1XZf4vP9okMp1AgAAAOcygqtIiFXrtL/8u+bpjudCrx3ymx2TsPuPi+z9/EJ//pvUf9T3HAHWw2r9m70gVvh4jpdRoiBRn69ZYQeBfm5NDx//g0iAdVezOuxak+YK6Ptuvyf5hZcSFKkb6TjWM3u7L4sxzCoH0FH3gmdA7PNA0J7S7TEWqQbRNj0Z3kejv7NM4ng+VPDDSGkAzyzbUP1Qf5Xr3BvP5KHtIr13z2OIyi49y5wF52/V7Qxq71ZHAHbre92XuRpaZb2+KiroW/LEb7q/DuYZSCpQal9nUgHZWBIdM2d9WEf7q4fNHXZuV6BN1iJRHsfzCNB3qfcj5//qYTuQGg6wWtm6Xn80KHmipzJSAQAAgLMDwVUkwJ6i/7d92n7QbOsKe7Rmqx1gzQilxKQ6/T9RHyow3w6whqf7x5j+362sUgTy16YWrDwDoXIAzvqyTt7T/7vOyaV2oNOc0i1JU5dpc2WlKisfU6wSpJHSADd6lgSwAq5BHd3ePUFxL1bpAyOLcl6xkfmc3D3vkvuw6YACrjIKIbFKYfQx3XH+DV9SUB0alG82dAdrurkOv+eu09mtEpnKHpoeHqk5KoXqsDo3JMcKGKbrSs96oXad0+xsfcdomTIiR2k6oveTCija15l0rVMviY2ZdZ5B7f1jIgHqTvbZzdP/FT7f+H5VaQdYw9P9Y03/P1M+LZ9vZcB2WjYjYf/QoHQp2PIlswEAAADoEQRXkQA70PmVqzQp9A/Ay+7TxpTLAvynHrnjPnfQ9LIJGv4VqaM1kvqz5U/71PGVMVocsy5rMm7UELPWpz2VvCMQSmW0FxXKKXaXC+hWVkBXOSMjC0TNu7f7p4jHKQcQtqlKR4M+DVl8b9TiVckbrsyN5n7sIKNZH1PS5AlX28GAXI2+02gMCZUGGG8FL82SAFZQ0l2XNXNj95YFsAK+jsXPpszVVcUD1eFKxEvynjd9qg6vRZuSYi0C1n/8HFdN1AFripVpLALWN3XD+ddcrP1tUv6Y02ZLN7CzAJ0BxdGTunnqt71gVvYk/dqxEJPJqnPqWKwpa6R+XZSu9iSSR6PYAUOvRY8kadfO93RIQ3WLcxp61kgtLPCpvf49o8ZnZ+zr9F2re13T2n1aXhqrnmgsCY5ZoE2ST/9jRKiPFTD0ni5vByljLU7VfEC/PywNKyr2bk+SFSzP0RR7X1OmFeveAvNafFo+f5IR3Lb/AOAo1/CrP76n9qhxPUNZQ/U/7NMZNryL9nvXKeVLajl2odkCAAAA9IgLsrOz/2VujKekpES1tbUKBAJmU6/Kzc3VsWPHdOrUKbOp1/Xlc5MmaOkd39NXtU/PxJ1qb/f7Suj9YVU994FG3jVdg/b/Irzw1ezi2DVR/bvm6SehzNfL7tPGW8e4gkmu9rD/1CMeQVzvvp0ITRN3bApUGYvcyLufFNTRZ0JT4Ycrc+MPNER7ddCxYJOp39KVGjHe/EetpaPu544FfW7UkBeLlRlqDO7Vwc1S9uJx6gidn+c52YKR80jsmMbxXPxqdKyyrvAUdscGWavJh8okWMeUY3xiiT6uexwcpi7T5rvHKk1Neq30RzJvUUjkeqPP291uCVTdo7aRTytvYDeO2bx7HXVprTateVp5ioxZ1P687rmTa59yHTOx87dE9XU8O1LkOTPPYcAa95hFn09E5DOV2OckPBaOZyqWTs8/iX1J0oKHPtGyG/qp4qZ0/dhsTJhPy+cXa9xnb3Yy1X6oHr9vUiRDNPientwuLbzjWh2vDk3/Nvq4HNGr9sJL3gEzS3t9lWPFdscUdmcnBbV3q2O1+9GT9EpRKNBlHUel39It6uya4nDtU67zt0Rf66HwOKQg6jq9rzGhY0TtS1H7M+/Boerf6P3h39Itl7ynJ6OmzNvPiOOWmffJ3J9kPyNR++qcVYLCfhN8T09uDOqW+yZJrmuPHn/znCzR/WTcK+vc5R7vmCJjkdC9SMCjzx7WrEsztXpWmjaYjQAAAEAPILjaA/ryuQHA+eu0fv96s/IPZSnn+xeZjQD6usJ2vfdAQC2vZOsbz5mNAAAAQM+gLAAA4Dx1kSre6i8Na9bv7zLbAPRtX2jrwoB8bZmqILAKAACAXkRwFQBw3trw0GWqOCTll3yirYVmK4C+6tFnP9bE9AxVUA4AAAAAvYzgKgDgvPbj71+p3W0dGjX5C7MJQF9U2K7pw/pr90/PpF4yAAAA0DUIrgIAznMX6o5Z2br2IVYbB84KNWm69qbLdEeN2QAAAAD0PIKrAAAAAAAAAJACgqs9oKmpSadOnTI3AwAAAAAAADiLEVwFAAAAAAAAgBQQXAUAAAAAAACAFBBcBQAAAAAAAIAUEFxFWMH6Jq2oadKSVfPNpsQtqtaKGms/K2qatGJ9udnDYb6mv2z1m7PIbOtloet4eYuyzDZ0v6nLtLmyUpWVj2me2ZawyVr2fKUqK0OvzVo21ezj0CXH7B7zHreuYXPZZLPpHBK5X4/dabZJuvMxx72sVOXjqd+lyWWbE7rPoXEPvTzPqxckev5unYwvzsiChz6Rv6JdC8wGSSraoiU1TVpRU60Csy2GgvXn6s+frvm5H/p9JfSKv6+uOWa36LO/a6Tw/eLOx6J/zha2673XP9HWQsc2AACAcxDBVXStdUVaWZirlYWrVddmNva+c/cfrIhWq9V3lqq0tFSl25vMxt5nB3MT/ofr+e75H1n3svQpvRs0G7vHpvvt5+dn76rdbERMqQV/+5BkP5t3tWnZDR1q+EOaNpht6Bb1C3Ot3zXKd6vVbOx15Zpzpn+oPlfUpGnHoQ5NfKBNj5ptAAAA5xCCqwgL/WNl7fKNZlM32agdt1rHfGGd2dbLQkHiW2er2Ww7R5hZeWeSCdjl3lituaWlKi39kTaZbd2lN46ZoFCQb255rdnUTebpMfu56Lls2Ugw/EfPm204c4xvtyhs13slrQq+daW+8ZzZaKuerbWFuVpZWKR6s+280xs/93vjmAnqs79rdN33ix9//0rtbmvVrFiZ3QAAAOcAgqvAecea7ndzTpNeK7Uz80pLVbp/dA8G0tCn3TlauWrSu++0K+3qKeKpALw9WhqQry1Tax+60GwCIEm6UHesz1QwPaAlD31hNgIAAJwTLsjOzv6XuTGekpIS1dbWKhAImE29Kjc3V8eOHdOpU6fMpj6kXHNqZikn/D6ouvIx2lHtbte2XFUP2acFE3z29gZt98h4yVrl7CO17lntmXXaWb+C9U2akRd+K/+2GNkdRVu0pGyiMsIbzPN3mq/pLy/T+ECFVi4s825LD7333o953hHR/c1rUKPjuFHnbWjbrQ2hrJFF1VoxMz/S5tyPIer8jL5Zq/ZpwTX7teHWIypy3Hdz/HvcnY+pckaumrZ3kpEydZk23321/vKzufr45krdHLqA4Lt66s7VcudQztNjlTcrN/y+Sa95ZoBO1rLnf6ix4WFr17s/m6vVb9hvpy7T5rvHKi3U7Hksm30dEbGOGeo7yH2skISOaV6fg/81ld7vPKp5jVL7O0+Fs07nPe4YSw/O+2L2jX3PzPMzxjW0L72m0teudF2v1z7dfa1nwLxHclxTyOSyzfrhdXId27yGzscr+tzd7P4nzP0Y7THGX+HzbNFrpe9rtGPczH5h9jW3eIxViLXP8FMUe18JMPdljlmi5x819lLM8TWPae4rzPzchc/NfAZN0Z9P8/xiHjMB5r7CXGNnPhvusYi5D1vUZ6WwXe89EFDLK9neWavmzx7nzxpD1M8Txe8fl3ncqN8hkvldI7Gf1/K4BvfPusT3E33+nfdt9fy9JbFjRv3+EBY9HlF9HT/3zes3ucYjid81zGOav0N07e8a8T8jLubPTilu/0efPaxZwzJUcVO6fmw2AgAAnOXIXO0xdmC1scKuSZqrlYU7lLkouv5nzswm6xflcO3SfM0w6oQWrG/Sggkt2h7aV/luacIyo8aXtYjDgglSXXnomLl6SbM0vSjSK7HaZeWas0h6KXzuudre6NP4sn2ufSUmMkVv5bYGszGsefkYx1iFxkJq3bPW9Y+jrFX7NKre0a98t1rzZkUW0wpPyczV9kb7H6zO/Tr/8ZpQzdjQuDrGv7BC/rxZ0fVc0ydqQc10BULjv61BGROW9YlFNQYNTiQfMU1j77YDbaWlKi19TU2+sfqhs4TA1GXaXHmzBr3zVDgL9jV/rm42ay5OXabNlT/UWL2rp8IZsxukm5dFMiPDU/NL9Zrf+cWGqcu0edT7kazb0qf0btDjmIlI6Jib9CNnlm9pqI5rk14zAnzzHl8g/crdL+26H4azgs06nk3b3ft1Bm/Mvp7ufEyVxvg/9Y409m6PmpE5N6vy7ktUE+7XrtwZ5kJf8zQ6R2rav0l6Y5f+EkzT1RMcz8obu/SXoDwyWidrytVpkr8m/A/ryWWbNXq/4/p+9q7ac242SlB0bW3czsY/LDhIhZU3S6Hxt/tFjVkC5j1eaQc7I9cpr2N2ysoqd+2r9DU15dysyucdnxMldv7h58cxFl4SPf95j1eG/zAT3uf+0fYxI5+Rp95pt4OpzuN7BVbdfWouWxB/0bkYovZlX2f7O085Aqvz9FilHZQPn6c09u7I829+3uJ9NiVpweQO+ZShvV6BVXn87Ikh6ud5J/3jsoON2rPa8TOxRZM8Fpfs/HeNcs2psf9Iau9rwx55/NxP5HeNxH7u98bvGuHfgZw/zyX5t7kDq539rhH5ncX6+lbnPTBLLiX0u4ZVu3VGpuN3Fvt3vajFQrvsd40Evx/f+Zgq7T84hT8j8fpL+vG+DEmtGneX2QIAAHD2I7jaU4qGKkOSv96ZmVCmF7yyUlzZKhu1o7pBSh+lgtA/LIq2aFKe8Yt/9Wy9tCeojAmzIqsRL5ql8enRmRrNy4uiMjc6F32u9S/tVqt8yp/aM4s2ZK1aovHarZeMTIzm5WPcGSvVs/Vmo6S8cQmvzJyU8Lg6/+FVphe2NUjpE1Vk/GPGv80x/uv2yi8pY0hyY/bvD76oqqqqGK8X9dB/mF8Rx/Ov6t2glHbdD6NX9vXiyvzapFffaZdyRoeDmPNuHqu04Lva4Mg423T/a2pSrgodwZlQP3dWaK1W329miSbgjdWa6wpq1mr1riZJuRqdQnAsefP02IxcNW2PzpTddL+RtRMa76hgZFeYrGVTciX/a66Mv9ryDXo3KOVOMQJyate7P4ucc+2ev6hdabpkmKOLXRLg/eclqVa7/mKWBrC2yXe1pjifnalTdLXPDsqGepbPdQek3litGr9cz09XS3j8fWnuTFS7X/SYdWLqMhXmyP0svLFaG95pV9p1tyR3nXfeorE+9z2SNulH25sk31jd4ny2e/r8w/2MIOPzP4oKOnZusq4cKMn/vuvzE3XvEmL9MaD9nVcj+/K455PLCpVr/DHE+pykaezNSd0l2xeaNqJDOnTxmWXhef0895Dwz4D8QcpQUA1vOH5OVs/WWq+syE5+18haNV05atB2x9c2L1+rujafxt/mCO6dY79rFKy3/hBuZsL29O8a4fF3jof9u57ypkcFm7vid43ERH7uJPXZf+5iNUgadDmlAQAAwLmH4GpPqT6iVjtTpLNMgtYPdroDrg0tapVPmfYMsqypo5ShBu03f/E/2iJpkLLsX7gLCvKltv2qT/ofNwmyr6lHFG3RbRN88ld7BKM9HGvpvuXECwryJbWo2RxXz3/MRN+nVPzXw7eruLg4xut2PfQH8yvisTNTtjeFM1PjLVzkDJZJUu1x6zm7cqoigY2/7DICpIf0WVBKuywUtYvVrwsd+ix2dmcXm/f4zcoNvqtXE/qHZa0+PmFu6yJ2QLP9k0NGQygAeomccVMF/6JdnQSv5o3KdQW9ao+3RAVSa8tr1CR3RuvkCVcrLRyUje3QJz11l0Jijb95rnY/c8w6Eeu63Z+TxMwblSupRR+b9+j599UUlW1uHrN7zz9Wv9TY5xqVxZyCqVdqkLkt5MTH9vebUFa1O5gbPo+BVyYXkJYk/UOD0qVgy5fMhqTE+nluSvhngP37QiKZnvF/15ivgmt8UuNeI+i7Uc0BSZlDwxmu59TvGouqNSMvqLqXPILRHrrvdw17/NtadMxoaX5jv+t3Qkvnz1CX8fhDWmK+pJY2yTfoH2YDAADAWY/gao8p0wv29K+cmU1aUdOkFTWd/+PHy+WDfJLyNaMmtB/75azfpfnKypQUOJJQMDIRWav2uY/nqh/bneZr+qKJyvDIJLFYU+ec5xav7lmX8PgHT0jGINe/ePqu539kT+d7KpLJak497owd2LCyYK0grfVy17wM9Ws53nWh1XmPO49Xqcqo2m/d5M7HdHNOu979VYyM26nLtNk1FvHrOHaF2OOaXHAvHAR3Bmuff19NMrP7Nul9vzMz0ApeubIHJXsqtnssXLVEu8MZjH8qgd9hl6VJytXNxjHd9YCTEPxMZqg8JPLHCm/def7DLkuLe27J2nS/XT4g5+bwMWP9gScuOxvalWV75y0a6wr+DNMlPjuYm+Kzcdaonq21hRXyy6fxZaGfidUpZFbmKzNdUt4s4+e+WZ/0XPpdo1xzZuZHlR6K6IXfNeKMa/dkpQIAACAVBFd7lKP+V7k1zS2R7BKTlSnR4KrPFnmFpoVFZ5ecidBCDf5tzmNZdcW6W9aqJRqf7p6aGGHXsjXqqG7Y013ZJJ1rbYld2y1VCU8JTYmVyfrUO+3RU48788bHagnVNnTVV7RfoSm4dr/E6rx2zqqx2K53f+Y4Vry6pF3GKgfQ/s4G7+nLoQU+/JG6jqVxa7l2N48syHjuHK3cqGC5vUiRMZV/0/6mSEbr1Cm62teuv+xxBnntBY6Czhq7oXqc3eQMxz+VAKIV0DTri4ZeqUxzjy06Q9mtO8//0CcemdBnqLZ8rn2cyB94kg+w2iUGnAHiqAX7rEx6Gc9F+BW1gF3fk9zPgDK9EPp5uK3B/mNssgHWBgXa7IWWon7PcNYqP3d+1yhYb/0uYZYesvTB3zWOep0nAAAAegPB1d5SPVtr7QCre2pXNHPaoDn9P5ZjLUF3rdaUhaan7Va1Z+ZoNwqVA4hVj27ROOVIyZULSB+ky82GJNTXGzVwQxaNU45Z666LJDwltAfMG5XrmF5uTv+Pxe5n1r1MiZVd6Vw4qaeEygE468s6WVOn2/XuawlMl+yKgLO9uFTuKHNqdaxp0PFZ99YdDC0tDZWQMOrZPv+q3rUXu5o84WqlmSUH7EBt066eC1wlNf5R7OcqPJU8Meb0+U7d+ZgVAPTIEncFrJ3uHK1cmcFrU/eev9UvsZrGie4zolar77QDrF7fS+KMWaROrfuZddeCTHL6f0Kfza6Z4uz589yuw+qU8s+AdUV2gLXz3xncv2skHjQ9J37XCJUDWBfjd4mkftewAtNnNotlo+o/CHrWczV/J0xWaNZH8n/IsHl+Puw6rHF1TSkNAACAvojgak9ZVK0lq9xTuKxfkIMKxEt0tIOLrXsqIsHFdRXWghJl8TNRmpfvsKcGuvtlrapOMlvW/keWsajWkm6fqtdZOYBQjTgppyCyuIa18rL3VD3rH7L5mmTci6SExn+RsaryzHypcUeM6YR9x+SyzR4ros/TLdelSZ3VEb3zMd2c4wyY2QtJ5dzcyT/U7H6+sfqhq8biZC173CNgEpedhebMpLRXLu7WCeedlQMIB5WctUit1d+9px7bAedkFz1yiYy/855OLltgBZySCjLGqYtr1/x0B3FDi13doluuTosOoto1cJ1fY61K3313Kbnxd5v3+M1RCx4lxA4yj737sYTuo1VXVd5B1NC+vuP8TFjZ0p39MaHbzz+0YNYMYxG8Ox+L/n5y6DO1R5WScJqnx8xAacz6wZ2MmX0s16JsHja99q7ao77/xJLIZ/NC7TzYXxp2So+aTclYt9f6OR1eIKpcc8omSm2pZURmrdoXVdc9Zp1wJ4/fNepf2q3W9IlaYK5Mbzj7f9forBxAsr9r2NfhsehUMqxxzdcM5/h73Kfk2H+E0Zn8sdMuC+P4fMx7/Icaq/b4s0fuOqV8SS3HLjRbAAAAznoXZGdn/8vcGE9JSYlqa2sVCATMpl6Vm5urY8eO6dSpU2ZTnxGa7hbRoO2FzoxMe9qZo4ck+bflegYXC9abtc/sKXyu6fPzNf3lZRqfHtnSume11oanvf3/2fv76KjKe///f7naZf0QnESMGCt8kiFRq4I0gq1Qbg7fNH5lhaW/gBqBAvo7IM2pWMWbZgl0uQq4ovWuYqXcnK+CBRsh8NNFFn6a5ngglrQVTIOoR03I5It8EkMKyUj4oOu4+vtj75nZ+5o9k5khd8DzsdasdvZ1Ze891+yZmBfXfl/ex7Q4z8/cT6N2FRzQ6JoSZTj253lOtvDrKNyiJWUTlWF2kHv14ujxinC9htJqV73ZzrrV2qYlWjSh3RhfS9R+HcdM6Pwlj/EwxzV0HPMcrPF2jtlAsG6rd2/rfu8F14rz4VusnZ3Urfdf9LjVOdG+Uf3cfSaXbY4ZvrnPz77lPNQYfF8vvCoteuDGyArqUcdyCL6vF+xbgRM7pnE8l2a9NSuy0rq5v+Zds/TB6ErdNixyzIjo/UZuZ45ui3AfU/c+Y9TINNpD77l5DvYYte+apUf0jCpnDI9+z2zWNWPsNzzG0ceTos+r+70XtEGL9OBN7ZH+Cb5PXtdsiPMW8ITG3+uYjmNZkhj/WOcXeCtSGiMkNCZRxwuZrGWvuGsWJ/TZjLk/h3tjv8eJnn9UP48+UvR7HzVmHq/BfSu/Qw9jZr7nYVH9vd9T7+NG943qV9Ctg492qH1ntn68zrHdFvW7xsH1+8L1OzGo/eVjVT+1QYuuOxT+3ZSMqN9jjt9xFu/f+97/rZFo3x5+Jyb4ez96P17/reF9ThbHf7ckeMyo8XJwvc6k/lvDfB3u8Uj4mB6v1Rz7ZP9bI/QZjvpekffnMsz1eXJ/T3W/94Lm103R5geu0Sce3y+S9NTLLSq5NFOrS9K0wWwEAAA4yxGuDiqx/2MY6HfO4C0qeABw1okTrp6tQsFqVPDprL/rFf72kqdeblHJqAxV3JquX5iNgxb/rYF+1sM/RAAAAJztKAsAAMB5wLq9PslFzga5UZelSWrWB+Y/ANl1IfvaLyozFVSnSl7+ymwCIEn6Rlvv65CvK1MVBKsAAOAcRbgKAMA5Z4GecdYXnbpMBTlS93tvRpdvOIsdPtbtudCWVYNWaj7Ux6+2Jk037MyQRrXp4BPfmK3Aee+plz/XxPQMVVAOAAAAnMMIVwEAOOds0iOHxqiy0loZvPKBGyWvGotnudry+XrhvW75Z9iv035Y9YH7qaTJunSt/ssQ+a49rUVmG3A+K+jW9FFDtO/XZ1PZDAAAgORRcxUAAAAAAAAAUsDMVQAAAAAAAABIAeEqAAAAAAAAAKSAcBUAAAAAAAAAUkC4CgAAAAAAAAApIFwFAAAAAAAAgBQQrgIAAAAAAABACghXz0oLNX1Hs1bUhB4Nml5o9nEorbb67diiLLMthvz1yfXvN4VbtKSmWfNKzYZU2OO4vtxs6H8F3Tr4dosC4ccxbS0wO1numTVbO5fO1rNjzJazw5RpRdq5dLZ+P81nNkmSFj1xzDEOLQpUdGuR2QkAAAAAAGAQIFw9K23U7pl+rSzwa+X2RrNx4PVqADp4Za1q0IqaauWbDWegcWe2cm7NVs6tl2lOjdl6ftjwxGX2GGSr4rDZCgAAAAAAMHgQrp4P1hZaQezMuWoz23DWOXw8KCmoE8fMlrPD3o4uSdIXHUGzCQAAAAAA4KxCuAoAAAAAAAAAKbggOzv7n+bGeIqLi1VbW6uOjg6zaUD5/X61trbq9OnTZtPAK9yiJWUTpbrVWrN8o6spa1WDFk2Q9peP1e5qa1v++mbNyHV0aqrQyvvKHBscSqu14o7hrp93t+VFnsfZj3UeRg3Mrn3a4Jztar+OjHCHYPzzNgS2+/Xa2shz85idHuMjlWteTYlyjK3mvhLleY7muJjjpkbtKihUvRTzfCKcfXses7CCbh18tEPtO7P143VGWxKmTCvSQ/ldevO5d/VqeOtIPbt0ki6vr9JP3onMFrX6Ot7zlndVXHkk8txm9uv23E+X3nzuoEYsLNK4UNfgQT2/8UPtDfdM3lMvt6jk0kytLknTBrOxX1nve4ZxjVrXcLv7Pfe4zhK7to1rRws1fccyje+o0MptI13Xkff+AAAAAABAf2Pman+ofkeNXVLGddOMBaIWKv86n9S0Oxy2Za1q0Oh6u55qgV8ry/epM7cktUWXQuUAClZrv3Untqf89c12QBQ57q4ms1e55pVK21x9fBpfFllMq/4+xznbAWj4dRS4w9CoY5bvkyYs05JVCyOdCrdoiR1oucYj0iMJ1uJVMzL3aUP4nDzGpXCLluQfcJz3au3vytOMcG3VMr1mt22oC9qBmPN1OsOxnsdsoFiBqHRg6+sqfs56PH/8hqhFsu6ZNdsOTu1+Ww9K+UUei1GN1O1Li/S9pip7f+/qsO8GPTRrpNHv3GcFq+7r4t3hS9zvuce1vavJeZ055JZoRdloNZbb+9veqIwJy875msYAAAAAAJwNCFf7xUbVfxSU0kcr3xWwTFNeuhSoj8yabFs+1j0js3qu3m2SlDsuOnTpDYVbNClXCmx3z7yLVqbXjJqt9dv2qVM+5U11BKKJ8Dpm9VxtqwsqY0JJ+HXm3zlRGV37tK03ZuiVlmh8elD71/ZQd7Z6rta4Zvdu1O7qRkl5Gp10mNWLY9bLRg3zScGA9jpObu87VXr4A0enrOv142zpcLVjFmzbh1pfH1Ra/g26x9FVkg5Xv+6Y0XpEH7RIusSnKUa//vIvv3xDVVVVMR5v6In/y/yJ3rBQWZmSmg64Pk/197lnK3td2/X3VSigPE1y/gODZAf4jp9fe0ABSRlXmv0AAAAAAEB/I1ztJ23LdytghGpZU0crQ4061MPt7a3tfbfwT6Ln4Kn6SEqzSGMds+1ou6ThyiqUpHKNzpU6P3onfhiaoPz8PKnrkOrN2/ET0die0uv0lOKY9bbDx4OS7wY9tPD6mOHnlGtzlKYj+sAZuIYXpErXCNc07OgFtl6tfF3FZ1gW4Ez856/uUlFRUYzHXXriP8yf6A0b1dZhzzaNOds81rXdqI4uKWO4sySFpK52tbo2WLOnKQsAAAAAAMDAI1ztN2U61OQsDWCVBOisqzBmjJZrXk2zVjgeUbVQB0jWqgbXea2IW3s0tiuG+yTlaYbxOt11TgdO/nrjvFw1U5PTW2PW2/a+U6Xi6iNWwLp0tnYuna2dxi38o4b57Nv97fbQo/D8u9U/GfX32SUjckvC77u73MVIZUjKmLDMuDaWaXy6c08AAAAAAGCwI1ztR/X1jZHSAIXTlJceVOMe5+wze4GbLmdd0FBtz4EVWnzKXUe1QgGzYwKsmbhmrdLQw2Oxp35k1csMan+ovmVB6nVee3PM+sQH74brrb7ZIil7kitgPXw8KOlIpN6q61GlVb0xpbgPDUxZAEvb8rH2+23V9c1w1hO2Zy93OmsJOx8xFp0DAAAAAACDD+Fqf1pbof1dVmmArKmjlWHepl46TjmSAtU91AXtRe5b8W12TdQIe+Gtrn2qTqR8gB0exaoJ6XnMKN63SOffmdos0tb2oJQ+XFc4N5aWGDMFrdu1nQuMxRP/dSQ5Zn1pTLZGmdsMr1baAaujRqr37f9nj74vC2C/x3Ft1O6ZdsAavpa9r20AAAAAAHD2IVztV9bCVhnXlajwOl90iGrX9szJj9RqzF/fx2UB1h5QQD6NvzN0zHLNK5sodTlny9p1JJ0LctmrnXvf4m6HR47FqVzskHl8mcfK6GH2ImC508OrrGetatCMzGBKs0jb9hxSp3OxoMItWnLHcHV2OXtZ5+1aPKy0OnZZgMZ2dbrGzinZMesdViA6UmPG2BvGTPK4jd+n5QsnGQtSjdSYbEkngpEaqR8c1IGgT+PmmH3PR/Y17SjrMX2H12385Zq3Y4vdx2YvXNfZ3mhvsBdJyy1xlwsAAAAAAABnnQuys7P/aW6Mp7i4WLW1tero6DCbBpTf71dra6tOnz5tNg0uhVu0pGyiMtSoXQWFRr1VO8xz1B7trFutbVqiRRPaI/3D+/DQtU8b7BXqrVvczQ6WwHa/XgvNqHTtL6j95WNVP7VBi647FN5XdJjUqF0FBzS6pkQZdas9FtexSxw4triOGev8mipct0W7+jRVaOV90ryaEsnYV0JcY2uNv9Y3a4acxzTOu2ufNqyV7iybqE6vYxrvV2i/1vuaxJgVdOvgox1q35mtH6+LbE7FlGlFeig/FMgf0ZvPHdSIhUX6XlOVfvJOKDQfqWeXTnLNaO2ud7ZH3DNrtm7PNja2vKviyiNS+HjSga29XyrgqZdbVHJpplaXpGmD2djv3NdGZ91qrTlaohV3yP1Z9vh8mte+5N0v9PmzZk7b148in2kAAAAAADC4EK4Cg0EvhqvnksEVrgIAAAAAALhRFgAAAAAAAAAAUkC4CgAAAAAAAAApoCwAzlpZqxoSWuzLs97lYGOXBYi8miHa9+vLNKfG1eu8sOiJY1p286nIhi7KAgAAAAAAgMGJcBUAAAAAAAAAUkBZAAAAAAAAAABIAeEqAAAAAAAAAKSAcBUAAAAAAAAAUkC4CgAAAAAAAAApIFwFAAAAAAAAgBQQrgIAAAAAAABACghXz0oLNX1Hs1bUhB4Nml5o9nEorbb67diiLLMthvz1yfXvN4VbtKSmWfNKzYZU2OO4vtxs6H8F3Tr4dosC4ccxbS0wO1numTVbO5fO1rNjzJazQ+j8fz/NZzYlbswk7Vxq7Wfn0tnaOWuk2cPBp+ULB+mYhV7Hwus1xWzrK1nX6/fxjpnEtQinyPfymXw/5a93frf3sC/7+3BFTbXyzbYBFnodS1YtNJsAAAAA4JxCuHpW2qjdM/1aWeDXyu2NZuPA69UAdPDKWtXQ66FG485s5dyarZxbL9OcGrMVYR+8q+LnXlfxc1U6EDQbB949s+KEl4NdTZpuuNW+DndmmK3oY/X32d/t5fvUaTYOuHLNIzAFAAAAABfC1fPB2kLrj/WZc9VmtuGsc/h4UFJQJ46ZLWeHVytfV/Fzr+sn7/RXKhrUqo3WMR/+wGwbYKGQeOOH2mu29ZW2oL6QpBPB/jvmeSHyj16vrTXb+kj1XK0p8GtlQaHqzbYBFgqJ1yzfaDYBAAAAwDmFcBUAAAAAAAAAUnBBdnb2P82N8RQXF6u2tlYdHR1m04Dy+/1qbW3V6dOnzaaBV7hFS8omSnWro2bxZK1q0KIJ0v7ysdpdbW3LX9+sGbmOTk0VWnlfmWODQ2m1Vtwx3PXz7ra8yPM4+7HOw6iB2bVPG5yzXe3XEblROBj/vA2B7e4ZXeYxOz3Gx7oNtUQ5xlZzX4nyPEdzXMxxU6N2hWeGeZ9PhLNvz2MWVtCtg492qH1ntn68zmhL2kg9u3SSRoWfB3Vga5VWhd9Iq13Vr+vNzCI9lB96D47ozefe1avhn7NMmebsI3XXV3nOOu2p3z2zZuv27PBTHa6OMZM063r9fs4NSgtvMM/fyaflC4s07sS7Kq484t0WPiXv/ZjnHRHd33wNanEcN+q8DcGDej40Q3XMJO0sdNSJde7HEHV+Rt8p04r0UG5Az28M6nbH+26Of0oWdylQ/LX2/XqQlKmI+jwZnzf786ntflVf6fx+MfvJrpG6TOPTQ89jfDZ7/K5KfD/xv1sM9mvt9PquM8fB/K62eX7fSR7HNV+D+zWar9/k7GseM953tdnX/B2Qv75ZM1ShldtGul5vvH0CAAAAQH8jXO0X9h+uMv8Atrd3RMK9rFUNKjw6NvKHY+iPaDMADIkXroZFH8fJ+gPX/cd2/vpmzch0nm+55u0YqWrH+Vs/5xEkxAsFbFHH9Aqg42yLt29vXu+Bx7gUbtGSO49oTXicQqGDGUaEAof2qO0RSYxZr4WrdrDqCuBG6tmFPr0ZvvXcEb6GAz87iJQjAAyHiY7Q1Q4Q5QruQiGmO4ycMm2Spnz8blSYGdrHF57hqnmuoXOIDjot8cJVhzGTtLMwPcY+TNY+v9fkDienTCvS7R1VkXMOhakeweg9s2br9kvcY+kt3vmHxtUZetvvnSOojYSvjjGyw9uYAXaiBlO4Guv7wPV5dfzjRzhw9Prs2/0c36te/9AV+fy7P7NZq6qVv6cw+js33vdx1LnG/m6REv+ui/6ujicSPjv3mb++QVnbHOdsh8Bm2Bn6+Yyo7R7inr89/s5Q2ON3XSR8jYyR9/sEAAAAAAOHsgD9YqPqPwpK6aOVX+jYXDhNeelSoD4SeLYtdwSrsmrqvdskKXdcry6cFFa4RZNypcB2jz/uXcr0mvHHe/22feqUT3lTk1zcxOuY1XO1rS6ojAkl4deZf+dEZXTt07ae/ohPRGmJFZCs7SGAqJ7rCD9k1VGsbpSUp9FJL9DVi2OWqCyfLpd0+FNnUHdED3uFfM6ZlApq1V+PSL4cTcmy27Ou14+zpcPVjtmsbR9qfX1Qafk36J7QtjE3RAWrkrT3HY9gtUfR5/rqnw+qWz5979rYM+d605RpkzVOB7XemPW59x1HsCprLP7UIik7OzIWvSk8rs7ZxEf0cPURyXeDbh/j6q3D1Y7x/6BFhyVdntk/Y+Zp0YuqqqqK+XhxkfkDPcgbrgwF1bjH8X0Q9Xm1uWZy2p9hx/dv1qrpylGjdjl+tm35Gu3v8mn8neXhbeHvDSPIa1vuEaz2JOpcz+S7JTX5661A2Qw76+8zgsq1FdrfJWVcN02hr4PeFB5/5/ej/TtAudM13fl7UkHtL4/8rmjbc0id8inTOQEYAAAAAAYQ4Wo/aVu+WwEjVMuaOloZatShqFk9bq3tZ3hrbxyJnoOn6iMprWYd65htR9slDVdWoSSVa3Su1PnRO/HD0ATl5+dJXYdUn2wgIkmN7Sm9Tk8pjlnC7MWKRhXO1rNG+GbqbjriDlyPnVC3fLrkMuvplGtzlKYj+sCY+bi3o0tSukbYqcs9V4+UggHt7Y03yktoAab+kHW97sv36fBfPcJoD9biYn3jnqtHSurS5+a4egan0e/TgNvwgIqKimI+Hthg/kAPGtvVKZ/GlzUY4Vu0qO8N+2etQG6h8q/zSU0HjH9Q2qi2DkmZI8OB4hl9bySiN79belJabc2a3+YRRkexx6JP2OPf1a5Wo8UzOO3L8QcAAACAXkC42m/KdKjJORPI+gOzs67C+AO/XPNqmrXC8YhX664/Za1qcJ3Xiri1R2O7YrhPUp5mGK/TXYtw4OSvN87LVeMxOb01Zok7ooefq9KBoBWw7lw6WzuXFml5CtPPRg3zSRqp25eG9mM/nLVC5dOIS3p35fkp04rcx3PVj+1LPi2fYd3m730r/Ug9a4yFd63WXhQ8ocPmNlvaMEeBzPNB9VytKahQQD6NLwt9nqpTmNGfp8x0SbklxmfTrE+6UFmZkjqO9Mo/8KiXv1uSU655d+Sps26N94zbwi1aEncs+kCccc24so9m9gMAAABAHyBc7Uf19Y5bUwunKS/duMXVWYeuwK+V9mNDXd/NjktUaEGTwPbIea0sqFDA7JgAayZuo3Y5XmPkMbB19CI1UR3nVL4vpdllvTlmyQlq1cbXVfzc6yreat1SP25O8gGrNSvziN58zt6X6xG6BT2oz09IusSnKeYOUhCqH3q42nmsd2MGjL1pyrTJVn3TqNqnctc6dYzD8/UD99nsPt5lbhpcerssgGSV2gh9lrZbt9TPSDpgbVRHl72QXdT3j18rHeUEzJmsZ6I3v1uSlb/e+r3iWWLFWevUMQ67msyO/afzqMd5AgAAAMAgRbjan9ZWaH+XVRoga+poZZi3O5aOU46kQHUPdUF7kftWfJtdEzUidBvnPlUnUj7AvvU91uwjz2NGsQKQjOHu2az5d6Y206u1PSilD9cVzo2lJa7VsUOlCNS0O6GAN/7rSHLM+krbh/qJHbCGbvePxSwDYN7+H8vh40F3rdaU+TQl1ycFD+pNz5mjfShUDsBZX9ZpTLZGScmVC/BdckYzbl/91KiBGzImW6MU1H99PHDBbkJ6uyyAaW2hHbDG+gxGuEuRJB6aWt8bRq3slCT33dKrQuUAYtSbtsYm0XIB3t/LybFrkHvUEY9VMgYAAAAABjPC1X5l/VGZcV2JCq/zRYeodv29nPzIgir56/u4LMDaA9ZttuFFXMo1r2yi1OUMbuwwwhkyFG7Rkpi3uNt/gDsWp3KxQ+bxZfFmnIX+AI8sbpK1qkEzMoMpzfSyavnladIqO/At3KIldwxXp2vynz2jzflHf2l17Ft3QzUgnQvghCU7Zr1kzCT9fpr7erFC06BOHHNtdrPDxe76g5Fw8YODOhD0adycSXEXbNr7zkEdVnS/KdMmJTlb1p4Fayyq9fs+LwvQUzmAUD1aadTVkZII98yKXRbACqZH6sfGe5GU0PjPuN4xK3ikni0cKbUcTGGxsLNb1qoGzTMWfsrPz5PUrrZ4gWXhFt05wV2CpX7bPnWmT9Si9V6f3YhQrWzzuyprVXWPdV/dkvxu6TU9lAMI/yORsx74Qk3fEassgP29FrXoVHKscc3TDOf4e7xPAAAAAHA2uCA7O/uf5sZ4iouLVVtbq46OPlvtIiV+v1+tra06ffq02TS4hG7BVKN2FURWQA4rrXbVHu2sW61tWqJFE9oj/cP78OBYJdu6DdXsYAls90dWjHbtz1oZu35qgxZdd8ix4vZCTd+xzDHTs1G7Cg5odE2JMupWa03U7aZ2iQPHFtcxY51fU4VWOlbUdvVpqtDK+6R5NSWSsa+EuMbWGn+tb9YMOY9pnHfXPm1YK91ZNlGdXsc03q/Qfq33NYkxK+jWwUc71L4zWz9eF9mcitCt9RFH9OZzzhmZ9i3ujh6SdLj6dc9w8Z5Zs3V7trGx5V0Vu26f92n5wiKNcxy2u75KP3knFNJ7H9PiPD9zP0f05nMtGrN0ki537M/znGzh15F1vX4/5walmR0kKXhQz2+0ZqFGj1eE6zWMmeSqN9tdX6X1mqyH8ruM8bVE7ddxzITOX/IYD3NcQ8cxz8Eab+eYpWRxlwLFX2vfry/TnBqzsf9FfWc4vu8s0d878vjusSTa1/wcW9/L4c9vgt/HUcfz/G7xPidL5LslVHLEi/PcosbLwfk6zf0Ftvt1KL9ZMzLN8VUP45HY+Vui+5pjn7/e4xzs8fb8PgYAAACAAUC4CgwGvRiu9qyXgjec+wZZuNozK7CL+scLAAAAAAD6CGUBAAAAAAAAACAFhKsAAAAAAAAAkALCVZy1slY1aEVNc48PcxGcwSyvuEWBt1sUePuYthaYrUA/KOjWwbft67A4leXjAAAAAAA4f1BzFQAAAAAAAABSwMxVAAAAAAAAAEgB4SoAAAAAAAAApIBwFQAAAAAAAABSQLgKAAAAAAAAACkgXAUAAAAAAACAFBCuAgAAAAAAAEAKCFcBAAAAAAAAIAWEq/3qbj25eJM2/miC2QAAAAAAAADgLEO4CgAAAAAAAAApIFwFAAAAAAAAgBRckJ2d/U9zYzzFxcWqra1VR0eH2TSg/H6/Wltbdfr0abNpwE380VrdP3qIuTns1KHfaeGf6yRN0GNzfqrvd+3WnL99VxtnjlXopyJ97taTi6cr58sGvbT1Oe1z7ujaX2nrlGwF9i7Q4x87tk9dps0P3Ki0wFua9fAmRwMAAAAAAACAVDFztR/s+3Op5qxboDnrditgB6XWc+thhaYOI6Zr68yr9OkOu8/eFg0Z/VM9ea0k/UG7Dp2SLr5Kky5z/9jcUdmSWvShM1iVNHnCNUqTpJwxWuBuAgAAAAAAAJAiwtVBqUVV60r19DH76ccfKSBp+DBrIax9n36mUxqiq692Lox1t64fIZ06tFtbHFslqbbuE3VLUuADMW8VAAAAAAAA6B2Eq4PRl51qdm34gx53znA9VqdPv5SGZE/QxFCXa69Tjk7p00+NWbCStGe15s+aRUkAAAAAAAAAoBcRrp6V6vR0fYurNMDcUdnS53sis10BAAAAAAAA9CnC1bPVxx8pEC4NYJUECBz+g9kLAAAAAAAAQB8hXO1XLer8UhqSkW02pMBa2GpI9gRNvPY65XgsZBU2dZk2V1aq8lmWswIAAAAAAAB6C+Fqv6rT0S5JI6bqMft2/jOx79PPdOrisbp/SrbnQlYhkydcozRJyhkj4lUAAAAAAACgdxCu9rMtVb/T378cou/P3KSti63Hxh9NMLslxl7YSrEWsrLV1n2ibkkKfCCWtAIAAAAAAAB6xwXZ2dn/NDfGU1xcrNraWnV0dJhNA8rv96u1tVWnT582m85hE/TYnJ/q+2rQS1uf0z6zGQAAAAAAAECfYebq2eyyCbr6YilQT7AKAAAAAAAA9DfC1bPW3Xpy5lgN+Xy3Ho+1kBUAAAAAAACAPkO4era5bKk2Lt6krYunK+fz3ZpT9QezBwAAAAAAAIB+QM1VAAAAAAAAAEgBM1cBAAAAAAAAIAWEq/3A7/froosuMjcDAAAAAAAAOIsRrgIAAAAAAABACghXAQAAAAAAACAFhKsAAAAAAAAAkALCVXjKX9+sFTu2KMtsAM5LC/RMZaU2l002G+K79xlVVlaq8pVlSvInMSh9pT+93aI/LTa32xa9qKqtT+hfzO0u/6IntlbpxUXm9j5QWq0VNc2Rx/pys4fDQk3fYfWbV2q2xVC4RUuS6d+PevV3WGm1VtQ0aHqh2dDPFncp8HaXnjK3AwAAABhQhKsYML36xy8cUgwCcRbjPXda8GxfBNrfaGtFm/K6MlWxzrn9X/Vi1Yv6V0lqOq7ufxzRf0r61zVVeuOXkZj1X375hv38P3XkH9063iTp/3pCb4R+ti+sLdTKAr9WFqzW/i6zceCdH78DyjWvpllLVi00G5K3bqj2dXWqpKJb/ZHNAwAAAEgM4SrQJ6ywq9J89HrgM8CmLtPmyko9c6/ZMFnLXqlU5bMLzIbzyyuPaNasWZp172rVmm04qzz18ueamJ6hipI0bXC1/Lt2/DVLM6uq9EbxMElj9WJVlWaOatL/+tV/hnv956/+l9p++Kiqql7UWEnDit9Q1cM3SX/doX937W+gbNTumX6tLPDrtbVmGwaHb2lOSZYa0zu07OWvzEYAAAAAA4RwFehD3e+9YIVrs2Zp1qwX9L5u1IOVm7VsqtkTwKBV0K3po6TGnen6hdkm6T9/dZeKior08rEspY2SGoqKVFT0gBGa/rseKCpSUVGDNCpNWcdeVlFRke5yBLBAz76jH+/MkEa1xS5PAQAAAKBfXZCdnf1Pc2M8xcXFqq2tVUdHh9k0oPx+v1pbW3X69GmzacAN5nMLyVrVoEUTfO6NXfu0YeZctYU3lGteTYlyws+D2l8+VrurwxvCzP111q3WmuUbrRp9ZROV4ertkPQxF2r6jmUa31GhldtGuvYdPuaAWKBnKm/T8Pde0Pxy55xFa7s/+L5ecM5mnLpMmx+4UWnhfs16a9Yj2hR+HmL/fPh5pN/kss168KbIHkzdxrlE9Q+8pVkPO4/oeA1f3K7KGY6j7pqlR16JnHd76HnYZC175UHdeNy9z56PqcjPhi+fbr3/4nyt3uPoUbZZD97UrrdmvakRzr7muCbMHFfzmJGx2KBFjtdgvE9R76PN83Wax4z1nscej6jxNJjvefT5xTpmgu59xnVduF+n4xp4a4TruFHn5XFtePWJOp7z/KNemyHq2og9rqanXm5RyaWZWh01a9XyL798Q4/+ME3dh5skSW2jcpXb9Z5+PecJRaLTf9WLVTOVqyY1HbZuhM8dlaam/1+RHrB3mr++WTNyG7WroFD14Z9T5HuwqUIr7yuzNkV9l5rfjU6O78nQz5tt6aHn8fZjfh9bAtvds12t1+HoEPe8DT3+DvAan+jfOZLXvhLkeY7muJjj5v6d43k+Dubvp7hjFuUbba34XBMV+5oEAAAA0H+YuQrlr2/Wognt2lVg3RK6ssCvXVZGEFFarRU1JcqoWx3us6FOGl9mLmZiLYqyaIK0vzyyv20qsRYDqZ6rNc5jdO3TBsdxVzr/EE74mJJyS7SibLQaQ8fc3qiMCcui+w24TXrzvW7Jd42m2LNXJ5dtVqUdUIZmub4V8Os2c4brvc+osvI2+QNvOWbDfqAx9q33teXz7W1vqTlq1uwsR1Bl3bJvhZOh9rfUnHObZ9mCtJseVOUMhfu+8F63/DOSn31rhWfS+y9GzumFYwVGSYEFeqbSDuTCx5NufMDreH7dVvmgrvkk9DrfUrPvRj2YbCkCe1yHO8bLOqZHuYNrFunBaz7RC6GZyEG/bnOO2Z7Vmu8Yc6uPexdSqJyC+5jWe/6MXGc/dZk2Vz6oG/W+fcxZmjVrg3SbdczE3/NI+ChnnxdPqCDZ8bIteLZSlTP8anZct7MOjYkes5zbVPnANfok9L7valbaTQ+6+i141rgeX3xfuulBdw3Zqcu0efQHxtg6xswx9m8F7DDVMRbu0gzJXGdfadwoKfjxRTFCrH/VzB+2aUdRke46KKWpQQ8UFWnHP27Sv7lqrv7fyvrrr1VUtEPHL5WO77xLRc++p6z/T6Tman19o6Q8jTa/t0rHKUdB7d8WCtvKNa9U2ub6zvZpfFkqiy5FygGs3N5oNkYUbtES4/t4Zfk+dRrdslY1aHS94zu9fJ86c0sii2kl8zvA45i7mvI0o6Za+Y5jJvQ7LFGl1VpRNlGd2x3n5DEu+euXSGvdfTImLAvXVm1bPtZuq1DADlPDfQv8rmC1xzGL8i298/EQKf2UphWYbQAAAAD6G+Hq+a5wiyblSoHt0TOBIhZqemGe1FTh+oOwbfka7e+ScgodC5KUlmh8ujnDR2pbXhhjJlQsSRxTsmczOY659oACkjKuTGYRkX/Vi1VVqor1WNOby86k6ZJRkrRAt9+Upu73XnDN/Nz08FtqVppuvC0UfE3Wsil+jxmQm/RI1IzIHtx7u270dev9F50zFjfpkV3Nku9G3W6GY8H39YJjdmNt3SfqDp9/4kZdliYFP9Fex8zA2vL5rtc9uaxAfjXrLcdrqi3foPeDzrGIaN7lDBA36YOApGEjogLi2CLj6gwirWNK/inusDlNnzhmP9Zq9d4YY9aDBbfdqLTg+9rgOKb1nvtV4AgUQ/3cMy5rtfrhFGbnjrpEaerWJ3WOn9yzWvOTvX5kBZ0FOY4ZzCGvPGLMYJY9u9QxI/SVD9Qsafjl9usM78txPe5ZrQ3vdSvtptsjYXPUudrjL7/GJDn+SV1ni08rT0N0qPZb7u1h/64HnCUALh2pf5H070vct/z/56/ucjxP07BcSf/xhO5y/qz9vZWT7w7V8vPzpK5Dqg9/h5bpNWNGZv22feqUT3lTk/nOS1z+nROV0bVP23q4G6Bt+Vh3zdbquXq3SVLuOFcgmgivY9bfV6GA8jQptEBUQr/DEhX5vdNT3dn6+4zZvWsrtL9LyrhuWtILdKUyZhtqhyioUxqeZ7YAAAAA6G+Eq+e5rKmjlaFGHYr3h2ThNOWlS53t5uydjar/KCilD9cV9pboECBFSRxTktTVrlbnc5XpNWN2UM9CNRFjPJb0zrIztV+0R57cO0Z+Se1fmFGZERROnaJrfFLzoRSCMMOC0X5J7frcvP3ZDL1Cjn/uDvLsGYLRIVp8h491S74b9aDH7FjLZE25Jk0KfGDcpl6rz497habdOnHYtUGbHjZnKPbAHtfuY8aOVKu9n3RLvkvkzJC7P9nr3vfhE+r2GrO4FmhMjse+dFgnglLaZaEjxuqXosMn1K20GLMzkzN5wjVKU7M+SOQaCJ6Qe3Q36RHHrNpY+7I+J8M1It652uOfnOSus0VXfC3pQh2pcWyMZcMDKnKVAvDyn3piTqQUgFuZquuCRqhWrtG5UudH78S/vb36SNQs0t6T4DnE0NruNX27J7GO2aiOLinDThUT+h2WKPv3TqA+1u348WxUWy9WS+pxzGq+rXZJw6/4xmwBAAAA0M8IV5GwzqOxgsrhyiqUpIXKypTUcSSlP8C99HzMs8/ky4cbW6JDwrBQuGfPOozZL1lRgVdEJNzrXbXl8zXLnh37YGWlKisrVem6JX2ULvHZt5GH2u3HbWaRx14WHW6H9BDu7flcjqg8MVNHaHio3ILrdTrrf0b6xT63JO1Zrfmz7BnRD4SOaZQhSJA1Czn2NZSMUZel2SUe3O+5u7aqZcGzRp94NVZjGrjrLBFtew6p01kaoHScctSod41/KMpa1aAVNc2OR3Qt1IFRrnmu82qOW3s0psKRypCUMWGZ8TrddU4HTOEWLTFep6tmalJ6acwAAAAADAjCVfSCdrVVKzJzJ3Nk0rdFJi90zN7UP2UBrDApeqaep1CAZc86TPZW/FREz+LsRa88Eq5x+VbADrjCAas1c1OumrKxamb2F48Zvk6pBKB2IGvWRw0/Qreq2/2SmxXbE2vW6KxZVu1TK9RMPmC1ZiG7Z/Wm6vCxbrt0gMdYOMoJLHi2UrfldLtq9s568f0UZq4OxuvMofodNXZFSgPk5+dJTQdct7yHFksKOOuC2rU9B5a9+JRRR3VDXQ+zML3YM3HNWqXhR8zFnvpBaMGrpgrXOaVW57UXxwwAAADAgCBcPc+1HbVuvXXNArVr2IUZf+xHLFT+dT7XH/6t7UEpfbTyE5hVavU1bu8PSeKYvacfygLY9SXDtyS/8oGalaZrJpgBmnFLuB20+UcnEoOZt5e7bTrU7FpQK+zeMfKbNTkTFB0AWrMD4wW1mx62A9bwbdjet2WfOWsBr8pKjwWq9uzVJ0GvcY1167ibdUt7sjOK478/EXa/a6YkMB6J7tPhlUfsgNVrdm6cMQvfsp98rVMvCd3+b38eFKiJ1G6NI374m9x1tqH1Qklfa2S/LRy0UburG+3SANat8e7b1O3vwK59qu6NW+ET4r4VPyT/zonKcG4oHaccSYFqdz3YWOL+DohxTFNCv8MSZQe67lrddh1WB6sUgXOBsXh6eB1JjllYwX9b/7DTGqsWMAAAAID+Qrh6vlt7QAH5NP7OUIhZrnllE6Uu56yZ0B/7JZrnWMU6a9USa/Eqxx+Ybct3W/src6/mnLWqOmoVa+uPYsfCJC6JH/OsYa/WnuZaSGeT3nyvW2k3LXLVwVzw7G3yq1k1jsWa3nyvW8q5zb2CuhbomajV3u3wKKfAu7bmK29aC/fc46x9ukDPzPAnHF6F7VmtmoDcCw95nv9kLXvFnCFpB2aOmq6b3npf3b4b9WDUazoDdl1VeYbT9qJIObe5QsTJZYusRb/eihOtTl2mRTelqfu9DcmNmeOY7vfSFFkwyz0ek7XsWbNubQ/vuaTJZZujgtKY9XfjjlnoGpL8M4z6rfc+E3WMHoWuxwfM68PJnm2aMybS595nYpYFCIW/zsXBnJK6ztZdpEad0ujJ/Vjbcu0BBZSn0evHKScqRLXvEHD+I1bhFi3p07IAdq3r3Onh7/GsVQ2akRl013ltbFensSBX/vrYt7gn+jtgiWe7LaHfYYkq06EmKWNCSfj3V/76ZRov9+u0ztu5eNhCTd8RqyyA/X45xs4lyTELWTT5lHwaoqiy5AAAAAD63QXZ2dn/NDfGU1xcrNraWnV09OLKDb3A7/ertbVVp0+fNpsG3GA+N8lxi6MkKaj95WNVP7VBi647pA3OFalLq7XiDufsm0btKvBaoXmhpu9w18XrrFvtubhU6PbWsK59SR7TPpaMnxtwC/RM5W0yq0ZGra5um1y2WQ/e5IiJolaIt937jFGLsllvzXKssh42Wctecdfw7H7vhfAiQj23K/IaAm9FblWPwbpl27HB8/yjxyT6mPLsJ2PsrPGS3n/RsQp9TJHXGmv8ExnXqNcY5/2MsI993GMMw2G7U3f0a4rq59FHSug9jXoNnu+TEhszr/25rhV7H4p1DLeofcncn3FdBN/XC69Kix64Ue0e59jzZ6rn6yzkqZdbVHJpplaXpMlzHao+kL/eCuu8vzvN79hG7So4oNE1Jcpw9A/tw0tgu99aod71/W8wvo9d+2uq0Mr7pHk1JVJoX4r+zu6sW61tWqJFE9o9f1/0+DvA8/ys31O7Q6VhEv0dlhD32HbWrdaaPdO0pGy0Gh3HNM87sN2vQ/nNmpHp9bvIfL+M9zXJMZO+0daKzzXxH1nK+bfvmI0AAAAA+hnhaj8YzOcGoC/FCVdx9ijo1sFHO6S/jNANT3AbNgbY4i4Fir/Wvl9fpjk1ZiMAAACA/kZZAADoK/bt9fFqz+IsUJOm3Ycl383HtbXfaq8CXr7Sn4o7pcM+glUAAABgkCBcBYBeMrnsGXft3NusGruR2rM4W/3i30ZoX9cpTXy0S0+ZjUC/+EZbK9qU15Wp1ZQDAAAAAAYNygL0g8F8bgB6k1n3NLp2K85mX+lPb7dJO7P143VmGwancs1LZLEvs9brYLS4S4FiqeLWdP3CbAMAAAAwYAhX+8FgPjcAAAAAAAAAqaEsAAAAAAAAAACkgHAVAAAAAAAAAFJAuAoAAAAAAAAAKSBcBQAAAAAAAIAUEK4CAAAAAAAAQAoIVwEAAAAAAAAgBYSrQE9Kq7WipkHTC80GAAAAAAAAnM8IV9H7LluqjYs36clrzQbEVLhFS2qaNa/UbAAAAAAAAMBgRbgKAAAAAAAAACkgXAUAAAAAAACAFFyQnZ39T3NjPMXFxaqtrVVHR4fZNKD8fr9aW1t1+vRps2nADeZzkybosTk/1fe7dmvO376rjTPHaojdcurQ77Twz3XRfS8OPT+lv+8o1dPHrGdzizapaISjuyGwd4Ee/9guGzBzrNpDz21zizapKL1BL219Tvsk6dpfaeuUy/T3HaU6+gPnvltUte6X2iJJultPLp4u7V2gXcPW6v7RobN39klS4RYtKZuoDNfGoPaXj9Xu6siWrFUNWjTBF9nQVKGV95VFnoeUVmvFHXmR545++eubNSM30mQKbPfrtbWR52b/zrrVWrN8Y2RDabVW3DFc+8vHqu1OZ99G7SooVH2kJwAAAAAAAM4QM1dhGTFdW2depU93LNCcdQs0Z2+Lhoz+qaNu6t16crEdwq6z+rx0SPr+zLV67DKrx5Yq+2d3NOiUHaaG+s5Z5w5SEzdE35+5SUUKHfd3+vuX2Sqas1QTHb1ypmzS/Rl74vZJSGm1VpRNVOd2v1YW2I/tjUanhZq+o1mLJrRrV6hPQYUCuSVasWOLshw989c3a8UdeQo491c/Llxbtf4+e1v5PnXaYWq4X4EzWC3XvJpmzcjcpw2h9vJ90oRlWrG+3HFESfJpfFmzZqjC3s9q7e/K0wzj3AAAAAAAAHBmCFdha1HVusgsVH38kQKShg+bIEma+KOpylGLqqr+EP6JfX/erL9/OUTf/8Hd4W194dSh32lO+Lh1erfllHRxhvzOTl826KWe+vRooaYX5klNFa7ZolFKSzQ+Paj95c6ZoGV6bXujlD5RhaFFqQq3aFJu9OxTrS2Mv38PWaumK0eN2jVzrtpCG6vnaltdUMqdrumF7v6ddasds2g3qv6joJQ+XFe4uwEAAAAAAOAMEK7C8mWnml0b/qDH1y2wywJM0KTsIdLnHxm32dfpaJek9O8mP0M0Ce3HnaUJpH1/LtUc45b/Uy11VimBM1E4TXnpUqDe49Z+h/z8PEntanOUCJAkrT2ggKSMKxdKkrKmjlaGGnUoySA12kLlX+eTutrVarS07TmkTvmU6ag6IEmdRx2lAiS1LR+rlZQFAAAAAAAA6FWEq0hAtjIutksHLN7kesSrsXpO8wg6QzKGW0nnFcO9A9GUdRyJzFo1hAJdAAAAAAAA9B/CVSSgRZ1fSvo8Um/V9QgtQAVJUme7VaO1tb3/bsU3Z6oCAAAAAACg7xGuIgFJ3v5/7H+r3VGvNTF36/qBngVbfUSdUbNA7TqsDvX1jVL6aOUbdU5VOk45CqpxjxV0th1tl5Sn0aEarPF4HjvErpmaO075RkvvlR4AAAAAAABAsghXkZAtf2vQqYvH6v6iRBavsma6Dhk9XXPNJkXC15xRoX3drScXT1eO0a3/lelQk5QxoSQcYuavX6bxCqrT2W1thfZ3+TS+dIuywhvLNe+OPKlpt3aHarGurdD+Linnjgb3glOl1ZoXFbg2qqPLfWyntuW7FVCeZqwvj2ws3KI7J/jUWVdBLVUAAAAAAIABQLiKxBx7TgvX7VbAo+7qk9eanev09NbdCihbRZ79/qDHdzToVHhf06W9C/TSoVPu3QyA+vtWa39XnmbUNGtFTbMmta/WyrWHjF4btXvmau3XRC2y+62oKVFG3WqtvM+5GNZG7Z7p164mn8aXhfo1a0X+Ab0WNdN0o3bPrLAC1PA+mx0hbJleK6hQILcksp+yierc7tea5ZQEAAAAAAAAGAgXZGdn/9PcGE9xcbFqa2vV0dFhNg0ov9+v1tZWnT592mwacIP53AAAAAAAAACkhpmrAAAAAAAAAJACwlUAAAAAAAAASAHhKgAAAAAAAACkgHAVAAAAAAAAAFJAuAoAAAAAAAAAKSBcBQAAAAAAAIAUEK72g+bmZp0+fdrcDAAAAAAAAOAsRrgKAAAAAAAAACkgXAUAAAAAAACAFBCuAgAAAAAAAEAKCFeBvjZlvq564zca+8ZDGmq2AQAAAAAA4KxFuIok3K0nF2/Sxh9NMBvOSxc+tpLAFAAAAAAA4DxGuIoBcIuufOM3Guv1ePoWs/PZb+9mfXbXz9Vw1/M6abYBAAAAAADgrEW4ioETqFLDXT93Px77o9kLAAAAAAAAGJQuyM7O/qe5MZ7i4mLV1taqo6PDbBpQfr9fra2tOn36tNk0iEzQY3N+qu9fHHp+Sn/fUaqnj1nPJv5ore4fPUT6fLfmVP0h/FOxtlu36U9XTvh5i6rW/VJbHD167mO1a+8C7RpmH8foFz5+DKcO/U4L/1xnbo7jFl35RpEyA1VxwlS7j4I6+tIKdeztafvVytz4M13pCz032y0XPrZS144Pd9Kp/b/VZ09/Gn4+9OnfKFdVatiVpavuH6fQq+6o+rmObpLj+LEE1BSaoTplvmsfCh7Qxws362tXf5vZ17mfcPtVOvHSCp2e8Rvlht7QmPtcoGcqb5M/+L5euHe1as1mAAAAAAAAnDHC1X5jh5yOgNQKLeUKWOcWbVLRCEfoetlSbZw5VkPMYPXaX2nrlGwjcL1bTxZJj4ee2z8rR/hp7d8ZsDrC1y8b9NLW57QvFAIr9DzE6js86TDVlEi46ggcHf2GPv0b5eYYwWmonytovFqZT9+s4GOR4NH62ejwU46A1eojVzhrBbKKCmut7cfdIWgMQ5/+jXKHeQehocA3EuB6vE5H+BoJhOOM473PqHKGX1K33n9xvlbvcTcDAAAAAADgzFEWoJ9M/NFU5ahFVY6AdN+fN+vvXw7R939wd3jblqrfWdsKl2qiJuixwrEa8mWDXnLNWJ2gx/LNYFWS/hAJViXN/YH1s/+PIwjdUrVbAWVrmrkoVThYlaQ6PV3fIl18lSZd5u7Wr/Zu1mdVASmnSFcukLTgIeXmSB1V7pBz6AwzWJWkT9XhCFY1Zb6uyJE6qhxB6N7Natkf1JDxRcaiVO7w9uuna9Uhny65+WpXr95xiy4b79Op/b8NB6uSdPKxKnXIpytnGDVoA1WOmbZ/VFdA0rAsXejuJb3ygZolKfiJ9hKsAgAAAAAA9AnC1X4xQZOyh0iff2Tcsl+no12S0r+riY5tT1c36NTFY3X/4p/q+xef0t+rnbNHJV02QVdfLAUOO4NV0926foR0qqXO/bNqUeeX0pCMbNfWqH4dnTqlIcqIff/7mcspilrQ6qrHjABz0/NqCkiZRb/R2KIcKVDlCiGlW5SeI5369C9RM0KdLrz5Kg1RQF2un5W+/uK4pGG6aIpjY/AzBV3lBAL6KigNyYwUV+g1C65XpqRTX0RKE1i8g9OOD+PM9HXZpEdmzdIsSgIAAAAAAAD0GcLVfpGtjIsljZiurYs3uR5FI8y+ko49p//n0ClJ0qlDm8MlA8IyMzREp9QZrzLDZd/VcElDRv/UOKaz5usA81jQyln/NMSaxSmrDql5+/uULOtW+ahw0u3CTJ+kHOUaYe7Yoj4ITJMW1FfN5jab79LoWakAAAAAAAAYFAhX+4U1W1Sf79acdQuiH666plY91ftHD1Hg8xYNGf1TPXmtszHBWaXH/rfa7cWmoo63boFRTmAwu1qZG4uUGQyoI5ij3I3z3WHj3jadkjTk8vi37H/dEbQXiXKHudYjeuGrQSP4j7gzcgEAAAAAADBwCFf7hdft/7HcrSfthaoer9qtv38p5Uz5leY6u9jBac6oSK3WaN63/ydq4tVXaYha9OHHzq1nts9UXPjYPF3pC+ro5ud1tDYg+cYp21U6wL5l/+qb487w9Lz9P1FTbtYlvuhb8s9onyGbPoxRzzWxcgexLdAzlZWqfGWZJptNAAAAAAAA6BWEq/1ky9/sOqpF8QLRCXpsznTHwld2/VVlq8j1c3/QrkOnpBHTtdG1MNXdejLcz16UKqpPAi5bqv/v6CE6dWi3d43YEVP1WH8sdLXgIV073qdT+1+zZpba9VeHjJ+nzHCg+ak67ND12qediz9drcynHbNcN1XpaNCnK+9/yFi8qidXK3O+tWDWMaNeq5r/oVNei04l5Y86tj9ovCZp6NNFylRArR5lEhJy7xj5Jcl3jaZMNRsBAAAAAADQGy7Izs7+p7kxnuLiYtXW1qqjI17Bz/7n9/vV2tqq06dPm02DyN16cvF0mVU+A3sX6PGPpblFVg3WU4d+p4V/rgu3T/zRWt0/eohVVsB5O/+1v9LWKc5ZpC2qWvdLdyB62VJtnDlWQ5zbdEp/31Fq13KNf07RJuixOe66reb59uwWXflGkTyrGgSq1PDYH6Up83XV/eM0RAE13fW8ToY7hH42qKMvOW7nD/cPMdptQ5/+jXKjXqx9zATaoyx4yKjbGjnfCx9bqWvH+xxtEaf2/9ZVXzaqb/CAPl64OTJr1X59p6p+7lrQa+jTv1HuMKOvZM9cvU3+4Pt6gUWtAAAAAAAA+gTh6nnPCleHJx2Qnptih5UAAAAAAACAG2UBAAAAAAAAACAFhKsAAAAAAAAAkALCVQAAAAAAAABIATVXAQAAAAAAACAFzFwFAAAAAAAAgBQQrgIAAAAAAABACghX+4Hf79dFF11kbgYAAAAAAABwFiNcBQAAAAAAAIAUEK4CAAAAAAAAQAoIVwEAAAAAAAAgBYSrOCf9dP2vVbNjjgrMhp6U3q+aml9HHuuT3kO/WfTEMQUqurXI2P7Uyy0KvPyVsRUAAAAAAAC9jXAVcFr7kgoKHlVBwTr9tctsTEWB1tX8Wm+uyjMbzsziLi27+ZQa/yNNG4ymX1RmKjiqTQef+MZoAQAAAAAAQG8iXAXONgXdOljcqeBfRujH68xGSTVpumFnhnw3f64/LTYbAQAAAAAA0FsIV4GzzFOzOuTrytSaJ75lNkWsS1fFYSmvuEtPmW0AAAAAAADoFRdkZ2f/09wYT3FxsWpra9XR0WE2DSi/36/W1ladPn3abBpwg/ncpHLNqylRRt1qrVm+Mbw1a1WDFk1o166CQtUbfXPCz4PaXz5Wu6vDG2xmv0bP/WTUrdaaoyVacUfklvnAdr9eWxt+mrCCVb/U4xMudm/sqteTM7eqxrHJ7Heybp1uX97o6BGSpyd3LNYPO95WwX3OPTiU3q+aO7Ijz5sifc3jmKKPW6B1NbcqMhIt2lbwkn7n6CHZs1Yf7VD7zmzvWatOdl/9ZYRuiBfEAgAAAAAAICXMXEWC7MC0qUIrC/z2Y7cyS7coy9mtcIuW2MFpqN+upjzNqKlWvrOfpIwJy7TiDmmX3W9DXVA5dzRoeqHRsQc/Xf9rPT7huLYVPGrXS31U25rMXh79yuulCYtTqodasOqXqrljmP5aHjrm22rMvTW8AFbN8l9FttthaujcCgoedQerhXP0Zs2tynL02daUrTtr7tdPI70kSYsmn5JPGTrQU7AqSTUX6VCX5Lv2dNSiVwAAAAAAADhzhKtITOFIZUgK1Jc5NpbptZlz1ebYkn/nRGV07dM2xyzY+vsqFFCeJq1a6OgpqWufNjhmtLbtOaRO+ZSZTNZZOEfTc6XG7R6zPJ28+lVv1Yt1X2rohFujQsz4CnTXhIt1sm6rHg/P2q3R4u0tUu6P9GSy4fCd+RraVa8XHYHr7+57W43K1nRX8PuNpl17Sjp8kX7h2Brbt/TOx0Ok9P92zIgFAAAAAABAbyFcRWKqj6hTUs4dzZpXajaGlGt0rtT50TuuwFVqVEeXlDHciPg6jrj7Vc/VmoLkygIUTM3TULWovoefidWv5uhxScP0P5MJREuvVZ6+1Id7jHICjcd1Uhfr0qSSzALl50onP/qbq3yB1KJ/dElDhzvKDui/NTxdCrZ/27Etvg2tF0r6WiOtCbUAAAAAAADoRYSrSFCZXitYrf1dVsC6oqZZK2qMW/jt2a0ZE5bZ7aHHMo1Pd/QbAFcNv1hStu6s+bVqnA9nzdQEFVw5TNLF+mGZsa+yfA01O/ek8HJlSRo6YbF7XzWL9cMBHjMAAAAAAADER7iKJGzU7pl2vdXyfeqUT+PLHAGrPbu101Fv1fW4z1lSoH991v6lvUhUpO5p5PErx+39PbNmu37pqLfqfizuYRatS/UXavOoyRp+xFpMCwAAAAAAAAOOcBUeFir/Op+50a16rtbYAWukRmqM2//P1NRl2lxZqcrKZ7TAaPK8rd+ur+rk2S9VSd3+73V7v1NP7U7fVnuX5Bv+32ZDTIuu+FrShTpCRgsAAAAAANDrCFfPe3Yget00ZUmSFmr6Do/b+EurtcRYkCpr6mhlKKiOcOnRjdpd3SjllkT1PROTJ1yjNEmSX2PuNRrXfqxGXawf3hkqKlqgdWX5UteXRr+39deui/XDsvuTXLzKQ/VW7W6S8u74ZQKLVzXq/+1QnIWuGvV4dYuUe6vedC1e5cVeoGrUaT1lNnmyF8Dq+raM6rAAAAAAAADoBRdkZ2f/09wYT3FxsWpra9XR0WE2DSi/36/W1ladPn3abBpwg/ncLOWaV1OiHPtZZ91qrTlaohV3SLsKClVvb89a1aBFE5wzWhtd7WGFW7SkbKIyXBuD2l8+VrurFTleU0VipQKmLtPmB25Umpr11qxHtMlsL5yjN8P1Tr/UX8t/pZqpv9Tj1zXqyZlbXQtF/XT9r3WnMatVTW+Hb7/3bLc1bnff8l+w6pd6fMLFzi5SV33UMaU8PbnDXUP1ZN063b7cEXm6XkOI9VpcJQsKunXw0Q6178zWj9c5tntJpi8AAAAAAACSRrjaDwbzueHs89TLLSoZlaGKW9P1C7PR4amXW1RyaaZWl6Rpg9kIAAAAAACAM0ZZAOAs84vKTAXVqZKXvzKbIhZ3qWSU1PgfBKsAAAAAAAB9hXAVONvUpOmGnRnSqDYdfOIbs9UqB1DcqeBfRlAOAAAAAAAAoA8RrgJno3XpWv2XIfJde1qLjKanZnXIdzhLNzzxLaMFAAAAAAAAvYlwFThLbXjiMuV41FP9xb9lK+ffvmNsBQAAAAAAQG8jXAUAAAAAAACAFBCuAgAAAAAAAEAKCFcBAAAAAAAAIAWEqwAAAAAAAACQAsJVAAAAAAAAAEgB4SowWCx4SGPf+I3GbpyvC822RE2Zr6ve+I21nwT2NfRpq99Vj11tNsEQGqvQ48oFZg+nq5W5MZF+Dgse0tg3VipzitnQy3rjOjtvfaU/vd2iPy12b50yrUg7l87W76f5JI3Us0tna+fSIi3PcvfrdVnX6/dLZ2vn0km6x2yTpDGTtHPp7Mhj1kizx5mxj//sGLMBZ6N7Zs3WzoXXq6+/gtDbfFq+0PGdE/rcm+9lQbcOvn1MWwucGwEAANAbCFfR+y5bqo2LN+nJa80G9Lm9m/XZXT9Xw10/V1PAbMSZOPmYNa4NLx3QKbNxwN2iKwnJ+9g32lrRpryuTFWsM9ucunQiaP3v521mWz/74F0VP/e6ip+r0oGg2TjwCPMirIA+Rkh+DuE97wfHTqhbkk4Etde5vSZNuw+f0sRHu/SUczsAAADOGOEqMFhset4K7xZu1tdmWx8JBYafPf2p2XRWu/CxlXFnjVqzUB/SULOh13yqjoXW2B7dZLYNsH67ziKzd6MeZ+Gs2ade/lwT0zNUUZKmDUbb3o4uSdIXHXESTHMWafhxBjNc2z7UT557XcXPvatXzTYA54mgPj+hhP5B5xf/NkL7ujpVUtGtRWYjAAAAUka4CuCc8/VfPtMpSZnX32I2SbpF6TmSAh/qpNmE3hc8oI/t2dThR58Hu72soFvTR0mNO9P1C7Mtih10BE/osNmkoA5sfd2eTRp6VGlVD4EIACSsLagvJHUft/7Rx+1bmrM+U8H0Di154huzEQAAACm6IDs7+5/mxniKi4tVW1urjo4Os2lA+f1+tba26vTp02bTgBvM5yZN0GNzfqrvd+3WnL99VxtnjtUQu+XUod9p4Z/rovteHHp+Sn/fUaqnj1nP5hZtUtEIR3dDYO8CPf6xXTZg5li1h57b5hZtUlF6g17a+pz2SdK1v9LWKZfp7ztKdfQHzn23qGrdL7VFknS3nlw8Xdq7QLuGrdX9o0Nn7+yTpCnzddX948LjIAXUdNfz0UHcgoc0tign8jxQpYbH/mi0D9PRl1bo9IzfKDfc1dhfT/sJu1qZG3+mK32RLaf2/zbmrNOhT/9GucMO6GOPIGvo087zkTqqPGZYRo1DRPRxb9GVbxQpM/zcHDP73I9XqWFXlmu/Pe8rqKMvrVCH6/7GnoTGyjyPyHi7XnPUa41zTLvvKa8xi3qPet6Pe3yj+5vvlfP6uPCxlbp2vOOCMLjGNuHrLPqY5nt04WMrde3Vn+njhW26zPFeufvZYyHvazDCer+H7P+tPvuiyHWOzvfIeq3H1XRXlS5yjnEwev9R42K+1kQ/m7anXm5RyaWZWu0xazVhYyZpZ2G6DmztOUy9Z9Zs3Z7t2NDyroorj0SeZ12v38+5QWmh58GDen7jh+5bgF18Wr6wSONOGPtxmDKtSA/lR8asu75KP3nHnIk7Us8unaRRxtbD1a/r4Q+MjbGY524yX0tU/yN680xm6o6ZpJ2Fjtqzxtha49ClN587qBELizQufJ1Fj3FCYxZ1/kHHNeA9nhHRrzWhYybI3Jfk9TrNc3Sev5u5v/C5RY2BIeljOq7nP/tc+05lPO6ZNVu3X+J93X1hXNvmazSvH4t9fo7fA+aYJXOd9YWnXm5RyagMVdyayD8YAQAAoCeEq/1gMJ+bOzB1hKXX/kpbp2RHAlE7xMz5fLfmVP1BkjTxR2t1/2i5AlYpdnjaU7t3uGonDOHj2uerUD/7vOL2SYIdeMkZEk2Zr6tmtOkzRzhjhTdyBGF2IOgMcZxhVnh7vMDJEUB6hF5Dn16pi3Y5gjd7/2bwFRIvXA2LGxRGi4Rqjn16jJkVzjmDKmfo6AgQo4JOj3HULbpyY5aOxXsdHkIBmxkcR59b9P6tPtFBp5TEmDkCvKh9RL1u7/4XPrZSl32xIjoENsNCZ0DpcS24xbvO7PF3BpYex4yEl/Hey3jXupMzTI+8L+ZnzBmYRq5583rxCtU9XlNSn82v9Ke32zT8LyN0wxPfCm9NWoLh6pRpRbq9oyoS6ISCKc8QJ0YwFCV+uGqFuY4gzz6mnEFVnG1mAJWons49FGQ5w1vrXKPDqkSEQmtXGDxmkp7Vu+HnzvAsEtTZYZ/jPUhozDRSzy706U3H64t1/pGwLXZwnNgxExO1L6/3ww6inYGl13sSCRPdr2vKtEma8vG7rtcZdQxTQsd0hpeOY9o/m1TYH+ucPK5t6zxkvEbj8+pxrcT6uUSusz6zuEuB4k417szWj+PWkAYAAEAiKAsAW4uq1jlC0o8/UkDS8GETJEkTfzRVOWpRlR2sStK+P2/W378cou//4O7wtr5w6tDvwoGuVKd3W05JF2fI7+z0ZYNe6qlPIvyXaoiCOvEXR0C1d7MrWJVu0WXjfTq1/zVHaPZHHa0KSDmTo1Z7P7X/t44Q61MFPw1KvkuTrjl58jEjpNtUpaNBacjVNye9r5RMma/s8dLRze6gbOiMcRoSPKAWR6h38rEqdShHV0QtsBRQ012O17HpQ3VIGnK53W9KloZI6vjQOd5/1NG44Zy3r5+uVUdUaQCrJMCp/VWO2YnR+z+564BOyadLbjbPvzdcrczJOVKgKn44K+nrpx3BqqxrsTUgKef6PqkXe+Fjk5WpgJqc47F3s1r2Bz2v7Y6qOO9lsoIH9LFj1qhV2sGn7xgf4o4qZ43gP6orIGlYlvUZWFCkK31BHX3JOfvU/mz6xukyowZvQp/NxaeVpyE6VHsGwWoS9r7jDGqsuqp/apGUnd03ix1lXa8fZ0uHqx2hXtuHWl8fVFr+DeFj3vOjG5QWPKj1SYZ4qRup2/N96q53j8erle/qsHwa9yPH7NNEhF+nEbx9EAlWnQ5Xv+4ILI/ogxZJl/ishZgSHDPpiB42QsRX/3xQ3fLpe9caM0Z7kvAxE+C1ryg+Lf/hSKnlXVdwu/edWh0ISqN+6FiUaswNUcGq1dcdrPYsiWNK9sxexzE/aNFhSZdnJjm2CRo1zCcFA9rreo3u63PKtBs0Skf0piMctc7f+5qNe531pXUXqVHS8CsoDQAAANAbCFdh+bJTza4Nf9Dj6xbYZQEmaFL2EOnzj4zb7Ot0tEtS+nc10bW9d7Ufd5YmkPb9uVRzjFv+T7XUJTdDNZbmf+iUfLry/pVRQVLYguuVaQawivysGQad+sLd7+unV6jB49bj5H2q08fNbX3lamXOH6chgVpjFqYdVn76FyP8DOiroDQk03k/u6TgP4x+f9RR54Jae9usWqlFsRejSpwdvDmDyFjvnck+jz4x5WZd4jMD5MR9HW/RpDNytXxX+zzeo1hBZ0BdPYTDkiTfOF1rLmj1tEct3ONt7uPu3azPohYEC+or9xeVtSibHQYPvT5H0nGdNqfExQh+E/lsLrria0kX6kiNY2PKfBo3x1jQKoGV0w8f76v3XJpybY7SdEQfGAGjtUhXukZkSdJIjcmWupuOeM827AtjsjXKc5Gw1AKoWK/TW1AnnHdjSHq18nUV20FprH25xywGux5mss7omIZY+3LJGqnv+bzqdga1tyko+S4J37Z/z9Ujo0LHlCRxTGuzWdf4iB5+zhlW9q7Dx4OS7wY9FPMz69OUXJ/U0mKE1nYd5qhrNv511re+rfYuyTf8v80GAAAApIBwFQnIVsbFkkZM19bFm1yPeDVWz0p7N+uzu6rUIZ+uvD8UBrlXlb/w8mGSq91+RNXP7GVT5usqI6Ry1eLsQxc+Ns+61dq8jdyeaTpk/M+MFeHdtWET90cdveu3Ohq0AlZrX3GC7h6c/DAgKUfpdlA79PocKfiZgsZfrhc+ttI4f2fN14F0i6403vN4NVZ7hRlyOpjhZEK8FrQyr6Pe5BEOh0SF/f3OY0GrqCBlpJ51hq9LZ0fXxexFo4b5rFmixjFddUkHTHT4FGYGbT2wZh2aYVxqkhmzKdOK3H3i1liNLZlj9qbocDskFOj6NOISSSeCvRYI9nzMgbH3nSoVVx+xAtbQ+M9yjn+6LvFJyp5kvOdGDWUAAACccwhXkYAWdX5p1zRdtyD6kWxd00HPmk3ZcNfP1VBlhXO5joD16y+O27UmjcDIfvR0q3dKnHUvHcdqCpgd+8CU+coe71NHlcdsW3uG56n9v40ah9RDtE/VsdD++Zes2/PjziSOx56xaJUG8J5l66zNGjn3Kg18VWlHrVDHmH68P1bw0PfMmZ5nm1Md/fGBORN2zcXgQT3vCGCfr++799yaFXtEbzoD3/Aj+bqm/SbJoNSadZhcIBtLomPmrBUaaX83qfMOSfSY/adLn7cpzqzMvhA65gD64N3wuL/ZYgep4YC1SyeC9iJXUe+R1z+kAAAA4FxBuIoEJHn7/7H/rXZHvdbE3K3rB+Ms2E3P2wHrMF0U+ssxxu3/fenCm6/SEAV1dFcqYeWZCJUDiFUfNMbt/71l72Z9ZgesnuN97zOqrKxU5SvLNNlsk9ylATxLAoRuhT+gY56vrw/YgbR7Fqhdh9VpwfXKlNRRm0i92d54H+yaox71XK3rL8EyAAPo5IcByXeVfGbK4/neJ2ZD64WSvtbIArOlD9i3wh/+a/+FMIndVm6FRmnD0l1b7/lRnBXgExA38PygRYc9a5OmVqLAep0jNWaM2ZK8xMbMvkU8eFBvxrv93tbTPntqT4bnvuw6rGFtR/RfQWnU1ebM2Ohb3633MUdTEji3uO95Esfsa1bphPherbQD1nCw3FdBs0/LF1ozYJ/thevX8t8ani4F279tNgAAACAFhKtIyJa/NejUxWN1f1Eii1dZM12HjJ6uuWaTIuFrzqjQvu7Wk4un60xiod5y4WMro2p9RtVxtBcVyixKcTZlCqzZss4Flq5W5sa+LwsQsxxA2KfqqA1IOUW6KmrxqhQseChqP6Fg2ay1KUkLRtuJq+8aTZlqtlpCpQFyi7xKAth1a52B3JT5uqpPywJYge+Q8UXhEHPo0z/TlQq667w2/8OqP+tYkGvo07HKAtivw2PRqWRYi4DlKNdZE9WeuexeBGyQ2lSlo0Gfrpw/37Eo1S26sihHiqoXnKB1F6lRpzR6cj8s/HLshLrlDpfumdW3ZQH0wUFrsZ05k+IsimTXvMy+QcvtAG3KtCLdfklQ3WbXJIQCzx9P83p9R/RmfVBp+ZPDx5Ske2ZN0igd0Z+Srav5wUFrUaTCItf+NGZS8oFVgmP2+Qm5Q8es6/X7WGUBjp1Qd7yFuhI6ZoLs4DpyrJF6ds4NUtA5pkGt+usRKds9PlOmTbYWr/qzc8Gmg9b+jHObMm2Se6x7fM8TP2ZvMsPh0IxjN5+WLzTH3gr6nSURXv3zQXX7btBDrnIBZ8iuRSvju+GMLD6tPEntrf2zUB8AAMC57oLs7Ox/mhvjKS4uVm1trTo6Bv6mWSe/36/W1ladPn3abBpwg/ncpAl6bM5P9X016KUeb+/3DkEDexfo8Y+NjR59Xf0uW6qNM8eGa5QG9i7QrmFrdX/2Z5HzuPZX2jolO8b+Q6zjDD/0O3vxLcvEH63V/aOPqcpY+CoRQ582QsvgAX3ssVp96HZyF2ffBQ9pbFGOOqrilwqIOp6D82fN43VU/Vxd1/9GucMixzT7OJ3a/1t74Sj7dnOzgyQpoKbQgj6hUgRmF3mMiWffoI6+FFpN/mplbvyZrpT3WDpFvwbHOZnufUaVM/xS8H29cO9q1Zrtkuv1RsbAyT638CEDarrrQ6W/UaQhfTZm7mOe2v9bffaXm3XV/VfpRHjMItdQyKn9v1WL5una8cc9xsR8He7Xm+h15vVazWvYeo/Mc7B+LjJm0ecT5hoL+3iBqrhlJKxjynFNxRJ93Kj3PcHPZshTL7eo5NJMrS5J0wazMVFjJmlnYXrUiupRxkxy1dHsrq/Sek3WQ/ldevM5a3V37/DH0l1fFV7Q555ZsWs9Hq5+3bXKuWfflndV7Fj13NWn5V0VV0rPLp0kGftKRtRrCR7U847bp3tqT1bU6zReo3U89fw+ee1L5v58Wr6wSOPCp39Ebz7XojFLJ+lyx/sUZrz3Vn/rPQ/p+ZgJyrpev58Tmnkc1IGtVdp7bZEeyg24xzeBc7KYr9V9LTr1+J72eEz7WDqza8HJNa7Bg3p+Y1C3R13bdtmOyI/FeI3R/WR85pK5zpxja35uU9Ur32kAAAAII1ztB4P53AAAPSjo1sFHO6S/jNANTzDTC8BZzP4+a9+ZrR+vMxsBAACQCsoCAAAQT02adh+WfDcf19b+qL0KAH3iG229r0O+rkxVEKwCAAD0GsJVAAB68It/G6F9Xac08dEuPWU2AsBZ4KmXP9fE9AxVUA4AAACgVxGuAgDQo29pTkmWGtWpcYvNNgAY5Aq6NX3UEO37dbp+YbYBAADgjBCuAgCQkO/ox7dSpxDAWagmTTfcepnm1JgNAAAAOFOEqwAAAAAAAACQAsJVAAAAAAAAAEjBOROuNjc36/Tp0+bmQWEwnxsAAAAAAACA1Jwz4SoAAAAAAAAA9CfCVQAAAAAAAABIAeEqAAAAAAAAAKSAcBUAAAAAAAAAUkC4CgAAAAAAAAApIFwFAAAAAAAAgBQQrgIAAAAAAABACghXAQAAAAAAACAFhKsAAAAAAAAAkALCVQAAAAAAAABIAeEqAAAAAAAAAKSAcBUAAAAAAAAAUkC4CgAAAAAAAAApIFwFAAAAAAAAgBQQrgIAAAAAAABACghXAQAAAAAAACAFhKsAAAAAAAAAkALCVQAAAAAAAABIAeEqAAAAAAAAAKSAcBUAAAAAAAAAUkC4CgAAAAAAAAApIFwFAAAAAAAAgBQQrgIAAAAAAABACghXAQAAAAAAACAFhKsAAAAAAAAAkALCVQAAAAAAAABIAeEqAAAAAAAAAKSAcBUAAAAAAAAAUkC4CgAAAAAAAAApIFwFAAAAAAAAgBQQrgIAAAAAAABACghXAQAAAAAAACAFhKsAAAAAAAAAkALCVQAAAAAAAABIAeEqAAAAAAAAAKSAcBUAAAAAAAAAUkC4CgAAAAAAAAApIFwFAAAAAAAAgBQQrgIAAAAAAABACghXAQAAAAAAACAFhKsAAAAAAAAAkALCVQAAAAAAAABIAeEqAAAAAAAAAKSAcBUAAAAAAAAAUkC4CgAAAAAAAAApIFwFAAAAAAAAgBQQrgIAAAAAAABACghXAQAAAAAAACAFhKsAAAAAAAAAkALCVQAAAAAAAABIAeEqAAAAAAAAAKTgvAhXfXN364dLfqXvmA3JuPEl/XDFbsfjJfnMPgMqT0/u+LVq1heYDQPsK/3p7Rb9abG5vffkr2/WiprIY16p2cO0UNN3uH9myaqFZqfeU7hFS2qataKmWvlmG84ayV1nkWssfj+H0mqtqGnQ9EKzYaDZr2V9udmQkvz1zVqxY4uyzIZ+9tTLLQq8/JW5GQAAAACApJwX4eoZu/El/bAoVyf/9rT+unK6/bhfQbPfWaxg1S9VU3O/fmo2nJFvtLWiTXldmapYZ7b1nvr7/FpZ4NfK8n3qNBujLNT0Hcs0Pr1Ruwrsnyvwa83yjWbHs1i55vV1YHweSu4662/nyXtu/0NFwoF1HL+ozFRwVJsOPvGN2QQAAAAAQMIIVxPguzZXUpOO/K93zCbE8dTLn2tieoYqStK0wWwcKIXTlJcuddZVqN5s6yvVc7WmwK+VBYX9d0wMsI3aPdMKY19ba7ZhUKhJ0w07M+S7+fM+nVkPAAAAADi3Ea4mqvO4uIE0CQXdmj5KatyZrl+YbYNA59FzaaYqgJSsS1fFYSmvuEtPmW0AAAAAACTgguzs7H+aG+MpLi5WbW2tOjo6zKZB4zv/93Z9/wdp7o2d7+nva37pCEin6fIljyknI/S8W4F/v0Nf/O9whzDf3N26dpj588kpWPVLPT7huLYVvKTfRbZqXc2tyqpbp9uXN4afa/ujeuPKX+rxCRfb/VqMn7P8dP2vdWeusbHpbRXcVxN5Xnq/au7IdnRw7ss6Xp6j1c08bp6e3LFYP0wPPf9Sfy3/lR6vDncIe+rlFpVcmqnVcWat5q9v1gzH+XfWrfa4PT90G3/oeVD7y8dqt8cxVbhFS8omqnN7nNmCifTpLfaxwpdY1z5tmDlXbe5e1jioQiu3jXT1D3icY7wxy1rVoEUTYlcCNsfX3JeaKrTyvrLI88ItWlI2Wo3lY9V2p6NvjNdhHt88nmTXFb3DccWZx+w19nUjj3O13xc5z898r1K+zpK/XiPHlGf/eO+TOeam6PegXPNqSpQTft6oXR4zqqOOqdTfK89zjLqGzHFzn7vn+TiYn5Wo/vHOvaBbBx/tkP4yQjc88S2z1TJ1mTY/cKPSAm9p1sObzFYAAAAAwHnsnAtXfXN369pRTfrYURM1OhxdqJwVs3T54Ur9dYv1x7sVyCocsHoGtA4n//a0PkyiTEAy4WqeJHXV68mZW1UTCjQVeq5IyOm1rcMRrhbO0Zt3fqHbw2FrKBw1Q9NY5+dkn5sjvLV+Rh4B61f609ttGh4nrLDCD3ewk7++QVnbnMGSHQRFhUmKCqCkeKGXGSiZvAOm3pS/vlkzMs1AydGWK9d5eL3OxMZM4debERWsRWStalDh0bGRcQoFfc4QyhH+RYKu6PckEoy5g8GsVdXK31PoeG6+Jq999Z7o4zm3tzvGsVzzdoxUteO9scY6OuiU4l1nhtJqrbhjuPc+7JDZFQp69E/ofZISes+9QuXoa8orlLa3dZjH7Fn0/r0/C1HXsT0+UeFwAmOf+JiFfKOtFZ9romL/Y9Dkss168KY0Sc16a9YjIl4FAAAAAIScW2UBvvsrjRwlfVEVf7Gp7/zft+pyNeljO1iVpK/+128V6ExTzjRrQZiv/tcd4cWrPj5sz3wNL2Y1PalgNWnhYFWSGvV4dYuUnqeC0Cripbfqh+lf6q9rQ31iqN7qCFYV2ZeylZ/kgjAFq36kPLVom2N/Ncu36q9dF+uHdxa4+mrxaeVpiA7Veger0kJlZUpqOuAKNOvvM0Ow6cpRo3Y5ApG25Wu0v8un8Xcms3J5mV4LLV5lL0YU2B5ZzGpw1EINan955Dza9hxSp3zKDE/yTGzMEtW23BE+yaoL+26TpNxxyndslqxZf5GAq0yHmiRljoys9l5aEhWsSlLb8kiwKpWrcIJPnXVrHNvK9Nr2Ril3uqaHru1eFBrDvKnORZ4WKv86nzGOZXrNCL3rt+3z+NneslDTC/OkpoqYAWFIUu9TD/LvnKiMrn3a5ggr6++rUEB5mhRaCCv0Xq6N/keApBVu0aRcKbC9589X1HW8tkL7u6SM66ZFrrMEJT9m39I7Hw+R0v875iz+2rpP1C1JgQ8IVgEAAAAALudUuPqdMddpqJp0/H2zxWmaMq5Okw7/3Qhg39H/OS5p2P/Ud1zb+9/Jj/7mDk0bj+ukLtal9l/+P83PlroaVZNCqGbtK1l5KrjuYqnpY2NWa6P+3w5JmZfLGa8uuuJrSRfqSMzkd6PaOiTllmjF+lghqVcIpsjPOsO9c0HXIdXHfT8TGbMz09ru/U8SgXqv2X4R+fl5PZ9/6TjlKKjGPcasysZ2I0TuRXao5gro7AXNenpNqj6iTnNbb0n0HGKI9T7FV67RuVLnR+8YoWmjOrqkjOHWG5DQe5mgrKmjlaFGHeohQPZmX++9pKcx29B6oaSvNdL4d6KwPas1f9YsSgIAAAAAAKKcU+FqYnL1PzIkjZqlH67Y7XpcO8rse/b76fpfq6bG8SjL11CzU4+ydWm6pNxb3fuq8aj5mqD6+/zaUBe0wsKaZq2oadaS0Ow5SVKeMtPtMNFuDz3i1V48l/U8Zsko1zxjXKPqYibEnlHbcSTuTMesK4dL8ml8mfuYK6Jqjvau+vpGKX208u2ZsVlTRyuja5+qjcAva1WDcZ3FKyPRn3rpfSocqQxJGROWGa/TXed0wBRu0RLjdab+Oe+lMQMAAAAAIAHnYbjapP/TKelwZfgWf9fjDBatGmysBa++1F/LH1VBgf0or09h5mqL/tFlL5YV2o/zES5hkJy25WPt2/JXW7cAT1jmCAutGXVqqnDcvu94eNQuPR/EH7NE2bVOu/Zpg2NMN9TFn93nLbGZxG1H2+3SBx7vZUHs+plnbO0BBcK391uzoc3Zm6EFl9ylIioUcPQZGL34PtkzcTvrVkeN/coCf4xapP3EWRPVcU67msyOiejFMQMAAAAAIAHnVLj61bE2SVn6H991bLTrsEYMntv/VXptzBp/TgVT8zRULaq3A6jP2r+U0ofpKmen0lv1Q9cMtALl50pq+rOx2JS3mqPHJQ3T//Ssfel9+38sPd5iG2Wjds+0w0L79uREQ7s+c+8zqqysVOUryzTZbBsUvMYsxH2rd5TSccqRFKjunYC6tT3omh3qKdnb/6cu0+bKSlVWPqMFZltSylRdF7RKAxROU166WZrALj/hMZu1z9hBZ8aV7lqw0wuNwUnqferhPe+x3WK9l8N1hXNjaUlKs1utQH24spzXhV2H1ckqHxDU/m0JBLyeY+eQ1JhF9FjKJHQ9PntmVyMAAAAA4NxzToWrev/v+kKRRamkhcr515ukzm5Xt+A77+lkxk36/twYf6D3ASu8dCwkVXq/au7INnp5KJyjByZcrJN1b4frndbsadRJZWv6KjsoKZyjN+8YppNdzh+0Z5vmXqufhjaV3h+7LIBd1zVqcSrb77bV62R6vh5f793usu4iNeqURk/+xmyxlWveji3u0NSuQ9nZ3hjeVL9tnzrTJ2pRH9UYjWfy5cOt/+O7Ubffa7YOhMTGzBKqzxpjoajGdnVKysmPjGv++tRvnW5bvlsB+TS+rNq1YFDWqurI8e36pzl3NHifk2nUJUqTJPlVUHZm8XbbnkPqTB+twjtHK6Npt7EAmD1WznC4cIuW9GlZAGtRsIwJJeHxyl+/TOMVdNd5Tep96uE910btrm6UckviznS2FgFzLHBVuEVL7hiuTtd3S4LsWcORxefKNa9sotTlnkVqhbDOxcMWavqOWGUB7JDYMXYuSY1ZyDeadu0pqevbMj9JIZMnXGNdjzljzjDsBwAAAACcay7Izs7+p7kxnuLiYtXW1qqjoxdXG+lN3/2Vrv/Xm+wAsVuBf79DnWO26/tXf6S/u275X6icFbN0ueNHJemLqukKGAti+ebu1rXD3jN+PnkFq36pxydcbD9r0baCt/U/dyzW9R+t0+3LGyUVaF3NrVGzWRu3P6rF5qw6Vzjbom0FL0nrf6079bYK7gtNvzL211WvJ9dKD5Tlq63HfSq838giVomf31Mvt6jk0kytLknTBneTJXQrsGNTYLvX7eH2bb7G1khf73ZLo3YVGCuV28ft9DyW0wI9U3mb/JKad83SI6+Y7T0L3W7upbNutdbYq7bnr2/WjMx92uAsdeB1ngmPmeyAyl1P03lMlVZrxR2Rd7KzbrW2aYkWTWiPjJnXOcQ6356OZ/Mcky5zX5I0WcteeVA3+qTu917Q/PJaV2tyIufmPV7muTdqV8EBja4pUUb4NSR4nXm8R2Gu1+k+Zmfdaq3ZM01LykarsXxsJABO5H0KM1+Hx3vgeX5B7Y95TOu1aX2zZqgi+fIBruNZx6mf2qBF1x1yvefmdRHY7tehfK/rTJ7vhet9TWrMJBV06+CjHWrfma0frzMbbVOXafMDNyot8BaLWgEAAAAAXM69cPWsZoWXWXWhsPUsZgcW+ssI3fDEt8zWs8KCZyt1W0633n9xvlbvMVvR1yaXbdaDN6WlHG4DiejxH4IAAAAAAIjj3CoLgMGjJk27D0u+m49rawKVBAade5/RbTlS93sbCFYHwtRlWnRTmhR4i2AVfWdxl0pGSY3/QbAKAAAAAEgN4Sr6zC/+bYT2dZ3SxEe79JTZOGgt0DOVlaqc4VfzrllneDs6kjdZy16pVOUDN0rvvcAt2Og7Bd06WNyp4F9GxC4HAAAAAABADygLMKicQ2UBwr7Sn95uk+LVMwRwloiud+rJs47u4PLUyy0qUZZy/u07ZhMAAAAAAAkjXAUAAAAAAACAFFAWAAAAAAAAAABScM6Eq36/XxdddJG5GQAAAAAAAAD6xDkTrgIAAAAAAABAfyJcBQAAAAAAAIAUEK4CAAAAAAAAQAoIV/tb4RYtqWnWippq5ZttwKCyUNN3NGtFTejRoOmFZh+H0mqr344tyjLbYshfn1z/fmN/TueVmg2psMdxfbnZgBgWPXFMgYpuLTIbJCnrev1+6WztXHi9pphtZ4WRenbpbO1cOkn3mE19JYXPJs5W32hrRYsOPvGN2XAO+Y7yfvYDFc32mQ0YVHwa9/gPNPWW75gNcWXN/oGKUvg5AACAgUS4eq7r1ZAI55eN2j3Tr5UFfq3c3mg2Drzz5NrOWtVwVv9jzOSyzaqsfEYLzIZYFndp2c2n1PgfadpgtuHscJ58Ngenb2nOf2TId/Pn+tNisw1ARGrhLwAAgBfC1f5WPVdrCvxaWVCoerMNOJutLbSC2Jlz1Wa2AYko6NbB4k4F/zJCP15nNtragvpCkk4EtddsOyt06URQUvCEDptNfYXP5vllXbpW/2WI8oqPaWuB2ZgsK4AaF/rXnfxsFf3scg01evUkNBsxvB8pMgM1ajvOZ22v/01VT/5Ne/74ldkEAAAwaBGuAgAGhadmdcjXlak1T3zLbAKQhA1PDNO+rlOaeF+M8hpJOakuO5Ufelma2ZiUrO85buW/IkNXpjtbAQAAgLPTBdnZ2f80N8ZTXFys2tpadXR0mE0Dyu/3q7W1VadPnzabBofCLVpSNlEZoedd+7QhahZRuebVlEjb/aq+skGLJoT+CGnULo+ZrvnrmzUjN/K8s2611izf6NlmCmz367W1kedR/ZsqtPK+svDTrFUNWnTdIW2YeUSFNSXKsbc7j+mUtcp5/t79EunTswV6pvI2DX/vBc0vrw1vnVy2WQ/e1K63Zj2iTc7ez1bqttDJS+o2fs5i7dMfft5s7Geylr3yoG48/pZmvTVCmx+4UaE/N73310/sa0we42iNtbS/fKx2V1vbenrPXUqrteKO4a6fd7flRZ7H2Y/5nksenwXzs6Jg/PM2mNe2eUzv68z67DkuDcljX4nyPEdzXMxxc33Ovc8nwvhO6GHMkmNf3x7lDN3Xt9mvW++/OF+r98jjM2QyP1P2rNVHO9S+Mzv2rNUejdSzSyfp8voq/eSdYHjrlGlFeii/S28+965eNfqOCj8P6sDWKq2Kmtpp9jviuZ/L66v0k44btLNwZLjlcPXreviD8NP+Z15j5jUoJfl7x7wuz+SzuVDTdyzTeEe4Zn4289c3a4YqtHLbSNf17f25NPfn9RlIpE8Cpi7T5gduVPuuWXrklcjmBc9W6rZh7+uFe1cr8lvA/Cw4PycO9z6jyhmOT0zgLc162PXbK/K77ovbXX2bjfMIW9ylQHGnGs/kM3XF5Zp670X65MkWtdkzUMfpv1T1euTz1bPvKO9nY3XlZy06Of4iHbX3NfSW6zRO/9DJ8dnS7r/pQOhiu+JyTb032zE79qQ+eeUjNba693fNced5+DTu8e8pS9LJ/Q2uWY9Db7lOU8c79ma0JyNr9g80zvnF1pzsWFiyZv9A44a1aM9vv9DJ0Eb7dZ90joXHMb3P3x6T8LUdZ8z+83+4xtd7fwmIep++0AH7vbVY78nQ/Q06oFzHe+DuZ74/IW3GOFgi77PFPGZI7H6xjheS8ngAAIDzGjNX+0u4HIBfu5rMRrecO5q1aPhu6zbOgtXa35WnGcZCJNYfsY3aZe9zZYFf7w5fEl5wqP4+e3v5PnXaf4yG+q0siA6fRtc72sv3qTO3JHoBnvSJWlQzXR3lkTqcGROWGXX1rMV7rCAvss9tKnEthpS/vlmLJrRHzr98nzRhmZasWujcWa+ygtVmvTVrlmbZj5rLFmnZVEenqcu02f4DNtTnrYBft3nVjMy5TZUPXKNPXrT3t6tZaTc9qGfuNTv2k+p31NglZVw3zVi0ZqHyr/NJTbvDIULC73kiQrccF6zW/i6zMSLqPff8LJRrXqm0zdXHp/FlkcW0krm2o47pdZ0VbtGSmhJl1K12j0ekRxKs639G5j5tCJ+Tx7gUbtGS/AOO87Y/5+HaqmV6zW7bUBe0gy7n63SGXj2PWeLswFTv6wX7+n/hvW7JDnAiweoCPVNp/2fLsF4AAJ5+SURBVANDuJ904wOb7c/TJj3i+nn3526WGaxKWjT5lHzK0IFUQ6Ck2IFpy7sqfu51+3FQl8wwFsnKul6/t4PTUL83W0bqdo/FqNLyi7SzUHrT7vd8fVCjCou0fCBXkErws6mEfu/YwWpTheM63K3M0kif5D6bS6S1jnb790nU74DcEq0oG653HZ+HnDuMa7twi5bULNN4OT93a6Q7zfNfpvEdkfPfUKcUPyeJsoPVQORzMmtWjS65Z5kmO3pNLtusyhnD9X7od8mst9Scc5sqn436raO0mx5U5QyFP08vvNct/4zQ586w7iI1Ssobm0JQdMXlmvr4D1R0b7aG6nKNe9y+fd8vyf+9FBcc6tTR5st1zS3fkeTTNeO79ckfO9XVJQ29LLQvn8bNlA48ad0aXvXk33Sgeaiuufc65V1h7C4sFKR9oQPG7eRZs3+gqeO7I/t7pUUaPzaFc7dCuSv/K3JeVa+06KT/e326sJYVrFqvK3TcTy7NNcbCp3GP28Gp3WfPfnmPmf97Krr3Uh19xd7f7i80dPzYpMsyDL3lOhXZQXDkfbpc4x73OOZVuZp61T+058m/qerJBn3SdbnGOUpLnPzjR5ExDY2rsQspdE1aYa37mNnu/+bJz1bR499TVnNkPKqePKEr7fcpcrz/UpsdpjqPT7AKAABSQbg6GHXt04bw7KKNqv8oKKUPV+S/VxcqK1NS0wHXrKL6+1KYgSOpbflY9yyg6rl6t0lS7rioRXQC2x3HWHtAAUkZVzr+GC4t0fj06NlAbcsLI88Lt2hSrhTY7giIqudqW11QGRNKoo7ZOyZrxDBJgQ9coc6mh90ziBbcdqPSgu9rg2P26aaH31Kz/Cooc/45LDswcvz8Kx+oWdLwy81+8fyrXqyqUlWsx5p/NX8gjtC1Mlr5ruBhmvLSpUB9ZMZaMu95r/B6zz2V6TVjRnf9tn3qlE95U5MM3r2O6XGd5d85URld+7QtajZrCkLX/1pzVrqheq7WuGYQbtTu6kZJeRqd9CJAvThmU6foGp/UvDcy8662vEbNkvyjI0HP5LIC+dWstxwz62rLN+j9YJpuvC06EOrZN5p27Snp8EX6hdnUF7J8ulzS4U+PODYe0cMbP3TVcb3nRzcoLXhQ6x2zYF+tfFeHNVI/nmYEKsGDet4xo3XvxwF1y6dLLnN3G7R6+r1TOFIZcn+PeF17iYr6fbW2Qvs9/3EoqP3lkc9w255D6pRPmY4JuaHPsPtukI3afV/kedaq6cpRo3Y5Pndty9dof5dP4+9M4R+VEjF1hIZLaj7k+q2jR4yZrbfflKbu9zY4fhdt0iO7mqWcgujQNPi+XnD840Rt3SfqVpouiUytdviODhyWdOl/J18aoPULKwzb/YXU1eIIxiJhVCohVNt/faGhV2VoaP4lymo+4XHtBHXAOZtTUtt/tuikhurKMV6B6HeU97NQsGrMYLzicl3jl9p2O7a3fqED+09q6Pgs4zrr2ck/fuSeSdn6hT5pluS/JOl9JeY7GjpMkjFOba87Z6RKQ28ZYb1+xwzak39s0iddQ3XNv5jB7xc68KTj5+utfUfC7UT4dM34oTq5v8E1Hm2v/5faFH3MofqHY4buV2rc94WUnq1rkvyPjax/ydbQrhYdcFx31jFDgb2s62Hi5R4zioOu8QEAAOhthKuDUOdH73j8weG0UW0d9oyeVGYaJqC13es/Qht1KOpWTLf8/Dyp65Dq44S8WVNHK8NjX21H2yUNV1afzCKq1efH7dmmHrOBLAs0Jkfq/mSv4w9fSTqsE0Ep7TLjr9eoBWms2XrJlQX4dz1QVKSiWI8l/27+QFxty3crYIRqscbb5P2e945Ez8FT9ZGUZpHGOqb7OivX6NxEPnOJSeT6j6mxPaXX6SnFMdOoS8IlLkzdx0JX+2RNuSYt6h8qwp+xYSNcs/IS898ani4F279tNvQNe1GsUYWz9ewYszFkpMZkS91NR4yFs6wFqdKGGcUizQW22j7UT54b4LIASejxM2BfUzl3NBt3K/QW+/eaqcfPUyKf4dDsffc/SIaPmTmyb8KxPZ+rXZJ/RmXsOxruHSO/uvVJnfF74/AJ79D0+Ofu3097Vmv+rBhlASQ1tg+R0v9bzgIkyXDXWP2O0tOlk8eSDVUdP1ffpk90qcZNvFxt/5Xg75zW/+M9k1H/w74V3iNYlTR0zKUaqi901PgXvZPHuiWlaag5wzIFJ//hfWa94yudPG7PNo05O/Y7yrpqaFQAG/7ZYf/DvfhY12ljLINRs317lG+FydHXQVBHm6OPefKzTvcx26xzSDbQvdLvsS99Zc18vtTel13HN+FrCwAAoJcQrp6l6u+zbxfOLdGKmmatqGmOvp0yYeWaZ+8j9Iiqi5kQe0Ztx5GoP3Kcrhjuk5SnGcYx3fUne9+mh+1blHNuU2VlpSorK7XZORvVnmWUdtOD4Xbr4V1/cnAq06Em5+wvK1TorKvwqJ3YG+9578ta1eC+LuLWHo1toK6zROWvN87LVTM1Ob01ZnrlTb0flPxTIrctW7NUneHPKF3is/+hwvU5cdczHtyO6OHnqnQgaAWsO5fO1s6lxi389uzWtPwiuz3Sb9zg+Kj0szK9ZpcXyLkjdJ2dwS31hVu0xPhsxqvXGpM9o7bzaLyZ53nKTLf/QbI3jpmwTXpk1gvWZ2pG6HPivoV/8uXDJaXpxgfcn6VKRy3vAXc8VriZiq/U9pk0VC36xPFLKRyOhW45t8sQWA9n7UwHf7ZVYzQqMLQMvXSo5ChpEH5Mv9zsmiBf1L7i1e7sDW2v/0179p8Ml2KILsdgBdfO9tDDVRu210UWOYuSfpE70DXFDMvjuMIKbIeOH2u8TmedWUlZF2lovHMDAADoI4SrZ7G25WNd9fQ869X1yK6j1+WsVReq85isxGYBWTMkzRqSoUdqpQ0SVVs+365pZ/3Bm3bTg5GA1Z5l1O2ot+p6uBYX6S29WRbAUl/fGCkNUDhNeelBNe5xBg+9+Z73rtDiU+5ajRUKmB0TMJDXWU+smslBV13iVOu89uaYhYNT34160A55HrxJxgI81kxuuepIOh6uW54Hs6BWbbTrrW49qG75NG6OI2C1Z7d2O+qtuh6VzpIC54uN2j3Teb2mWNs3tACbq36rVw3mBNgzal3laaI0qqPLXtAr6rvAr5UpljZITK1W32t/Nl58X91Kc9Qmlmq/aLcXufL4LMWZkdrXsmY7wsNwcGeFnFnTf6Ais85lEk7+8SNVGbf+h4QWG2pz1PIM1caM0vxfVn3O9GxNddTwDLFmlbrrlUYe7lvre2bXdQ2XSLDrc+73ehW9K1Ij1CrLMNRVM9aauSlXfVHHI8Y496kYYXeYHZRGz3yNww5kzfqo4Ufolv+20zqpoUpP9eIEAABIEeHqOWGjds+0A9bhxqy8nv7wLB2nHEmB6t7547K13aPmpyHp2/+nLtPmykpVei0q5cm+bTmuWq2+1w5Yw7f7x7j9v0/1blkAKVS70CoNkDV1tDLM22p7+T1PhOd7btdEjbBv3e3ap+pEygf0cG17HjOKFbqYn5v8O1ObRWpd/876yKE6rM4N1m3MzgXG4on/OpIcM9mrkldWqvIV96I6ctZSdQU85srmyd3+b4VHwzXCrB3p8m21d0m+4f9tNvQCn6bk9jDVtO1D/cQOWCM1UmPc/t9PFjzrMbt+MKmeqzV2wOqsf2q1xf9sWiU7gtq/zVm/NVX2ZziqVqtTYv/w5xLnc+LNKisT157Vmm8HrOHb/WPd/t9L8oafkrq+rUazoQdtr0fCvHCgtfsLR1gZfRt+THaY1jP7Fvcu96zWuFq/0J7dVg3Pqcat8715+3/oVvi2fX0XVlplDOL5So2/tQPW8EzfGLf/96X6E2rzrIEb69Z9N+t1Jju71Lj9PxY7hM36Xg/f+VLi+wQAAEgA4epZqVzzXKs4RxYt6mw3/4Sy//CMtVCUXecxJz9Su9VaYT2R/zCNFqr5Ob4stOq5JWtVdWR2kx3+mX1imTzhGvv2SL/GRNWtswPRa6bYfwDbq51Hnf4CPWP+kWwv3hOpJVmr1XubpZzbBm+gkRBrMZqM60pUeJ0vOkTt5fc8IWsPWNdFeOGYcs0rmyh1OWfL2gGIM5wv3KIlMW9x7+HaTug6sxfuyZ0evj6zVjVoRmYwpVmk1mI7eZoUmkFeuEVL7hiuTtdK7fYsOufiYaXVscsCNLZbMwQ9F91JdsykBaPte0V912iKEXgmFoRKm956X92+G/VgzPrFDnZ4FH+hq2/pnY+HSKNO6ymzKSl2IJo7UlMkST4tX+hxG/+YSfq9sSDVlGtzlKagThwLbQlq1V+PSNnRffuevQCfpLSbbk/wH5X6WGl11J0RoZC0w/y108Nn0/oHA2dt6IWaviPVW/TtxeDSJ2qRqwb5Qk1fH/k9Wb9tnzqj+sQW73MSrqUaXuRtgZ6pvE1Rd2Hf+0zU7xLr91m3ToR+7exZrZqA5J/hLhfQO77SuFGS/vFtbTCbkuCaYdjTrMSkOcNB+/+nX6qsUCBqrxAfNxSvbwnfOu+6Zb6+zVrU6d7UZ9mG2XVCnaFd1uzUywKc/MdJ1+sMzdh182mcOSPXril68h+ORZ3+0569G7Mua28L6pP9JzV0fK7yHMF11mxrYbFP4tVvveJyjRs/VCf3NyU5c9heCMt8j6NY5xbdz6dxUeMTqmk7wvU6AAAAUnFBdnb2P82N8RQXF6u2tlYdHV4rTwwcv9+v1tZWnT592mwaFEK37nrprFutNcs3hm/Xzgg/t1g/265dBY5Vz0O3VYZ7SYHtfvcK8GH2beCOLa6+pdWuOpSddau1TUtcx/Q8hxjna/2hvMw1Wy/yGiOsW6Ndm6zbNl2rqNszVx+4UWlq1luOVZIj3H/Ydr/3guZ/cbsqZ8jdP7yfiOZdHrddevSzbtsMzeCzA1y9rxcG6y3Q4euj0XjPbAm8517XWJhjZW7P99Hmus5c+wtqf/lY1U9t0KLrDjlW+TavnUbtKjig0Z7XmXq+tmOdn3Gdufo0VWjlfdK8mhIp5mcqDtfYWuOv9c2aIecxjfPu2qcNa6U7yyaq0+uYxvsV2q/1viY5Zvc+o8oZfmvVcY/rd8GzMWqnBt4ySmN4B0qen6nQMcM8PssF3Tr4aIfad2brx+ucDckaqWeXTlJoImB3fZV+0nGDdhZKbz73rl61t0+ZVqSH8p3fyUdc7WFZ1+v3c24wvg+COrC1SqvaFDley7u9WyogPGYeY5Ugz2vfFvmceH+Pe33nR/8ei/H9IkVf48Zn09xXYLtfh/KbNSPT+G5xPJci3yNRn5Oo7yvrO8Y9Ozz6nOTxnSH1/Dkxf08075qlNy/frAev+cTVf3LZZj14k+u3juf7Gd1PxrHtz1vU5zCOxV0KFH+tfb++THNqzMZEWLfCa/ffdKDeDgCvcq78nqArLtfUe7N10t6PKWv2DzRuWIu93+/Yi1SFWr/QgSdP6MrHv6eh+xvshZfsPsfdK8JnzbbrjBorxYe3O0WtJp+A/GxXvdaT+xt0QLmaOr7bc0GtnrjOq6tFe377f3SNY7ylyNg5A9Y2z3G0yxYYWyN97TFTaJzPXFQg3BW9b6+x9z5/h3jXi8d4SCf1yStGmQfjvbKuI6/3yLzerPc1qQW+AAAACFcBACFWsOr8hwSbHTR1v/eC5pdHxUy95qmXW1QyKkMVt6brF2bjeccO02KFe0Bc32hrxeea+I8s5fxbvJl+wCATL1wFAAAYpCgLAACI3Ioe/ER7XTVWQ7f2971fVGYqqE6VvMysoQXP3ia/uvX+qwSrSN6iJ45rYvoQ7askWMXZJbWarAAAAAOLcBUAEFmoKqrG5GQtu+dGpalbn9T1ccxXk6YbdmZIo9p08IlvzNbzg72Q0m05zXorajExIAGLu7Ts5lNq3JlqOQCgv3xHebOddWV9umb8UKn58yRrsgIAAAwsygIAQBxmbchYPOs2noU8a672863pi544pmXXDtHqkrQzWogHOP9Y5QBGfzxCNzzxLbMRGHzMOqqp1MMFAAAYYISrAAAAAAAAAJACygIAAAAAAAAAQAoIVwEAAAAAAAAgBYSrAAAAAAAAAJACwlUAAAAAAAAASAHhKgAAAAAAAACkgHAVAAAAAAAAAFJAuAoAAAAAAAAAKSBcBQAAAAAAAIAUEK4CAAAAAAAAQAoIVwEAAAAAAAAgBYSrAAAAAAAAAJACwlUAAAAAAAAASAHhKgAAAAAAAACkgHAVAAAAAAAAAFJAuAoAAAAAAAAAKSBcBQAAAAAAAIAUEK4CAAAAAAAAQAoIVwEAAAAAAAAgBYSrAAAAAAAAAJACwlUAAAAAAAAASAHhKgAAAAAAAACkgHAVAAAAAAAAAFJAuAoAAAAAAAAAKSBcBQAAAAAAAIAUEK4CAAAAAAAAQAoIVwEAAAAAAAAgBYSrAAAAAAAAAJACwlUAAAAAAAAASAHhKgAAAAAAAACkgHAVAAAAAAAAAFJAuNrfLluqjYs3aeviX2mu2WaYW7RJWxc7HkV3m136T+EWLalp1orQY8cWZZl9nEqrE+sXtlDTdzRrxfpys2HglVZrRU2DpheaDSmwx3FeqdnQ/xY9cUyBt1sij4puLTI72e6ZNVs7l87Ws2PMlrNDT+efzFgAAAAAAACEEK4OUnOLNqloxCn9fccCzVlnP6r+YHbrP9VztabAr5UFfu1qMhsHXtaqBq2oqVa+2XCOyV+fTGCdiAxV3JqtnFuzlVOSpg1m83liwxOXWWNwa7YqDputAAAAAAAA3ghX+9ux57Rw3QLNWfdLbTHbwu7W9SMkfb5HTx8z284Sawu1ssCvlTPnqs1sw1nn8PGgpKBOnKXX49l+/gAAAAAAYHAiXB3ETnW2mJsAAAAAAAAADBIXZGdn/9PcGE9xcbFqa2vV0dFhNg0ov9+v1tZWnT592mwaHC5bqo0zx2pI6PmXDXpp63Pa5+5lu1tPLp6u4Yd+p4V/rjMbE1NarRV35Cmw3a/X1rqb8tc3a0Zuo3YVFKretc3RqalCK+8rc2yIyF/frBmZ+7TBa1aqfdywnvbjPKY8+hdu0ZKyicoIbwhqf/lY7a6WpHLNqylRTqS3wf0aZZcPWDTBF37eWbdaa5ZvdPTwOqaM4ybD+xyj3hdz3Jzn7nk+Dl3GexHV3/vcFz1xTMtuvlAVt6brF+6mpNwza7Zuv+Sgnt/4ofaGNmZdr9/PuUFfVL+uhz+I9J0yrUgP5UfGXy3vqrjySOS5JMmn5QuLNC7cLagDW6u0ynGxWfvp0pvPHdQIZ9+gcR4peOrlFpVcmqnVMcokTC7brAdvSlPzrll65BWzFQAAAAAAnE+YudpfwuUAFqjqc7NRkibosTmhxaumK0fSkNE/dSxotVaPXWb+TBxrDyggKSffXCCqXKNzpc66inDomLWqQaPrrXqqKwv8Wlm+T525JaktLhUqB1CwWvu7zMYQa/GqGZn7tCF0TM/+5ZpXKm0L9/FrV5NP48tCi0uV6TV7+4a6oB1IOl6HEazmr2/WogntkT7l+6QJy7Rk1cJIp9JqrSibqM7tjv1sb3TsJQmFW7SkpkQZdavdY+vVL/+A47xXa39XnmaEasia9W67nONmll7oacwGjhWISge2vq7i56zH88dvMBaZGqlnlxZp3Il3I33qpXFzirQ8qtDsSN2+tEjfa6qy+76rw74b9NCskWbHXjRZU65JkyT5Ry8wGwEAAAAAwHmGcHXQqNPTW0OLV+1WQNKpQ7+LLGa1rjTJ+qtlOtQkKXece5Gn0nHKUVCNeyKzNduWj3XPoqyeq3e9fra3lJZofHpQ+9d6zHx1KdNrxuzY+m371Cmf8qY6AtFEFG7RpFwpsN0RuFbP1ba6oDImlNivc6GmF+ZJTRVRs31TkX/nRGV07dM2c2asqXqu1rhm927U7upGSXkaXerYnJBeHLNeNmqYTwoGtNdxcnvfqTJmtt6gUTqiNx2zWfe+U6sDQZ/G/Sg6ND1c/bp+8k7QfnZEH7RIusSnKUa/3lOrvZ90S5KaD20yGwEAAAAAwHmGcPUcZoVq7oAuPz9P6jqk+h5ub29tDwVWvS/Rc/BUfSR65mcCsqaOVoYadcgITduOtksarqxCSYXTlJcuBeq9yxgkx54h/NE7PQTIMTS2p/Q6PaU4Zr3t8PGg5LtBDy28Pkb46dOUXJ/U0qJXXduD+vyEV2gavUDVq5Wvq/gMywL0pLZ8vmbNoiQAAAAAAAAgXD23Vb+jxi5naQAr8AtUmzNGyzWvplkrHA9nXdKBlLWqwXVeKzzqlybiiuE+SXmaYbxOd53TgZO/3jiveDVWe9BbY9bb9r5TpeLqI1bAunS2di6drZ2uW/jTdYlPUvYkq83xuD3b0Q0AAAAAAGCQIFw9p21U/UfByO39peOUEzV7015wyajjadUwHVihxacCzvqnBRUKmB0TYM3ENWuyhh7Riz31J2thr6D2lzvOyas2awJ6c8z6xAeRWqpvtthBajhg7dKJoL3Ild3H9ejjGakAAAAAAADJIlw9x7Ut362AXRogPz9PajrgWuTJCly9ZrP2ndb2oJQ+XFc4N5aWaHy6c8NC5V/nk7r2qTqB+qeu2/s99NQuRW6fz7jSWZvUrsOatEZ1dEkZw90/m3+nOSPVmk2spt0JBbyeYxeW3Jj1pSnX5sha9im2VyvtgDV8u3+s2/8Hl8llm1VZWaln7jVbAAAAAADA+YZw9ZxnLWyVk1+t0blB7d9m1BO1a3tGSgdYMyn7sixA255D6lSeJq2yQ8zCLVpyx3B1djl7bVRbh6T00coPBaKFW7Qk1i3uje3qlE/j74y8Dpe1Fdrf5dP4suo4i3RZYxVZ4ErKX79M4xVMYRZpaNbwdE23zz9rVYNmZJr7skJY1+JhpdUxywJYIbFj7FySHLNeYtVSzdGULOv5lGlFeijfvH58Wr5wku5xbRupMdmSTgTDM1Jf/fNBdftu0EOucgGDyWRNucaKjf2jF5iNAAAAAADgPHNBdnb2P82N8RQXF6u2tlYdHR1m04Dy+/1qbW3V6dOnzaZBYeKP1ur+0UPMzZKkU4d+p4V/rnNsuVtPLp6u4VHbU1RabdUW7dqnDcZK8q52W2fdam3TEi2a0K5dBYWqd9xu7qWzbrXWLN8ohW9xN3tYAtv9ei00o9J1zEbtKiiU1jdrhiq08r5QALxQ03csc8xobdSuggMaXVOiDMcxw4zXEdqvc6au5/k1xT5mZ91qrdkzTUvKRquxPPnyAa7jNVVo5X3SvJoSyTkWodIMoadd+7RhrXRn2UR1uvpZot4L1/ua+JgteuKYlt18oSpuTdcvwltTc88sR13U4EE9vzGo25dOkqpf18MfhHqN1LNLJ2lU5MfUXV+ln7xjlqCI7idJhx37sgJc6cDWKq2KuqDPzFMvt6jk0kytLknTBrPRnrn64E1pat7FolYAAAAAAJzvCFeB81Rvhqvnkp7CVQAAAAAAgBDKAgAAAAAAAABACghXAQAAAAAAACAFlAUAkhBV7zQGV33ZQcoqC3AqsqHr/L0VnrEAAAAAAACpIFwFAAAAAAAAgBRQFgAAAAAAAAAAUkC4CgAAAAAAAAApIFztB36/XxdddJG5GQAAAAAAAMBZjHAVAAAAAAAAAFJAuAoAAAAAAAAAKSBcBQAAAAAAAIAUEK4CXhY8pLFv/EZjN87XhWZboqbM11Vv/MbaTyL76o1j9rFFTxxToKJbi8wGSSqt1oqaZq3YsUVZZhuQlIWavqNZK9aXmw3nvPz1zdbnyH7MKzV7ONnj1GM/h9Jqrahp0PRCs2Gg9e57nr9+sHwXLdTa4t2qdjzWftfsY5kyrUg7l87W76f5zKazQ9b1+v3S2dq58HpNMdsk6eJfaadrLLZr9cVmJ+mpl1sUePkrczMAAAAwaBGuAn1l72Z9dtfP1XDXz9UUMBvPQou7tOzmU2r8jzRtMNsGQuEWLUkmVMJ5I2tVg1bUVCvfbDgL1N/n18oCv1aW71On2TjgyjWvpllLVi00G84tffDdcvLjp1W4c7oKd05X6f82W88TX/5SxfYYFP61yWwN+0VlpoKj2nTwiW/MJgAAAGBQIlw9z1342EqNfeMhDTUb7FmXVy4wG/qZOfvzjZXK9JwS08s2Pa+Gu36uhoWb9bXZ1lcG4piJKujWweJOBf8yQj9eZzba1hZaodDMuWoz2wD0gY3aPdMKY19ba7bhbLO3o0uS9EVH0Gw6O7QF9YUknQhqr9mWjJo03bAzQ76bP9efFpuNAAAAwOBDuIrBa8FDGnv/OGn/b63Q8a6fq+Gu16T5HmEw+tRTszrk68rUmie+ZTYBANC71qWr4rCUV9ylp8w2AAAAYJC5IDs7+5/mxniKi4tVW1urjo4Os2lA+f1+tba26vTp02bTgBvM53bhYyt17fjjarrreZ10NkyZr6vuH6dTVT/X0U2hjbfoyjeKlBnuFNTRl1aoI2qKitkvYOzfah+y/7f67IsijS3KCbd0hI93tTI3/kxX6oA+TmQm54KHXPtRoEoNj/3R0SGRYyayn4ihT/9GuY6uPfYdFuO1JHJM+/0Y4t4qSTq1/7f67OlPHVvssQuX7TPfJ7v9eJUadmW59hu9L3vW6qMdat+Z7T1rtbRaK+7IizxvqtDK+8qcPezbiUuk7X5VX9mgRRNCJ9eoXQWFqvfoGxmRoPaXj9XuautZ/vpmzciN9DYFtjtn8S3U9B3LND490t5Zt1prlm8MP89a1aBF1x3ShplHVOg4rtnPYu7PfW4hWaucrzHWvnqyQM9U3qbh772g+eW14a2TyzbrwZva9dasRxT+aNp9/eHn3Xr/xflavSe8wWb2a/bcz/D3XtD8L25X5QxHz12z9Mgr4ae9zvN9Na8l81pzXT/mdWMyrrXCLVpSNlEZ4Xbv9zI++3rQPm0wZ2zb+5fzvU/mmHbfTtf1HJLYdSh5HVMe/c39ua9Z83o2RV3f5vtkvo+2hN7zBHmeY5fxvkSNRd9+t1gWam3xLGV9/LSK/+sdoy0JWdfr93Nu0BfVr+vhDyKb75k1W7dfclDPb/wwMlvU7psW7nVEbz73rl4NP7eNmaSdhSMjz1veVXHlEaM9XQe2VunzH83W7dmhhhj7S8Z3X1L1D7P0tz/doWVfmo02+3eP/jJCN/APewAAABjEmLmKBNmBaaDKMYu0Vt+Zbyy+NGW+rrJDzFC/pkCOcj1KDwwZ/zONLZKa7H4f7w8qs8i47d93aY+LO1342EqNLRqmoy+FzqtKHTlFGvv0LWbXno8ZujX/rt/qaJw7My98bKXSPwwd7+dqeOmATsU4Zo8SOaajfmvo8fH+oBQ8oBZXGHqLrnzDDk7D/aQr7/cop5BTpLH3X6UToXGrCmjI+J9FlYJYNPmUfMrQAa9gVY5yAAWrtd+6qzWmnDuatWj4bkf/PM1wLTpjB2RNFXYfv1YW7FZmaaSPWZMysD3UL/r26Pz1S6S1jvbtjcqYsCy6ZmT6RC2qma6Ocnc/V83Fwi1aUmMHaeHj/f/bu/vYqM48X/DfVlqdFjW3bGhwnA2WXeBpOomBNS87DY3tYR2PGtkycioZL9Bg0GJy6R1YEuiJdQ1X6IJXzgwm3DAbbmxWBCeQ6wsVhGVE61Y8GWzaZJYXLy/pNH1tVyGTxTFusOtuIdLqqPeP85w6z3nOqapTRdku4PuRSsL1PJxz6lSdp57zq+f5PQeB182L5hQ2B1C7ZBgdep3GHsBunykjAqbBdni9XvHoxNT19SiSq5XUo1UETvV67UEPKn37oGb/cC3eBl8F0C7qHbgYhqeiFfUlSsWU0BYyqpgun1ebz1LZMWwpvCy91+LzE8mtWoePRFnLhZAIpsqfDTmI34i1m4ETUnlHvxuL6hJd6Okwen8bAjIKUKj8v+ySAmSiD+cjwbZU7ROmdAB7TvaphYbNfuwSAVr5GlDFu06Gds4XZW0IiiCicV49lh8rdr2WhUv6tVTahuDsamWhKofvuUOWa67Ugw5LSs/4539c2paJJgKr6D2Dqv2faI/j9/GKVwqi6otnlWXg8nFRZ/95DOQuwymlHuDGwtWrsBLnRb0zuBzKwcpoi1alUucPcWMMcL/40H4RRSIiIiKiNMHgKjlTnI0pAEa+lEdU/ld8rYzE/IuKhZiiBPz+v78/gxHk4fm//7FUE0DoMr6SRrT+8Yv/hgdw41kPAPweI91BAHmY/V/+Y4yg5d9gxiI3Hlz6SBqZ+V/x9ZkgkFdkDSjG3Kdzf/yHXdKIXi34eScIIO9lSxB5XBSvQ+4i4OtW8/n/wd8XYTqC6JdGvv7xHz7C1yE3XqhQz2EQ/X8rjWg9+iVGAEx5Tn6fvsPyFx8AAz/E29KzSRvrQUtkVJoemMrC83p5WQ4yAQR75ZFrdfhIHRXoUO8mZTTfoTZcGgMyX1puWUU8eFKqe+gyggAyXzACJYWvL0WmOhIOh3F2k3lk3LLZQPCkFMjzr8GJCyFkLqkenwWWSmYiC0DghvyBPIodGxpgjHcFaioXwBW6ghZpFOzR7e0IwIPSOlMYFghdwQFpRGv3hZsIw4Wps8zVUmJzNRZlhHDpUJz32L8GB00jGg/jrL8PQD4KEl54yPqZ6j3Rg1G4kV+iv+f/K947cwZnoj0O/q8AgKFzN5T/BwAbUfiSG+i/LAV0newzlTZiRVk+0N9mM/LVLJHrJLZGlC1xY/TCQWl7dfjoZB8we4URRHb6njthd83ZSu35T905S7EZU+FCCL/7SvqlbuhL/EIekYocrCx0I9zbjb2REzKI7f5BIHcediovINx7RhrRGkJXfwhwT8V4NAdmz+Dzr6YAGX+CPF6diIiIiCjdMLhKznQN4QGA6eWxFrn6G2TkAQ9+/4Uy9T2Ib0PAlOnKhN17Q+Z6YnRmJGh59F1jNGdeuVjQShkBW/MypiOE+18oU9kDf7APmsbb5yP444QtQvJjTF+3EFOC3UpKhh/D/WM3EPzSnOIBv8fDewCmZZtHAYf+oLxP/xVf/+3/rqQF+BOyMoDQ8Pel55I3+tvPYwdT/IMYFSNcU7lSt+EwhmwzmvThRswAVCMKZsc/fn20orqtoa+HAWQhO+ERig6cu41hAJ4KH/ZtUAt1NZibB4RvdpkCrsAA7ocA1wwlTHLvtrneuQas845PWoDCwnxg7AZ67aa0x9M3jFH1uWSJz57h/8LW8nKUR3ts+b/E/1uD8/1KUK1sOfIz1B8JbFj2mUJOj8FWtOskjs0LkYcQ+s4pU+P7hjEKN6aLCNkjveeKaNecIyk9/0mes1S7ex9huLFwdbklSBoxNxez1AAsjP87dYb5aXWBra7Pz6DqUdMCONRy5wcA/oicUrWEiIiIiCh9MLhKDv1XfC0CndPL/6MIdCpTzcXo1imL/jdRrj/k/J+J+j1GNhrT1vWRrHqA9wfPTQPgxgt/J+/vP2J+lPykqfM3eMH0Gv8jXlyU9ItMyA/+fi1ecJtHp2ry8KxbDkQbD1Nu2LRWh4/E9OC81wLY1RnArs5kpk0LZcewpVPfjvaIlVMxKjGidvRrNZ+i2fNZbgD5qFD2ac4TmmpHscN7AFdCWoDV5/PB51Om8IvRra7F20S5/tiGBRPzsU2JwmblvFpyiTqXvfeqeVsx87XG1tvbZ0oNkF1SgMyxHviVgF8q95lSKbpOsl/IAuDGorrUvU+plNLzn6JzlnJDX+IX+89jQEznP/XWKpx6axnWS1WKp2dEpvtr5eJhytNKREREREROMbhKCZACnf90GQ/gNufyFKNbH0j5Vk0PSzAwQUff1fKpAphepOV6/eM398SCTTb7S9GIVCuRfzZ0GV+pOVDHW/E65C5yY+SMsgAZEBkhDFNeXOlht5hWWpLySTZq03aTykupL15jyt9ql4vRATHCTU4TYOfOsF2uT/0RZcGhlOhGwwaRb/W9KwjDhQVbpQCrGN0alvKtmh7bx+VCSSltsaGQlMvTyI2ZKH3xI3NOTS2fqMFZWgBATyOhTy/XUgKoo5yd7XMSpPA60UZoK++R9IiXnmA8pfT8p/CcjY9BbNfzrfoHtTQAUoC1a2QMQEjKt2p+yAtmERERERFRfAyuEoBp+KGam9TzI0xBCN8GlOd1Xa34byLAaky9jzL9fzxFm/4/nmpexnQAI90THazU0wGciRI0jjL9/5F8H8NjgDvrT2rBxPCvwUERYNWnFBtlsQOe2nThEC6dSGZatKoPIw7yKSY8/X/DPm0E6RFl8amoilA8J87YsnMNWCcCrEaO1CjT/x9VST1afT74bBbFcurOsJJ3F3pOTvkJLS0D+s86ClDHfh9EPlSbkaVmDtMCAADq4L8Q0j4fZcuRn6FOjXe6zxSyvT5EHlZJYteJuA6y1ItRUKb/R+PsPXfG9r0WeVgNCZ5/23NnSOycjacczM1Vn1NcPy8CrBmYqTdeUab/p6Pa5/8I4AcY7FRLiIiIiIjSB4OrT7k//kM3RqAudvQ3eKE8D5Bzeta8ib9UFqT6wU//UgnAikWo8sotdRP3N3jhsDY6VaYt2CQFNsVCUtPLlRQF4ynwBy3/7MvGOfuLfxj/tADR0wEY/r+Oy3jgXogXoy4AliixoMish3hHLRoPm/2W1bb1QMaIZZFzEeiJslCUFnSRF6sRK5QnNXVXLJ6UsRS16qrnzceMgOuhNlwac2NRnb6CfWw1BeJXAfccFMvT+AEjIDqnWARei1B/xGYa/4Z9aFUWpCpaMgcuhHF/QH+mGw1dASCv0lL3kcyaKqYR2yyK5ZC2IFQ+lunve9kxbHktC6OmleO19xqzFxrndbM/+nRzEeRb9Lr8XulEbkxpGr82xfsRpojrryOjAGWvFyDTEgQen33GVocb/ebro7C5HosQMo32Tew6Ea9DXpxKJvLP5r0We6S5s/fcITFq2HivG7G2bikwJs8kSPT8T2Tb4tBQCN8AmPXjHPFEDpreWmZZVKp4eTma5pqfW//jHABjuK0PpR76Ep/dAmaVxcjLmhbEgopj34el+SciIiIiSiPfy83N/bP6ZCxVVVXo7u7GyEg6rNxg8Hg8uHPnDh4+fKgWTbp0PjaNmOYuPfPg0v+pLGwE/ODv9ygBxCD6/9ZmenrxOvylJedpCF//k74yvdhf8EzsVAG227Hfp/XYAIQu46vIVHhn+/yLf4ien3TkjJRmoOZNzC83Kj649H/iFtbixUX3Isdne0yCfH4d7dP2XAim1wnb9xOm4/8xph/+3/AC1P8XRWkY1341guFTuXjlA7VQn66tPqsJntSnAjdibWc1Mi804OBOY0SfNlV3GB2lxkrf+vRdQ5+p3Ezbrnz6jH1atxU86cGNwgAqpvegRawcbncM0Y43Mh048kQIlxqt0/1tz0l/G/aYVrsXI1crPEDoCg5saFAWmwKAGuzzVUIfmB2+eADrvlkJXwXQ7t0B/eNYVNeKbYvlEa0BU3lEST1aty5Q8iqGceW9dWg4B2N/wXaHqQKMgG/44gGsa7S+Akc2+6W8tNr7jeYAKiCfM+W9HutByyHg9bqlGJXe8wjTNqF8jjZixaf10kjJPnSUXkaB3XvumLFN+TNoV66x26f182yQjt/yOZSMGZ9tdZ+jFxpw8NxybKkrQJ/0uXVynRjU1yG2a7mulbbPdFzq+xPtPXfIdD60a7K35CpqX7oR9VzYn3+Z9b1ItG3RbMShKi+yv/oHVP3u88izScl+GR9LeVEH/J/g9PRyvDk7iHcPfwn9t9D13lVYKY9oDV0zleuKl5fjzUL1e1OqO3cZTpXlYMA/DqkC/od/gv+vsvF/f/Ya6v+7WijE+e4hIiIiIkoXDK5OgHQ+NiIn3nn/FqpnZaLt5xl4Wy2kp5oe2A10eLHjiFpK9LRLYXD1SeIguPrO+7dQ/aPpaKh2oUUtJCIiIiJKI0wLQERxve2bjhBGUf3+t2oRPc1K6lG72AUE2xlYJaLUeWMM1bOAvn9mYJWIiIiI0h+Dq0QUX6cL805lArOGcG33d2opPXWKUH/EB9/WBcDFAw5TCBAROVAaxrWqUYS+mMl0AERERET0WGBagAmQzsdGlIja3XdR/+IUTtMkovETK6eszC6PcdrR0gKYsv/+6wps/n+lJ54W/+Y/4NQri/EXkSfCtmkB3nn/FqqRjbxfPmsuICIiIiJKUwyuToB0PjYiIiIiIiIiIiJKDtMCEBERERERERERESWBwdUJEAgEOGqViIiIiIiIiIjoCcPgKhEREREREREREVESGFwlIiIiIiIiIiIiSgKDq0RERERERERERERJ+F5ubu6f1SdjqaqqQnd3N0ZGRtSiSeXxeHDnzp30z21adgxb6pYiE33oKC1Dr1pOT58N++Cr8Bh/B9vh3X5UrjHJilB/ZBsWuIFAhxc7jqjlk0w9fwig3bsD6XQG08JmP3a9lm/83d+GPZvq5BqSjVjxaT0WZQDBkx58dEgttyHatlGn9SdQYXMAFdN70PLqGgyphYna7Meu17JwqXE+zvrVQrL6Fp/9egg4lYtXPlDLgPXeVViZCwz4P8H262rpYy77ZXy8eh5c+t+ha3j38JfoMteaVPr5D/eewS8+D6nFk0s9fwjh8vEz2PvIF3EU+v4m8n3S2+WxFLVP9NirafKhMs/4O+36XSX1aN26AK407Wup52/c+tRvjCFYBbT9PANvq2VERPRU4sjVJ13ZMWzpDGDtZrWA0saRHfB6vfB6D+BKnHvbmiYffEfqUaQWJKGorhU+3z7UqAWPExFYDV88IM6hF9407OynhUNl2FPqwZ7SBlwaUwsnX2FzALs+PYZsteCJ0oi1nQFs2btRLXhM1GCfz4fWOqct0Hc43jaE/LHpaLMJrD7xhr7EL/Z/gqr9n+D0LbXQrHh5OU69tQzr1YJkZL+Mj99ahaa5asFjRA903jqPKnEOq/aPY2D1KZG99yp2dfpRqBZQ2ji6XfRl3ruCsFpokmh7HFsq+5eTRQushnHlPb0/6B2fwCoAfPAX6BkbRXVbGLVqGRERPZUYXJ1o/jU4WOrBHo5apcdGNxo2aJ3UtBo9AaCmwAMggM7GbrWIHslhnH3Vgz2l6TcKlR4f77x/G0szMtFW7UKLWigM3AsBCOH+XbWEJsKHPi1wmW6jVotfzIMLIVz+zaBaNH6GQvgGAO6HJmbUKqQfvThqlR4X5xqwLi1/yK7B3DwAwU40nFPLxsMzWF2djb6MEdS//61aSERETyEGV4no8Ra6jwH1OSKaXKVhrJgF9J3ilElK1hhuM+JIRAkI353IHuGzeOVUJjBrCJ+9oZYREdHThjlXJ0ok16pgm1+rEWs7q4GTHvhfuIraJW7xvH1+1sLmACpmG3+PXmjAwZ2HbctUah5FS30lH2P23quofekGWl4dRFlnNfR0RvI+Zdl75eO3r+ekjnNGXlBNGFfeW2f59VrNxRS+eADrpFGPNU0+VKId3vaZIqeUxi7nVVFdK7YtNrLBqXmdtPJhJSdVDfb5KpGl7FcjXsM9JT9UJL9VFKErOLChAZGtWerL50Lbv5yh1EzOoeXsnAJ2+1RzcWn7RYcXp5+Tz5taLzE1TT5UTlNev0J9n9T3XJPAa50g2jVpd+1r7USefI2q7QtCMXKCinyqI3Y5V41cq5pY2xHHoTybUNtiOW6FpZ1U92l3fqxtC2C3LYdsj1E9L+p5M7dntscjUdu+mOcsUZacxDrztRfrOlHLVHbX1Dvv30L1j6ajIcaoVaeKl5fjzULj/NnlB1Xr4NZ5VPmMUY/Fy8vx5uwg3j0cwsq3lmGWeN5uW9Zcn4M4vf88PlTKv1HyxK73rsLKqfb5Ou3LctAkHYuVsl+4sXNjORZKL1M+fj1/ajRyXlu1bvSct+oxWvOerveuwkqcR9Vv3KbzFn2b8Wnv55jy+hVzl+FUWY7xt/Ke69TPhu17PtGc5MAuO4YtdQXoa5yPodelNsG2LVPbRrmNUstUajsauz2D3kahDXtO5JjaR7X916jbU9tPp3USofZ17Poaah31ez+xfouj/qXaXxF9p2GbPma0soTbY8t3gHT8lr6bQu5fqnXVvqfEcoxq3tOSerRunYOb763D7UrpvMXYZnyx+tc6p3099bNh/55rvsPxtttYitR83xER0eOLwdVJEH1xFakDHOloiw4nzPXtAi+FzVeRfULpjDpYZCZ771WUfT3fKNeDCVJn3wgOSB1ecXNg7kzrHWRzxzh7rx+F58oif1uOX+wTyQRY9Q6fqVNWhPqmYnRt1/8WHSW7jqLU6TM6x0ZHSuskwtQBi/bcym/WRTrBKQuuSmw75yY12HdkJk5L5UYOKnMH0v74otiwD76KLMs2IHWi5QC0dZ9SRzVyvsXrRazXY2XptCvkGwvtOKw3EjCdf3Fs0ufA7v2dcLbXl92CSo1Y+2kO/Jb2IdrNaazgqsSyH4nd9WrT1jhpW3TR20XBZp+WdiTWc7G2HY3de2BzXixtr/h/akBCb+MzLc8bEjlncYmbauPatGkHHV8nxv+3b79k2iJWWV/MxLzdz6iFCdCDieaAXvHyZSj+6rz4W68jByJFQFBamMgIsEnbEsE5UxBQBE4hB+CyX8bHPwvhF3rgLmXBVYOTYOJ6bzlm/kYKbIrjtwQLoxyfrVh1bbavn0f7QK3xHmj1YAnExqQGS1VS8NS6ffGeKwFW7dikz4bd+zupYrTH0g87Rlti8+NatOeU7wVE+nLDtj9K6Zy0Z8YPQEZbq20b5u8M/TWYAsIbsaJ5OXo36X9bj992W07pwURTQK8G+5qAHfrfUr529UckS3uJ+P0WSxsKoKapFTPbjT6Ebf8tSgA1bhngrD0uqUdr5W2si5wHPbhoDRbaHl8U0evabd/me0cK1BrvgbUvFp8aLFXZ9EPj9fVsvv/s3l9Z7e67qP8p0POPM7C6Uy0lIqKnBdMCpKOxHrREOsiH0fvbEJCRhecjFTYiezqA/sumznHvpiQ6oQCGdko38tDywp7vBzB7oWXRg+BJaR+HLiMIIPMFaXGWzdWWwCoADO00AqsoO4Zls4HgSalz71+DExdCyFxSbdlnPDWVamAVWp7QSGAVKKorhQcBtMt1zjWg5WIYyCtFfUnkP4rOmNGB6r5wE2G4MFUaXjRrhgsI3USXFHjrbjQCq5PnKHYond2j7VcQhgtzlozHMgU1WLnYhfDFA6bXfnR7OwJwYUGlslxW6AoORDrN3ei6GQbcU2OM3LLqblwXWaigPSi2GVnMymvcZJTUozQPCHRInWHxnrsWr4ws5BX5bEid+e7GFlwJ2Rx/HH/97/8Lzpw5E+XxX7D7f1b/Rwzi+sorbDQ9XViYD4zdQG/k+qrDR8oNdO+JHozCjfyS8Vk4qfB17Wb5RJQAoS6RtiUeu332bmpDEPlYpi8QZde2JG0jVpTlA/1tUX+Y0lna3kNtuDQGZL60POEFulJ5zmoKPEDoCk5Hrs2jOH0xDLjnoFhv8xxeJwl54yHyMQU3uh8lsApg7jxLYBUAuj7XA6tyHTkoOYjt/kHAPQ8rlUWdBvzStq7fwgCA56ZLd+YzpsKFEH73lRR4G/rSCKxOog99SqDy+jVcDgGu2Tkolp5ODTd2/lUOcOu8KQjZ9Xk3LoeAWX/1srJP83vQ9VUQYbgxdYapUmzXjcWr3u0NiWCtvpjVJ1LQNAcrC90I93ZL50O857nzsFO/6LJfxiu5wIBf+mwMfYnm3hBchfNSs3jYROhvk36MqcONfgDTc4y2pSwHmQCCvXJw1vq94JTz9iyES41GWzt07gZG4cZ0aUCu3m6bf9g6jLORwCqQvXcF8tCHDim4PLTzIC6NubHodfP3X3xFqC9WA6vQ+kZygFHUkYOS2vc+4ClWFnWK228pwsxpAILXTYG3o9sn8cdZ3bkGKbAKrW/cFQDgwdwN0tOpsmElFrjNfWjgKHZ0BAD3AqxU92l6D47iehDAtJkJLKplrAng9bYjIIK1xgKn8gAIZ309/Z6iRfpsaH1aD0qjLB7W0j0FITxAlvTZJyKipw+Dq2lo9Lefx+kQH8bQCIDZ1djVnGjH05k7w3YjOvpwI06QwRr4scouKUCmzbaGvh4GkIXsMvPzsWkJ7MM3u2L80l6E4jku29ycdoFTNWhqZ+BuGHAvwLbHYWXVc7cxrD6XKhvmwgNg+Bv17Nt3kmO/T6lVtGQOXAjguhLw7v5G+5zNLIHx2VBuioBu3L5nPf54/uU//C3Ky8ujPP4Wu/9Z/R+x1MF/IaQE1RpRMNtBG+EfxKj6XMo4PIYo7NuWeKLtsw8jY0CmuKOJ1rYkpWw58jPUgIVToo1OkeTOmbjhtzWM2/oNp6PrJDG1z/8RwA8w+IgjeNb/OAcIBdEV44O2/sc59rk57QKnGMR1dXSm6u59hOHGwtXlRpAubYVw+776XIpk5+AnbiB8b0wpCKGrP2T9USzO+5RSc3MxSw2Aw3jv9ICutiiW9T3vGhkDkIGZaf/+auK2QaK9z3stgLWb1cJUiNKexenrRW+3ZRtR+JLbMlggsk85iOxESTHmuIHADbvxhYKoY83NaRc4ddJvEf2FvEr4mpL6OWpiDdxHWH0uRbRFRo3vl4gj1xEAkPWcuUcV831KKad9vWj3FAO4HwJcM6IMBej8PoYBZD3/nVpCRERPEQZXH1O9mzxouRDSAqydAezqDGCLPnorYY1YK7ahP2LlB4xOjKgdGYzRkQaez3IDyEeFsk9T/jGnSmYiyza4Z+Pe7agdZLXDF0934zp4xS/x23w++Hy+tOlUF9W1ascTecTKsZoKYdxX71F06g34BJo1wwXAg0rTufApucdmYapb3BQp9eTcaZNFGwmUjwL9hnnzQuShD+dt8hebrqWY+fUmUoraFjEyK3NJvfI6zXkBJ03ZMWxRXmesnNexpeic6SOUTKOFtJHm8g2ms+tkMrgxc6rDldttfjjTuaYl+AEZ+hK/2H8eA3Bj4epVOPXWKpx6a1l6jHLMfhkfv6Ufk/aIlWM1Fb4ZiRbYn7zgZPH0DMD0/oiHKU8uMGuaWxvlqpyzmKkHHkt1+Ki0AZfGtACr1m5cxYqEfqiWpKo9E+326NexZjjkY3qGGCyQin3OmgpXrD6JJHq/MfEflY5u9+LAxbCpL9EaZZTjRKtpUtr2WDlWUyFWexwtODnuHPb1xD2Fa/E2pV6s1ANEREQaBlcfY0M752NPqQd7RKc6c0l9EgFWketqrActpR6xPRG4TZizkQbaKKw+dEj7Mx4JpjYQozITDY6qoneyYziywzw9PQ1GLcg5w4xpUdpUqUkRo5M93gbuhkXuXPlcqFPFtNEICLbb1PHCa8knFltK0wIAgP9z9I0ZqQEKC/MtI3z0fMjBk/J11IagVGdypLBtESOzRi802LQZHmuuwokk50SVjqmjX63oRArPGYCi57IAAJ4K/QbRms/O2XUyGcSozKnuR5rybh156cQgtutT0f2DIkA3yQFWfZGtW8bU+ar9n+D0LbXiRLEZLTxBtJGnIVw+LqUMkB56LtiBezapBSKPBHLBPhYO4+yros1o1NLCLKpLIsCayvZMtNum1FEW2uwDKPuLPBJNbTBw3zobKWE2Iy8dMFIWHcCVkBagm+wAq5H/XmrX37sybiNX47GOFp4oDvt64p7CnFpAejjOBUtERE8jBlefCIdx9lURYFUT/sTr3G5eiDwAQX+CHdgo7gyHgIwCFMbo0Cc8/b+kHq0+H3y+fTb5/8RUnTnFMaZvi6leeXMt/z/alNhEHd0uAqzxppGLafTJ0tIRRBsNqqc/kHMsRvco034jjlxHwDafa7SpVRPH2etTp4Q9mtSmBYB2bfv7RGoAbYqleYqomFI51gN/KqbCO2Keiq8rfN1YMRpIvG3R2g45t7TMfp8q27ZF5GFNmG3bKfKwSrRUBCFcOuEkwBvndSR4zrTFPLTA6T41l52UDznWzaGz60QXZ2qk0HLnBwD+iJxStSQxA/dCgDsPxTF+rfvw94P2daJNHU/U9fMiwBpvpGYO5j7CKNJ4U9W1Ke4hXP6Ng9yvQyF8Y0mJkKChQfwuBMz6sTrK043i2W7g1q2oC2+NO2X6fzTxzmmy9JGAkx04i8q/BgdFgFXOf4pobaQksfYsHtHeWXK1ypz9KG+yYZ/2Y5FdWiYRHPMUqL09ybku3AzZ1Yk2dTxR3WjYIAKscdpKrQ+arHjtsdYPQ7DT0Y9ksfuXzhy9ETDn9NZtmAsPwrh5YdJ6hA77evHOaRSlf9Jm0d15xDzjRET0WGNw9bHUiLWfHjN3REV+wNHhPvlZo3MbbaGovmEtV5e0aE5hc7LTUIGhnWcRhBuL6vym/WXv9RsjKA61aQsVKHWiMTqfdgn4jamv20yjRotQ32R0vLsbOxGAB5VynZJ61C52IXzxdIId6SLUH1EDvaITK6Ue0IIW0jHrK9g+An2b9kn1RedRWaymNVpaADHCI9FFm8y0BXJci2tNi4LVNFXCgwA6o61gOxGOnNYWKtiqvldmR9uvIGz5/KSRQ5cRRD4KmhcizxJEFTem8g8aZcewZVzTAohF9maviFzT2XuvomJ6yJznNcG2RbvplxanMtGDzNWxR+cfuqy1P5FFUBqxtm4pMJZMgE1bOEZuOwub67EI5tepHbe8eNhGrPg02pRWPV+2ce5MEjxneu5A2AYTHN4kOrxONHpuQXURQMUHP0QfHqCg6NHyz3V9fk1MzzePGi1evszIh3r9Gi6H3FhYIS+wlIOmshzg1rWERycWLy9Hk7IIliWvqwheGoFHsVK99H8Spud6/ZkazNRogUI3fvKi/llwY+fGaGkBxrT3/pEWbQph778OArnLTOejeHmRtoCYkyDveBn6Ep/dAmaVxcmLq382lM/PozFyGSe94FuqbfZb2kU9SDpi6RIOa6NaoywUlVh7Fo9otzOWota0PsBGrGg2+rC9J3owaqkTnZbXU+nrRIhF+/IqleB3DfZFvuNFvzGv0vSjVFFdrbYYU3tiPUKgBvvUQK9NXlcteGkcsz7TKHnx2mMxWlMeWLBhX9S0ALH7lw7p3yfr5fNRg30VHsdB3vHirK9nfDYS+fGktugB3JgCyy0YERE9Vb6Xm5v7Z/XJWKqqqtDd3Y2REbvs9pPH4/Hgzp07ePjwoVqUFvSpu3ZGLzSIlWC1KaGZkb812v8dRkeptAK2PnUrUgsInvREWdVaTDWVnjHV3ew35TsdvdCAE9hi2qftMUQ5Xq0zbs6FaLxGQ2GzTYe9v806xbekHq1bF8CFANq98gqkkkgdXRhX3lOntNZgnxJoDHR4Tavc1zT5UDntCg7I08HFtodNda3bCl88YFp5FpbOcwDt3tOYeWQb5tw06mrTtkz/LUI9Pli2KVayjRxvEeqPyLmhAmj3XsdcXyWybI7PGvCVzrHlnEpM+4x3TIicL/UYtP83HP19jcP2/VLYnl/LSsLW9xNRzv9k0K8Vu+vIer31oaP0MgqUa9P2ehMi7YFNuxKhrPhs2l5/G/ZsAtZ2VgMJti0ySzuprjJte3whXGqU0omY6mhlvSVXUfvSDWXFaifM53b0QgMOnluOLXUF6JP2qR538KQHNwoDqJiurpINyzahto8JnTPjerf9rEa9hq3to7PrBDZtjH3b9877t1D9o+loqHahxVSSKDd2bizHQnl/vWdMK9g7qVO8vBxvFo7h9H5p5XgRFH1OqbveqwQtQ9fw7uEvzblf9Wn64s8B/yc4Pb0cb84ORupq+7T/3lePDwAwd5mSD3TQdLzq9gb8n+D6j1dh5VSb47MJ+A749Snz1jKDeZ/xjgn6+VKPQZyfbyL7TIz9+2Wmng/A/r2yvJ8AcOs8qnxJBogj35sx+iRxJNIejyp9u8Jma9uitkHa94DaXghKG6PWVbdl157ZHUO047W220qbDdj2U6H2VXX6+bf0MySx+ja6uHUS6LfYtLV2bbKpnQ1dwYENt7HSVwlE6tr3RTTq8cFBe6xsL3QFBz4Eai19Wk2svpylTGLeZ7xjitavdtani87+/TKzP7+W98rm/bT73tR8h+Ntt7H0D9nI++WzaiERET1FGFwlIiJ60ug3h5YAqX7ja3ejnkKlYVz71QjwxUzM282pkvQkEQGaWME9Ino6vDGGYNUf0fOPM7C6Uy0kIqKnCdMCEBERPWlmTYULQOCGGj4VU0nHW6cLZwcA90/v4fgj5l4lSida2pswrnzIwCrR0+1bfFY1Cgy4GVglIiIGV4mIiJ44A/cRtsvFumGfNi31kRdtie/tX85Ez9gDLP3VGN5RC4keN2Ihpcq8ANq9dtODiejp8R2Otw0hf2w6GpgOgIiImBaAiNKDfR4sC07DpEdin9fPQs31+riyzRtnk19uXH2Lz349BJzKxSsfqGX0NLDNeWoRwuXjZxJegIyInkBRvrssLGlvJtAbYwhWAW0/z8DbahkRET2VGFwlIiIiIiIiIiIiSgLTAhARERERERERERElgcFVIiIiIiIiIiIioiQwuEpERERERERERESUBAZXiYiIiIiIiIiIiJLA4CoRERERERERERFREhhcJSIiIiIiIiIiIkoCg6sTrewYtnQGsKvTj0K1jJ5uG/bB5/PBd6QeRWoZjZ/INSkenx5DtlpHUtis1duyd6NaFMVGrPg0gF3NjWrB5Nvsx67Oq1hRphYkQZzHtZvVArL3HY633cK13d+pBQCA4uXlOPXWKny83K0WPUHc2LlxFU69tQpNc9Wyx8N670Qfv2hPeK2RqqQerT4ffL59qFHL0tw7799C8P1v1aeJiIiIHhsMrj7pGPAgis2/BgdLPdhT6kFHv1o4+bL3Xn0qfowpbI4f2E5nNU2J/TDyzvu3sTQjE2d3P6MWEaWRRqxN6MckosS97ZuO0KyhqD82EREREaU7BlcnWiSQU4ZetYyebkd2wOv1wruhAd1qGaWN3k1aIPbgzsNqEZEjtbvvonrWFPT8YwbeVguFrpExAMA3IyG16AkSwt7Dn6Bq/yfYfl0tezwM3AsBCOH+XbVkvBzG2Ve1NuijQ2oZPdXONWCd1wuvdweOqmXprtOFeacy4f7pbXz2hlpIRERElP4YXCUiIpow36L6pw8Q+mIaVneqZURET6kPMtA2AORXjeEdtYyIiIgozX0vNzf3z+qTsVRVVaG7uxsjIyNq0aTyeDy4c+cOHj58qBalh7Jj2FK3FJn632M9aHl1DYZMlRqxtrMaOOmB/4WrqF2i59rrQ4fNSNfC5gAqZht/j15oiIymU8tUwZPmUS+W+v1t2LOpLvJn9t6rqH3pBlpeHURZZzXyxPPyPmXZe+Xjt6/npI5jG/bBV+Ex/g62w7vdGLtR0+RDZR4QvngA6xqNcaHq8zVNPlSiHd72mWjdugAuUS/Q4cWOI5H/pomzT608C1feW4fbldp+NAG0yyNL4m1HUlTXim2L9aOyvp6iulZsm3MTBzbcxkpfJfStqvVEbdQf2YYFkbcgjCvvrUPDOaVWnH1OuM1+7Hot3/IZRuRzLF8vG7Hi03osyjDqxPqcFTYHUDHd7tq0XiN2+9epdQHrNaW/DoN83FpbEPnIWKhtgvo6Q7jUOB9n/ZEKGrUdAqLXjcv+GNXzYjkX8nmwPR6J2k7GPGcJKqk3XeMG9TqowT7pWjJdv1G3IYSu4IAyEr12913U//QHaPt59FGrThUvL8ebhUYbGu49g198Lka6Zr+Mj1fPgwuDOL3/PD7UK1mez0HTW8sA/yc4PV3envL/AJEjtRwLI7sM4fLxM9gbeYNE+f3zqPqNW+xHYzq2uNuRacc3K/K3elyJHD+AuctwqizH+PvWeVT5BuUaDvY5GZxd44XNAVSgDXtO5JiuLfW6hM13sHxtWsoUlnY03rVZdgxb6grQ1zgfQ69LbYJ6jevU7antJxzWcSzGdS5/Dyrfz+rziX0Hx96nXp518QDWfbPS1E8w9UnUdsim3YmI198oqUfr1jm4qfZbomzTUf8g3j5lpWFc+9UI8MVMzGPKFCIiInqMcOTqREkgr2PeawHUZp3FnlIP9pQ24NJYPiqUXIRGEEnb5p5SD85nbYksTKNPXd7T2INRcWOl11OnE2bvvYqCXqm8sQejs6utC/BkLEVt5wqMNIp6J/uQuaReyeeqLbZRuwS4pNcr9eAEqk2L5hQ2B1C7ZNg4/sYeYEl9UnndiupaRRDTq02r97YjkFcJX5OxpMPR7QdwJQS4Fq80FnrYsM824Iq8Svi2zsFNsb0DF8PwVLSivsSo4mSfGhcWbBUBW68XXu8BXAl5UCnnZtTTAXi1Y4ympsmHbYuH0e4V+3zvCrB4G1rrlCyP7gXY5ivFff3YOgJwLd6GfRukOiX1aPVtwwJcwQF9e94WoNKcM9LxPifSocsIAsgrVBeIakTBbGD0Qlvkhr6weQtwSPpsi89sMp8z9Zqyp33+K6b3oCVyvTXgkjbD21B2DFsKL0vXpLjOI7lV6/CRKGu5EBKBCul1mAKKjVjbWY9FI22R8pYLwKI6ZaGqzX7sqluKUbktONknVUhA2TFs6axG5oUGY1s25yVu26K2i2PyefNgjxx0iXvOEiCCEbh4QLn2Amj3SoHVknq0iuCGVs+L9qAHlfqCMZFpuF60B0UAInI92aX4+A7LX3wADPzwkQOr672r8GbhGE7v16bVVx2/BhSWGwtgDX2JX/gHAeTglciiWG7srLAJuAKYVbYKb84O4t39n6Bq/xlcDuVg5caXURypkYOmt0TgVOzz3V5g4epy7FQT5eYuw6nVefjdcXFs/kG4CsulRZ+MdABVfjWwKcl+GR+/tQzP9Z6J7PP0rRysfGsZ1itVZ5WtwpvTrol6dscvFp8qy8GAX+x7/yeo+n2ueTGqBPY5sYx0AHGv29nV2FWXhfOR9iCEvNfM7YEWPDV/T7cMr4h8nw/tnC+eb0NQBFONa09Ji+L42nRjUV0Ay4b1bbUhmLEUtUpfo7A5EPkBLbLN3oWmvkb23qvY9VqWdPxtCNr1W5yId50D6G5cp13jeaVGX6CkHrU2AVftO7gS6Ij3HRx7nzrX4m3wVSDyPWzpk6jtUBSJ9ltK7+rH1o6AewG2meoVof6ID9sWQ9qeFy1YmWRfSej8IW6MAe4XH6JWLSMiIiJKYwyupqOxHrRERl8cRu9vQ0BGFp6PVNiI7OkA+i+bRmz1brKOYnFiaOd884gW/xqc7wcwe6ElaBE8Ke1DBLkyX5ACVZursSjDOqJmaGeZ8XfZMSybDQRPSgEi/xqcuBBC5pJqyz5jq8HKxS6EL7ZII82OYkdHwHwThG40bGhHAB5UNtVoI0IqPECw3TrKQhm51t3YiQBcmLNEDyg63acmfPGAdOPVja6bYcA9VRoV5UBJPUrzgECHNKrlXANaLobNAWMh0CEFiI5cRwBA1nNGQLSmcgFclpEo3WjYLv2d4D5jqn0PZ86cifp4L6G7qDrcsPt8bl6IPITQd8646bdcE4facGkMyHxp+fgsnKR//g/ZjMSS+dfgoGmE1WGc9fcByEdBgovPZe9dgTz0oUPa3tDOg7g05sai1/VAw0asKMsH+tsso9eSUfj6UmSO9eBElBHAukTalrhSeM6KlsyBCwF0Rq79bjR0BQB4MFcKgOjXSYvURhzdrrUjpcn8wFD6EAUZQN/VZ9WSxGS/jFdygQG/FCAd+hLNvSG4CucZQcDr5/FubwiuwiLszAaKlxdhoTuEy8dtRmGGruHdw1+iS/sDe/91EHDnoVhcKMXL52EWBnFaGuXZ9Xk3LofcWPgzaSQoIEZ6SiNRr9/CAIDnpkcfCWln/c/mwRW6hubIiFfgQ995DJgCxkLoGt6NHFsIXf0hczsbOWdKftfr501/J7TPtBXCpUbj+3Xo3A2Mwo3p0iDP57PcwNgN9Jq+p5Xr1alErs3+NikwK9ry6TlGexzpHygjbQ+VSX83omyJG6MXDkrtex0+OtkHzF5h/lHJAafXufYjrQsL1tejCEWoXy++R21GYZpGlh45jSshwFNgfGs63Seg/2hjfA93X7iJMFyYmlAnIrF+i7lvdBTXgwCmzTR+fN2wEgvc6ih/oLtxh2nUf0L7BAA8g8+/mgJk/AnyOGgiIiKidMfgahoa/e3nsQMzOIyhETE6JZlRGg7cGbYbQtmHG3FuvAoL8y03bKrskgJk2mxr6OthAFnITuTGaMNceBDGzQtKgHTgvs3Nh96pr4TPVwkPAmi3uSlC6Ca6TFPjB3A/BLhmiI0ltE9g+Btzve7GdQkvOKEHg64rqQm6v9HO2UzTTYq1nlkN5uYB4Ztdlil+ssT2GUfLVpSXl0d9bG1R/0NsvSd6MKrcuDv57EWunXHi7Bii6Bu2jPyMbyMKX3JbfmiJvE49aFG2HPkZQLA32SmzMjFCOG47Zc++bUlSUucMmDUj2kT+MO4P6P+Odp0o7UEi8v8EN6ZgOM7Aw3iKX8yDC4O4riwCpS2ClYGZ0i8HkQDo6lV4s9CNcG+37fT7cP+gCKwKd+8jDDemzgAAN4pnu4Fbt5SgbAi37wOY6jaNEEXoPiKnEQAwiO37P5HSAjiRg7m5NseFMe38T5NyfdgdvyLaOTNLbJ9py0EbdGc4pM1GUWbFpEyUazNeGxStf2Bi80MaoO/THESOL5HrvBsNH15B2L0A23zbtODih+rodNh8B3fj9j05OJnIPgHcu22uJ0aqWlIVxZJgvyVwI3YPpabAY9NXUiS4T13LnR8A+CNyStUSIiIiovTF4OpjqneTmC48uxq7OgPY1RlIaqqzphFrxTb0R6xca9GJEbUjgzGDLs9nuQHko0LZpzlfmzNFz2VFprD5fNIjWh7EIzsi0+ZMIzITkPA+U0ALBnlQKe/P5zPnMXOqZCaybIK+qpTuM9X8n6NvTE4NoAX8gn5lxGjZMWxRPmeWXKiTpLBZ+fzHyj0aVT6mZ4gfWtLydaaqbdGk5pwBR9uvIGwaIVaE+mIlWCCuE9fibebPv0/OUzw5Zk1zA8jByrdW4ZT8kHOJRoSwt+MawtBGd8ojMp3LwFS3mO6v7HNlrlo3RbLdeA6Aq7Bc2aecq9W5WdPcNkFfRYr3mc6Gds7X0gtkLEWtfj09wo+1qbo2tRG1w7ijFkiyX8iKpBh45H0mep2L2RsAlBGZCUh0nymQ2n5LEWZOswn6KlK7TyIiIqL0xuDqY8zIiabldEwul6RYlEbJdajleUyUMlouCm3kmppDUn8kltpAG0UZNuX8kh/qyI6iulZU5oURCFrzqDqV6D5TYeBuWOSDtO7PK+eIdOLcbQwraQLspHSfKU0LACNdhj69fPNC5KmjnfTFkvqNXKR7HOQ8nghazuSQKd+hXc7S+PowMiYWcrFcS0rO0gmXyrYllecMwKypcJmCGyL/sJwmQ1wnYSknoulhN+p9ggzcC4mp91Lu0MhDXRgqB02r58F1axAD7nl402sXgI1HG7mJW0a+VdMjkk4ghYZC+EYshGXZ3/5PbBahim3gnpImwE6K95n2DpWZ28UkZ8Ok8trURtTKaZCstFkuyv6kR0KpDRK9zjfsw7bFLgSCNnlUnUp0nymQ2n6LOhLXXmr3SURERJTeGFx9IhzG2VdFgDVLGf3pH8SomhdVtnkh8mAz4i9J2o1RAQpjTO1PePp/ST1afT74bBZ6iDe9zEQsPhG+2IId27U8qlrutDhKijHHLU2TS2SfKZLUVPyoxNTDOcUxX3tK95nitAAAMLTzLIIiNUBhYb5larw2vTSESydiT0NNJdvAwOZqaYVvREbZov+sox8SYl8vzn7QsG8HRB7WhGkBXbWtKXxdGTWWYNtie+4iEjtnEIux+Xw+m8XXxCjVoL7InHhYFp+KMkU3ioG7DnIp930fITyA2kwnym76fzTrvctErtTzON0bAnKXmRdwisI8jT7K9P9xldqp+No5y8HcmK89tfuMiPUdliZ6N4kAq6Utsb/eDYlfm7Fo7Z1NrlZZwtP/tcWXfD6fTTA0kevcyNW+Y7vIo1rh5D1V0wAkss8USXG/RWvv5qA4Vv8gyX3WPv9HAD/AYKdaQkRERJS+GFx9LDVirZonTeRUHLUk8xM3RtEWihJ50eSV1wubk5+6qwW83FhUZ14lOHuv31hk4lCbttiOUicaLfcnLIvNANoUvc4gHIxCrcG+rfICEiL/qnsBai3BF5mxaMVpfZSF432m0JHT2kIaW53cyMUjFu+xW/23SQo2p3Sf40FbDCWv0I+C2dYgqnaT7kZ+iR5Q3IgVn47vdHlt4Zh8LNNHkJcdw5bXsjA6JtcSo03lRZ02+6NPaRWBBGNxKrPeEz0YtVlx20w7V3I7UNhcj0UIJTG6TB81bCwck733KiqmK9tKsG3RgyqRc2eS4DkTwQzA7kcEZ6OuItdJXqVNgNZK+zHCZjEamVgJO3/+t2pJYq5fg5ZHNfYK9sXLy7FSWvhKy78KzCqL/f+Q/TI2FboR7r0WybH64W+uIZz0yNdkiEW1cpfh41QsJHX9mnjt5dgpf3nOlYPNKd6nToyUjvv5mDAbseJT9ftXBEktaX30HO/RFopK9NqMQyw6mPfaVfP+NvuxVg+4ioXxLHWiET+QAuZFpTROr/Mi1B+Rc7WL/KuRRTKjq2nS/p9lAb24+0yhFPdb9IU+1f5BUd0+Y/tJ7fM7LH/xATD2fai9WSIiIqJ09r3c3Nw/q0/GUlVVhe7uboyMjOOqMEnweDy4c+cOHj58qBalhey9V6MGFUYvNIjVc7VptJmRvzXa/x1GR6mx+m9kynOkls3quhFieq70jKnuZr8p3+nohQacwBbTPm2PIcrxajdu9abResZrNGhTCU1PadObTasOi1E/WxfAhQDaoywEVVTXim2LlSxeIX2abxHqj2i5zEwr+IrRbZV52vS8dY3dkb9Ngu220/Ri71ObPuir8Fj2qbLdp6D+X9u60vFpxzSsnKca7PNVIku8xojIedVZV/6Fg31OKv2zO9aDFpsp8Op1FzzpwY3CACqmG/XVOjL12lRPg6bPfF2YrietDM0BVED+bCvbG+tByyHg9bqlGLW7jpVr1LJPdXuCuU0wX5ejFxpw8NxybKkrQF9jYuk4oF6//W3YswlY21kNJNi2yCzvhel9Teycqde2Uop9vkrYZQ9WrznrdYKo14qlTZDbA6F2913U//QHaPt5Bt6Wnk/Geq9NztNb57Xp63OXaTlYQ9fwrjxtP/tlfLx6HlwYxOn95/EhctD01jLLiNsB/yfYbln8KV5dN3ZuLMdCKPtURY7BRtTjNVXC5eN6+gPtmJ7rPWNaMKt4eTneLBwTr9FgOWf6+ZLF3WeijO8g+8+jAzbf+RHSdVLYbG7fAOP/mq8Ta5th9z2tifed7uDatD2GKMerti+w7xtY2guobYYueh8gIs51Hq09iVzz4jvR0gbAvh0A4u8z0k7F+b613acQ9Xhl8vGJYxq263tMU1+HcV516v7gZJ+y0jCu/WoEw6dy8coHaiERERFR+mJwlUhifwNBRE8OEbCwubnXAij2gdPU+Raf/XoI+QPZyPvls2rhJLAPTlJq6QGmqME9eiLY/8BJTr3z/i1U/2g6GqpdSCJbEBEREdGkYVoAIiJ6eoiVuo38hwZtEbfx9izavpgCzBrCZ2+oZfREEvm+EWxnYJUomjfGUD0L6PtnBlaJiIjo8cPgKhERPT3ESt2WXKx6ACx0E13jNmpV07J7BtoGgPyquzheqpbSk0MspLR1AXDxQMyp3URPtdIwrlWNIvTFTKYDICIioscS0wIQSZgWgJ5WlhyHtkK4lER+1vRjn3PVLl/g+PkOx9tuo+CrmZi3+xm1cAIxLQBRqjAtQHLeef8WqpEuqVKIiIiIEsfgKhEREREREREREVESmBaAiIiIiIiIiIiIKAkMrhIRERERERERERElgcFVIiIiIiIiIiIioiQwuEpERERERERERESUBAZXiYiIiIiIiIiIiJLA4CoRERERERERERFREhhcnWhlx7ClM4BdnX4UqmX02Klp8sHn86G1rkgteoIUof6I9jr3bVDLnhY12PfEv8+pV9gcwK5O47F2s1pDthErPnVST7LZj12dV7GiTC2YbOK1NDeqBUkpbA5g16fHkK0WkL03xhD89RjeUZ8HAOSg6a1VOPXWMqxXiybZeu8qnHprFT5e7laLniBu7Nyovc6muWrZ02O9dxVObXwZxWrBBCheXj7hnzP9u2DL3o1qET1uSurR6vPB59uHGrXsCfJ09O9jK6prnYT3+Tscb7uFa7u/UwuIiNIeg6tPOhHMdRysoMkhOqsTGbycnE4TPU16N3mwp9SDPY09GFULJ10j1j4NN/uP+3dAom1jaRjXqkYR+uIv8LZa9rTIfhkfT3TwcjL2SRQFf5B6PNQ0+eA7Uo+JC1/yh/L09wxW/3Mm3D+9jc/eUMuIiNIbg6sTzb8GB0s92FNahl61jB47R7d74fV6sa6xWy16gnSjYYP2OnccUcuIUuUwzr6qBWM/OqSWETnxLT771QjcA9mYt/sZtVAYw/0QgNB9DKhFk+xD3yeo2v8JfvF5SC16goSw97D2OrdfV8toInSNjAEAvhmZuM+Z/kPbwZ2H1SJ63JxrwDqvF17vDhxVy54gT0f/Pk19kIGGL6Ygv+oujpeqhURE6YvBVSIiInrs1e4OIR+ZaPvls2oRERERPSZadk9Dz9gDLN0URq1aSESUpr6Xm5v7Z/XJWKqqqtDd3Y2RkRG1aFJ5PB7cuXMHDx8+VIvSQ9kxbKlbikz977EetLy6BkOmSo1Y21kNnPTA/8JV1C7R82H1ocNmpGthcwAVs42/Ry80REYFqGWq4Enz6DBL/f427NlUF/kze+9V1L50Ay2vDqKssxp54nl5n7LsvfLx29dzUie+ItQf2YYF99rhbZ+J1q0L4BIl4YsHLL84F9W1YttivYZ9HWzYB1+Fx/wcACCAdvFLfU2TD5X6SQAQ6Ig2qrMG+3yVMLYWxpX31qHhnChVtqMytqttJ+viAaz7ZqXp+Cz7Lqk3nQfzPtXjURmvMXJuI2+R+dhNLPuUt4PIftHhxenn5PdAredMTZMPlbC+56ZzIY5pWDk/NU0+VE67ggMbGtBdUo/WrXNw871OTN1aCY94jbcrxfsSEvWk89+C2rjHH+9zppUPo917GjPlcxzZ32TYiBWf1mMRbNom0X5BvkbVNg0hXGqcj7N+479FiLqjSrujEfvN0P+Ovx1jn7CtH6s9U9sdlbUd0tpl4zJ11h4D1nbUKdtjVL8zLOfCfB5sj0di/g5Q3wO78+Bc1HYt2A7vduNqiXWdRN2GYGn38C0++/UQsr6YGWPUanzFy8vxZuEYTu+/hpkby7Ewcm1ew7uHv0SXpa7xPoV7z1hHnWa/jI9Xz5PaRl0Il4+fwd4hLf/mylyjZMAffVSnWlfep1qmMrbrxs6N5Vh4/zyqfuM2HZ/lNViO3zhuJLPPyOkyb8csB01vLcOsyN9qXa0c/k9werr8Hgzi9P7z+DDy/5xZ712FlbCeC/P7oO3zOeX8GJ+X8/gw+2V8vDoPvzt+DVNXL8Mscdy3fybOkfQZWu9dhZVTr+HdDmBT1H3K+4jxOZu7DKfKMsz7ApI+H6mktkNq3xOJ9i8t7Z7UHlvKFAm2oYn2yZ19Vzip48CGffBVZJn7K0CUPona77Oro/b3DJF2We3nxeivqG27qe1Xt6OStptIX8nynSHt03I8iljfPdbvGoNaV+3rOeqrOlRU14ptc27iwIbbWCm9n7b71Pu4+pOm/rD2Xs+5eQCdM7ahMk9sI3JvYfT1jfN/HXNj7BOwuXdSvu8Tuo/RvTGGYNUo+k7l4pUP1EIiovTDkasTJZIOwIOOfrXQLO+1AGqzzmq5CksbcGksHxVK7iitw9qHDrHNPaUenM/aElnYRc11GDxp1FOn3WbvvYqCXqm8sQejs6uti7FkLEVt5wqMNIp6J/uQuaReyeWnLeRSuwS4pNcr9eAEqk2LzhQ2B1C7ZNg4/sYeYEl98vkP8yrh2zoHN9/TpvF4OwJwLd5mytNX0+QTnQRR570rwOJt5txLonMQ6BB1vO0IQHTkpM6oPl3I+94VhI3/rRAd2mC72JYXXm8npq438kup2zH2az8N37V4G3wViLyGAxfD8FS0or5Er1GDfeuBFmkb7UEXFmzV6xzFDun/ap1seZ9yh9tIB+DtCESeVRXVtcInOm3GPj2o9MnHpfFU+LBtRqeodwBXQh5UJptvK68Svq1T0Rn1XDg3Z30p7r93AFdCLsxZ36p1hjsCgHsOiuXtzanVOrcxjt/R5wwA4EGlT+vgauejHQH3AmxrmqwsuIfR+9sQkFGAQmWBqOySAmSiD+cjN7qNWLsZOCG1KR39biyqS2ZxKSMdwJ6TfWqhYbMfu0SANtJW2dSP154N7ZwvytoQFDfwkbrqtNWyY9jSWY1MqU5Hfz4qTAsSam1exfQetES204BL2szbhFnaRtvvjPjnP5HvgMLmLcAhqVy07cm0x9rNptSuiLYjfPGA6UYr3nWSaNuINx4iH1Nwozv5wKohByvfKsdP+s+gav8nqNp/HgPueXjTmxOpsd67SgTVtCnuVcevAYXl5kWCRGASvfp2zuByCCLoZQQL9XQAVcevxfg+0QOZg8Y+93+Cz6YVYafoHKjbGfAb9Wyn4ecuw6nVefjdcVHHPwhXYbmUNzUHTRVAs7SN07fcWLi6PIl9GukAqvyD+pNWc5fhlAhi6tt4txdYuNqaz3VW2Sq8Oe2aqHcGl0M5WJnsIlG5y3Bq9VR8FtlnCLPKjNeZiJ9UzMP942dwOeTGTyrKtcCtfxBw56HYtL08bJLOv90+HX3OAABuLFwtgsSpOB8porZDUTnpX0o/8kXaqsZhLNP7qmo/e0xukz3YY/rRMH4bqnPSJ9cWV6xGXn+b1M5eRoHcj3b0fZIIFxZsFcG7aH2Sknq0ioCWuX8m59sXgVVcEX0bvX+otbuRIFokHYAX7cHIf7bQAnLAFb0/7vXiwN1Soz+ubidk7Nfr9cJrCdjG7ysV1bVi7g1pG+9dQTivEj5Rp7txnfF/9e8jaZ9yoFD97rGn5W6tnCYdu/gO0/cZkcK+KtwLsM1Xivsx7nUcm1OL0rsHcOBiGK45tWitANq97QjAhTlLpP5qKAulYnBEtH0W1bWKYL9+TtsRkM6/LP59jOSDH6IPQP78b9USIqK0xOBqOhrrQUtktJMe8MjC85EKG5E9HUD/ZdOv3b2booz2imNo53zzSAL/GpzvBzB7oaXDFzwp7ePQZQQBZL4g3YBvrsaiDPXXf2BoZ5nxd9kxLJsNBE9Kv9b71+DEhRAyl1Rb9ulMAO1eaVTlkesIAMh6TnQQSupRmgcEOqTg4bkGtFwMw7V4ZaSTWVPgAUJXcDpy434Upy+GrUE2J0pmIgtA4Ib8y+1R7LB0HBOgBHm7L9xEGC5MjQzxsW7/aPsVhNXOUsrUYOViF8IXD5iCHUe3ax20BZVKxyp0BQciAZZudN0MA+6p0gilRIRx5b1Y58IpF1z3OiOfHZd7GO2RYzRvz4Wb0miAbjR0BQD3AqzUO5kOP2c6040LjuJ6EMC0mQkEm/8au4+fwZkzUR7Hd+Ov1f8Sw9C5GxiFG/klclBtIwpfcivtTR0+Uka39p7osfm/qbIRK8rygf42y6gnVSLtWTyFry9F5lgPTkgB195NbQgiH8v0wKPe5h1SZyIkwa5ttJXa82/57jjUhktjQOZLyxNcEKYGc/OA8MXTxuf/yGlcCQGuOcWmG/5ErhMn3pk/CoxNweedaklyBvxy7tNBXL8FYKpbC1Rlv4xXcoEBvzQqcOhLNPeG4Cqch/XiqeIX8+DCID6LbCeEvf86CCAHcxNe+MmNmVMB3LplGon4oS/a6E8nzEFeXL+FAQDPTTdGgm5XRut++JtrCMONn7yoBvdSwY2df5UD3DpvGpnZ9Xk3LoeAWX+lBApD1/CuTw/UhtDVH3qE75MQLh833s+ur4IIw42pM5Rqcbnhun8tck5d7jGcjhyjsj038DtpRG7X59cwADcW/kwE8R1+znTh3jOoStn5mHhx+5f5WchECH3npB/A/GtwMInZAQm1oQ765Pr3k3mmQh0+kv529H2SIPOPVtY+VU3lArhCV9BiCh62IwAPSvUffEuKMccNBLqMvmN3YycCADwFibfGs2a4gNBNdEmznLob11l/EEtAvL6SZfvnGtAZBJA3N6nvk3iK6krhQQDtcn9bfIchr1QJFKaqr6oJdMS410mAyz2MTv2cul0Ylr6PXTOkg3O7zDPAxHe6p1gP4uv3AS3SzLaj2NERsDkXTu5jZM/i8gCAH/2JqQGI6LHA4GoaGv3t53Fu0g9jaASA3ejSFLkzbLfQQR9uxAlsFBbmA2M30BsjyKuPglO3NfT1MIAsZCc88g02i5NoIzT1zljRkjlwIYDrSueu+xttnzNLAKAIM6eZyw3DuG03HT6Wc7cxLEZrJvWrsp17t82BWTECIGanVRzHuNgwFx4Aw9+o4WJr5xcAwje7kg8sq5TO+6MwBcAtnyWD5fgH7iMsdWydfc50YdxXdnR0u92ojVj+BbtXl6O8PMpj9W78i/pfYhGBSFNQrWw58jOAYG+cG1j/YOyRSY/C6TFEYd+exdOIgtl27XEfRsaAzKx8wGGb51S0ttGRlJ5/8R2TKPGDki2p7UrsOnHiO+T8CMAfvo8WtSgpIdy/a37mQ98nqBKBRj1oel0ZCaotFJSBmeLimTUtWgDSuv34Qrh9X4ywlEbQPhJLWzeI7fEW1BoK4Rv1uVTJzsFP3ED4njrs2z5QGO4fNAV+H0koiK7YHS/HBn4vjcy1nGOJZZ9isTURxHf6OdOpC1R1fX4GVZOcFsA5B+1e3zBGYT+6NCWitKHW7wCFo+8nZ98niVL7XtoITT1wJX7sUvstGMD9kBRAmzU16hT98N2on96oBu6GtRGWyc5KskiurzRwN/q400dThOI5Lttr2zZQmMK+Kmy+N5MWvC7NVLOeY4O6z27cvgejPd4wFx6EcfOC8m4M3LeeCyR+H9M3PAXI+BOSu0KIiCYWg6uPqd5NHrRcCGkB1s4AdnUGkprCqWnEWrEN/WHJ9+eIGFE7MhizI/p8lhtAPiqUfe56bfy+OmfNcImpRT745Icpt6rNSETxi6y5E+LUUezwHtB+4a3Q9xll6ksKFdW1ml9jzByrqRCjU/YYjZpJihK4dvY5S2+9vX2m1ADZJQXIHOuB3yZPnun6NeWRm0wpas/KcpAJIHNJvfI6zblJJ0tKz3/ZMWxRzlmsfK1RidFCptGnG1Zigdv8A8bjfp1oQdMcrHxrFU7JjzJz0FMb5ZmDVyJTuMXITEtQzZkPfdrUceQui+zTOj08tYqXl5tfoykX6vhQg4QGa0DxySIC6ILTz9lTw78GB0vbEIQbi+r0tirZKfUpbEPFiNoRa5Yaw2R8n4gfu1yLtyl9QiW3qmUkoj4y0yZg5kB34zqRVmkBtun7tJkenlraNH35dcbKsZoSapBQksxI0seJHLguei4rkqLC9DmLlVeXiOgJxeDqY8zIHajl90suR55Irq/kpmq5EO3mJhYx2ml6TsyppNooMnO+WOORXGqDeLSOgJpfVH8YU2y0ToIcDBU5U01J2RMh5S19T5ueb+Q/TT09ab85P6HIGzsZbH7Zf6KImxd99IjTz1nqpDYtAKBPx9SnRmopAdTRNvqCS+Y8nloO08mVwvZMjGJSc7JGHklNRU2NlJ5/fVEXU65AuzyvTuij/6XAqchhLY9KmfjrJLUG7oXElHpzflE912Vkmv0MbUSYq1APUJZjIawLYyVCG42o59TUtj1eAVZ9ISVzHtXzk9imj+F2EkHpx4dI/XA/hK5EPmdPlTp8pLdTJ/vED/WJB1hT2oaKEbXTY40PmIzvE/Hjr5pfNPKI9GtnYapbz+epByYRfQFTJ47siOynPSjyjo5bgFWsb6DkbtXzxk4GdUTxk0ZL/aD177UZJ2FTjl35EW1EKhHRk4jB1SfCYZx9VQRY1alFokNnylsl27wQeQCC/hTkC9QDpzYL4sgSnv5fUo9Wnw8+UwL+xDibbmrkD7XvgD6icw1YJwKslmkyohP8aL9261OV5Jyx0Tk7J3EcuW5Nfg/EmI422bTjShVterMxcjcl5zQhKU4LAACog/9CSEsNULYc+RlKjjs9B6vNaNZxY9uOiTx3soTas3jTMeOVa7Q2T86/p+dhlZ9wxrZtFHlYDQmef9tzZ9BSEYRw6YTDm/tY7fGGlVjgtt5kqTdXCV0njtrGZzD4h4nLyxZtWraZkT/UFBR7hMCqWQh7D4sA6zTlwyam7hu5U5PhRvFsNxC6htPqQlh2UrHPoUH8LgTM+rE6MlMci5JvdvKJ40oVJS2Cs8/ZeClC/REt0JaytEapdqhMBFit/UnbdjkiwTY0HtHG5hXGStPl7PtEVtOknX/rYphOKdP/o4jkDzUFxR4hsKo4ul0EWG3yyWspBB5xhpNITyXnjI3O2TmJTeS2tcnnGi3lzWTTjitVRD9aH7kbbfp/iuRnPQDGvo9YA8OJiNIFg6uPpUasVVcqFTmfRofVrx/RoYu2UFTfsKVTqK1WndwNw9DOs2LKlnkkQfZev5Ej61AbLo1Z60RjdAo8mJtsJ//IaVwJubBgq01AICIVnS7Jhn2WTrEajDOIfSe5mItGz4MkLb4lVoq1nWwrOkSWRacSoi345VpcaxqNW9NUCQ8CRrL8yaDnvI0syCBGNyjVklZSj1o1ib+jz1n6Gzp3A6MZBSh7vQCZ/WeV0eRihLr8I4pYBTmFcWtFHW70m9uxwuZ6LELInCMvofZMz129Ikr+vsM46+8DZlfHnBGgLQImLUhSdgxbXsvCqJo20gkxanjR6/rxN2Jt3VJgTB55m+j5j/0doAV05UVcNmLFp9HTAsRsj53eZCV0nThrG9++mglkPMDyUrVkHFy/hsshNxauXmZZVMggpnjri2A9shw0qSu/R81RquXutFv0yDlx/PIK99kv4+OoaQFSs8+9/zoI5C5Dk7TgV/HyIix0h3D5N1Iu0wknXt/sHPEeuLFzYzkW2jUtSXFjZ8U8uELX0KznvHX0ORsvYjQjzNPFJ1P23qtYu9n8XGFhPoBhDCkznrR2LdpCUYm2ofFoP0havysasTayLoKz7xOD8UOwaTHAhIhUV3mVlr6oLKEfu+IqQv0RtV1XgnESbd/S4lrJELnv5cW3apqipQUQ/WS7hZYSoC345UGlPBo30ieUFnScBFrA2rgP0Ge0pYrev48s/CrSAXkqxmNW3rdYOCuV+dSJiMbX93Jzc/+sPhlLVVUVuru7MTKSzGoX48fj8eDOnTt4+PChWpQW9ClIdkYvNODgzsORKa2Zkb812v8dRkeptIK0PpUzUgsInvREWUlbTJWVnjHV3ew35TsdvdCAE9hi2qftMUQ5Xu3m3JxHyniNhsJmmxt4y2qrIkC4dQFcCKBdWmFSU4T6I9uwAFekVdyjq2nyoVLtPcvT/iP7UoWlKVKxgnTmY7R2auxeg866XWM6rSiLm6JAnI/IRy2Adu91zPVVIuviAWm1VWHDPiXPoXR8Uc8FtNU+pfNteZ1KuX786jFo/284xjmxV9PkQ+U0ZR/ieE2rmiqvIdDhxennWrFtzk3t/5r+j/JZEudGfw/sPjvqdGedXV35c6a97kecdjeujGvYvl1Rr/E+dJReRoGpPbC2O4Y+oy2xacsixnrQElnR2bzP0QsNOHhuObbUFaCvUUon4qA9M6ivw6atsj2+EC5F3af22tAcQAVs2rN4TPvT9tNbchW1L92Iei7sz7/M+l7I76v6/RQ86cGNwgAqpsvnX4jZHtu0BTpLmxD/OjHEaht13+KzXw8h64uZmLf7GbkgIdpUeOCytIp7NOu9q7AyV3ny1nlpxfYcNEUJRg74P8H264hZR5sSLi1IlP0yPl49z9QmG9tRWbdr1BWBwbgpCtQA4iBO77+FuW8tw3O9Z2wWvoqxT5tjjwgpxzF3mZJXVDkPYj/qMWjv3ZhSN7713lVYOVU5BnG835jOr/n1hXvP4Bcj83CqDNo+Tf9HOcfiNUXOh+U1qp8dQ9zPmbrtFIlcyzbXrjPWdsdgfAck0r+09BtN3xFmarsW6/vEvg21Pwb741W/B2D+ntM5+T4R9PYxHKPvZm0Hbdj25eQ+bZS2GHb9FtsrWDlGa3tt+xoEy3alz5vjvpLSlw1fPIAW1EbpX6r9ZPn4rMduUL/zrHXV98NxX9UB+/6yfd/a9H6GruDAhttY6asE5L7uPe29NZ9j5V7D7rMTpT2wvI9Q6zq9j5G8MYZg1R/R848zsLpTLSQiSj8MrhLp9E6E5Ytf74ipHSsiItLJOZ9NN41R29bUqt19F/U/RZrciIlAnBo4jATLQo4CuESTZoKuW5pcWiDOHGwFjIBlrMAo0fj5DsfbbmPpH7KR98tn1UIiorTEtABEulna4iPyqtYaMY2IiIiimjXDBdjlmxMpOsZby243+vAASzeFJyT3akzZbjwHINw/aBkZqi1URJTOilC/XoxQZ2D1CSYWIQzdRJc6MlRMtyeaDLW772FpxhT0+BhYJaLHB4OrRDqbvE2A9ut9ZR6A4HWOWiUiimLgbtg2F6uWo83uh6tUexav/ON0hDJGUP/+t2rhxBILPBk5OoXsl7Gp0A2EgujiqFVKQ0V1rfD5RIocztZ5wtnk6gek4HoYNy9w1CpNsDfGUP/TB+g7lQ6zUIiInGNaACKZXX4hmzxKlGrW3FW2ouR6IkpfsfIOSmLkDnyc2OZds+SqG2dvjCFYBbT9PANvq2UTypqDFHquTku+Ukol2zylFkzNQAQ1R6eO/a1xZ/99afV03YNo6QAKvnq0/OlERJOBwVUiIiIiIiIiIiKiJDAtABEREREREREREVESGFwlIiIiIiIiIiIiSgKDq0RERERERERERERJYHCViIiIiIiIiIiIKAkMrhIRERERERERERElgcFVIiIiIiIiIiIioiQwuDrRyo5hS2cAuzr9KFTL6MlUUo9Wnw8+3z7UqGWOFaH+iA8+n/5oRX2JWkeSkn2Oj5om7TW01hWpRaQobA5gV6fxWLtZrSFJpm3Z7MeuzqtYUaYWTLaNWPFpALuaG9WCpBQ2B7Dr02PIVgvI3htjCP56DO+ozwMActD01iqcemsZ1qtFj4Psl/HxIx+/Gzs3rsKpt/RHOXbG+nClZJ/jY71Xew0fL3erReNG32fTXLVkvIj2JF4bSk8Qo8+0b4Na5pzeX9EfsbeVmn2Oiw37tNdwpB7j3vMqDePar+/ieKlaQERE9GRjcPVJJwIuvKF43HWjYYMXXq8X3o6AWjj5RDA37W4oHnO9mzzYU+rBnsYejKqFk64RazsD2LJ3o1rwZHnc29BEr83SMK5VjSL0xV/gbbWMhBD2Hv4EVfs/QZV/UC2cfCKYO3HBSzJ7StrGp8DR7aLf9d4VhNXCSVeDfen4Q3WnC2cHHmDpr6L9QEdERPRkYnB1ovnX4GCpB3tKy9CrltGT6VwD1nm98Hp34KhaNl4mY58O6Tcr6xq71SJ6FGxb6JF9i89+NQL3QDbm7X5GLRTGcD8EIHQfA2rR42DoS/xi/yeo2n8eH6pl42Uy9unQhz4tSPyLz0Nq0bgZuBcCEML9u2rJeDmMs69qP1R9dEgtoyeT8YP0jiNq2XiZjH06dGSHFiTe0ICJ6Hm9/cuZ6BkbRXVbGLVqIRER0ROKwVUiIiJC7e4Q8pGJtl8+qxYRERE59AxWN09HKGMEW3Z/pxYSERE9kb6Xm5v7Z/XJWKqqqtDd3Y2RkRG1aFJ5PB7cuXMHDx8+VIvSQ9kxbKlbikz977EetLy6BkOmSo1Y21kNnPTA/8JV1C7Rc6D1ocNmNFphcwAVs42/Ry804ODOw7ZlquBJ8wgOS/3+NuzZVBf5M3vvVdS+dAMtrw6irLMaeeJ5eZ+y7L3y8dvXc1LHqaK6Vmxb7DKeCLbDu10as1lSj9atc3DzvXW4XelDpf4CQldwwPJLfg32+SrhifwdQLvtCNAi1B/ZhgWRlxDGlffWoeGc+LOkHq1bFyByVLb7Ejbsg6/C2GP0fep1s8z70jnap/r6JOp5s7xGIHzxQGTUaU2TdC5tBDqMERxqXbnMTD0+5bzq20I7vO0zTa83+jYnwkas+LQei2BzbYvrH/JnfLMfu17LlyrZX+eA8f9HletWLovdtghqXQBACJca5+OsX/9bvI4Mo4Z8barXrcpyHauvU2lbdJY2CNHrxmN7jOp5sZwL83mwPR6JuQ2Nfc4SpV4rEabrU702zddJ1G0I1mvlW3z26yFkfTEzxqhVZ4qXl+PNQun83zqPKp80fT77ZXy8Og+/O34Gt3+2CitzxfOha3j38JfoMmqKHK/LMCvy9yBO244AdWPnxnIsjOw2hMvHz2Cv/oZnv4yPV8+T2ka7fQlzl+FUWY70RLR96nUzzPvSOdqn+vok6nmzvEYg3HsmMup0vVc6lzYG/J9g+3Xt32pducxMPT7lvOrbwnlU/cZter3RtzlR1OtSbes0hc0BVKANe07kmNoEtZ8Eu7ZFaqMsZQpLm6C2jep3QNkxbKkrQF/jfAy9LrVHalumU7dn1346qeOU2t+w9Fu073J0eHH6ObmPptZD3PZMpvb35D5JItuxHn/8usOWdhOO9xm9TbaeD0tdqe1XX7/KdD7UvqWlj2dQ92k+r2K/c27iwIbbWCn10dR6snfev4XqWZlo+3kG08wQEdETj8HVSVDYHEDFdLvOsRZczYPc4bUP2Gg3/uaOeGHzVWSfUG4cYgVlhOy9V1H29XyjXA862N40SDcnopNuH2Qw38Rk7/Wj8FyZEriQjt8u+OSQ1tGEqTNbVNeKld+sMzrBcic60rkUQTy5synqwRJAVDq/+vZMwcsi1DcVo2u7GswU25hmF+gU26q8jXWWoIm1ww3ECa5KYu5TtWEffBWw7K+mqRUz26X9iI66pTMd88ZDEauuzfb1Gwn7QK1xjuw+BxNNu05guYHXnh82f95fH8TByE2tft1ECbA6uI4Rs22Jcr1u9mPXa1lKUFFpR8T/swQGRHuVaXneYD0foo0z3dDbtXHiuZHEb/wtbYvteWnE2k9z4Le0qTbBFwfn3vk5i8/S3thcE3ZtV9TPf6zrTfbGGIJVf0TPP87A6k610DktsApTAK54eTlWjpwxAm1y0DESQBRBPDmgKOrBEkBUgp369kzBSzd2enPQ5VODmWIbU+0CnWJbPwvhF5Ggph7QjBJgjRVclcTcp2ruMpwqg2V/673lmPkbaT8iCCwHWAHjfHzjJLgZq67N9vXAuX2g1jhHdp+DSWXT1umMH1KMdsPadkV/ztR/Ahy1jY6+A6QfgIy2xK4NNV6D2r6vRVnkb+vx22/LEZu+krUvI/1QGukrif4N5L6J0/ZM7xuZg5dFdftQfGGH9Xs/Zl+pBvuOzMRpqX+ktb32gVHH7WjMfaqM4LO8zaj9V0tgVPv/WWp/zJY4d/fUbcA4/3J/1mafRlBXOkfi+8n6Y53wxhiCVaPoO5WLVz5QC4mIiJ4sTAuQjsZ60BLp6B5G729DQEYWno9U2Ijs6QD6L5uCML2brDcNTgztVG4M/Gtwvh/A7IWWVceDJ6V9HLqMIIDMF6RFGzZXWwKrADC00wisouwYls0GgielIJJ/DU5cCCFzSbVln/HMmuECQjfRJXVkuxuljqnM1Dk9itMXw0DeXNSIZ2oqtYBpi9RRPbq9HQF4UCotGqDXMwcuu9FgE1iN61yDdDMCbTtdAQAezHW6CM0jqcG+Cg8CHdZA7tHtyg3CkdO4EgJcc4rHYcXZItQXe4Bgu+lGobuxBVdCgKdYXeU2jCvvGcfcfeEmwnBhqu0QsGj+GruPn8GZM1Eex3fjr9X/EsPQuRsYhRv5JfJCJhtR+JLbfL3610g31dByAvr7AOSjYFwWTtqIFWX5QH9b1AChztKOHGrDpTEg86XliLUgulUjypa4MXrhoLS9Onx0sg+YvQIrysRTeptxyCYgnCi7tsVWHT5SAtC9J3ps3jtnUnfOajA3DwhfPG1cizbXXFFdKTwIoF1qN7TrxIUFlXprlph35o8CY1Pw+SMEVgFg1jQ3EAqiSzq5XZ9LgVWZaWTmIE73hoDcXKwXz6z/mRYwbZYChx/6zmMAOXhFWt1er2cOXIaw1yawGtfQl1JgFdp2/lUL/s6dkAWictBUloMBvzWQ+6FPCVRev4bLIcA1OwfF0tOp4cbOv8oBbp03BW67Pu/G5RAw669eVvYZwuXjxjF3fRVEGG5MnWGqlMZCuNRotBt6Wz5dGuT5fJYbGLuBXlPfRg2sOpTId0B/mxSkrcONfgDTc4y2JdLuKT8AHTICq47bY6dmTYULYdy8IPV4LH0ZwdRXEv0b9xwUl2jFjtuzDSstgVWtrk1gNa6j2KH88Hy0/QrCcGHOktT3buzUNGkBZbWvaum/nmtAZxCmvmoqRc6/fD7ONaDlYhjIK0W9eJ90gQ7p/B+5jgCArOeinLMPfog+AFnPMzUAERE9+RhcTUOjv/08TpDhMIZGAMyuxq7mRrUwJe4M2y1u0YcbcW4iCgvzLTcfquySAmTabGvo62EAWchOsJM/cDcMuBdg2xE1+GYVuGHu+Hd/o+1zZgmMwMbNLiVAOoD7IcA1Q4/aRauXQgP3J2xl2pombcTCabtgtEU3bt9Tn0uRkmLMcQPhu+oyOd3ouhkG3FPNU2eVgHpy/gW7V5ejvDzKY/Vu/Iv6X2IRP0yYgmply5GfAQR744wM6hvGqPpcqjg9BluivUnU5oXIQwh955SRW33DpqCFkzbDqWhtiyP+wRSe/yTPWclMZKnP6e7djoyQL57jAoLXlR9DxLU5bWbcdtDqO+T8CMAfvo8WtShBA/dCgHse3tyoBt+sBn4vBzGBrpExABmYmQ0tmJkLhPsHlQCptqCWa5o+1ztavRS6O3Ht8XrvMswKXcNpu2C0RQi376vPpUh2Dn7iBsL3xpSCELr6QzbtsTmg/thx0AbdGQ4BGUtR++mxBH80cSjKd0C8dttRu+ewPXZs4D7CcGHB1lZL8E1l6SuJ/6v9EOq8Pasp8KToez+Kc7cxrD43Xjbs00bJttsEo20M3B2vFkicf5sFCu1/sA7guqO+ou77GB4D3Fl/UguIiIieOAyuPqZ6N3nQciGkBVg7A9jVGcCWvYmPuNI0Yq3Yhv6IlTcsOjGidmQwZnD4+Sw3gHxUKPs05x5zrrtxHbwdAS3A6vPB5/PB15TE7/sisOFavE3bRuRhzjmq1xv+JnWh1ZomeX8++Ex5wMaR3sH/MMqI25J6tJrORbScYakT/bzqQfD01tvbB2QUoFD8SJBdUoDMsR74lRvfwmbl82/JhTpJyo5hi3Jtxso9Gk32C1kA3FhUl56vM3vvVfNxSbmkE5aic6aPUHItXmmMUNqwEgvc8g9DszDVDSCvUmmnxv/adKLr8zOo8g9qAda3VuHUW6twyivnL3Uo243nALgKy7VtRB7mnKN6vW9G7H4QTM56r7y/VTgl500dT3OXYWVuCJc7ooy4zX4ZH5vORewcq6kQ/bzqQfCnx9DO+dhzsk8LsOrX+iP8wJ2q7wBtRO0w7qgFkpS3x+casM7bjgBcWLBVb4P2JTGy0ml7VoSZ0+QfmR5dUV2rss8ouehTTpstFL7YEmXEbQ32KeciVo7VlIhxXqOOSiUiIiITBlcfY0M752NPqQd7Shu0KahL6pMIsIqcW2M9aCn1iO2JwG3CxGgtebqaDW1UbB86pP0Zj+RSG+DIDni9Xni9XrQHRUc90QCrGLUQvnggsi3TQ5+yJuqlqsNp5PmS9vXelQkYKRWngy/n3JLOQ3tQrThRhnHb7jgfSWrTAgB6ugx9ermWEkAdjW7k95Q++409tqOWJpScb1m6Ljv61YrxaSPRldcoPZKaSpsieg7p4En5mNqQ1Ec7hecsEkCAB5X6jbUln502kh7KdRl5OMmxPN6un0fV/k9Qtf8TnL4FIHdZ4gHWoRC+EQs26dsyPfSp+6Lec9OT+UHQSssfGsLl49K+jl+bgPZYSwcQ7u22z1Gq55W9ZZzbyPmdFGO4bXecT7pDZeZrPMkZRKn8DtBG1Mqpo6zGpz0+ih16u9OhpTKqTDjA6rQ9s45kfRRyLndjf+0IqBXHgT5bSE4/JZUa+U+l83Dg4vi3QNFE/8GbiIiIZAyuPhEO4+yrIsCapYz+FFNdTXlRZZsXIg9A0J+CfIeRTr4xas9OwtP/I6MnnXXaj24XAUAHnXDzNDN1+n80ol5K8o5qKQYQ7LQPcI6j2B18oGjJHLjgcNpaKgLO57pwMwR4CtR3Odq0wVRIcVoAAEAd/BdCWmqAsuXIz1CnYjaiYDaA/rPJ/ZCQDNt2QORhlWjTS0O4dCL2NFRNH0bs2hydw+mmtoGBzdXSCt/O2bYtIh+hQeTAtRlNbMv23BkSO2dx2rNITkFzgMGcky/BIIOja/MZDP4BwI/+hFq16BF96BMBwKnuuGkC1v84R5perk7/j0bUS0neUS3FAG5dsw9wjiM9HYCcX1ZW/GIeXAjh8m/MqRRspSLgPDSI34WAWT9Wg+JuFM92A7duWXLCplSs6yRN9G4SAVbLD8px2sYUfwdo7Z5NrlaZw/bYUIT6I9oPPPuc5H4/skMEWOPPMNH6Fvr0cuftmZYCysjVmjx9KrzTdEgpFG+20Ia58AAIdEUpN3HaZ41FpF2yyedqfp+S9SdkZQCh4e+rBURERE8cBlcfS41Yq+b8EjkVR4f75GeNTn60haJEjq+8QmPkRWFzsmkBgKGdZxGEG4vq/Kb9Ze/1GwsmHGrDpTFrnWi0Dh6iLPBUhPoj6s2XCFjGmOYE6J1cuRMrFlrIq0SrtHiVlb4gwwJsM42OLUJ9U/y8r2Zi1Ibcsd2wb/zTAsTr4Efy0cqLO2g3W/ZTj0UnX57OnDDj/Ms3c0V1tVrAyUmQN00MnbuB0YwClL1egEzLDbR2TZoWjNvsT356piPaIihyO1DYXI9FCJlGSmk36fKiThux4tNoU9z13M9RFkMR+WfzXrtqXy5oC8fkY5k+6r7sGLa8loVRNdWjE2LU8KLX9fasEWvrlgJjcsBKHLf8I1DZMWyJmhYgdhua2DmL056ZchFGd7T9CsKW9icaZ9fm21czgYwHWF6qliTCjZ0bl0UWpNKIgOX9kP1Ud93cZViZCwz8qz4lXiwklbsMH0uLV1mJeu55eNM0OtaNnd74eV/NtECtvKgW5i4b/7QA8dIBRPLRuvGTF/Vz4cbOjdHSAoiAc+E85b1IhHH+m6SFvIqXF2Gh22GQ91HMmhq5TuTFJCfPRqz4VO2ziCCpJRVSnLYx1d8BYgE9S1u72Y+1esDVYXscIXKgA3Y/eGojP9Wga02BJ/4Mk5J61C52mRbtc9qedTd2ijQE5j5fUd2+uHlfzURAVw7UltSjddzTAsSZLQQj3758zmuaoqUFEK/DZtGpRGjn1YNK+fzbvE9JeeMh8gEM33lGLSEiInrifC83N/fP6pOxVFVVobu7GyMjyazWMX48Hg/u3LmDhw8fqkVpQZ+Gamf0QoNYCVabop8Z+Vuj/d9hdJRKK2DrU1EjtWxWio0QU/+lZ0x1N/tN+U5HLzTgBLaY9ml7DFGOV7sJqTeNPDNeo0GbFmd6Cuhvwx7TCrrS9HQE0O61rmgfmUYlPRO+eMC04ryxDZl11VkggbqWeuY6+rQzO+bjU44/dAUHPgRqty7AsD4d2LIvibQSr7N9Ws+XwXyO1e0FOry4XuBD5TR59V+ddbvGdGZrmUF5Xzfsg6/CtBXL+17TZHMM4hxFztmkMq4B++tSuSbHetByCHi9bilGI/Wt162hT7k247UtsFyXoxcacPDccmypK0Bfo5GOQ91e8KQHNwoDqJjeg5ZX1RHu8a91dXuAeL3ytkxtkPba0BxABWzag3hMbWMIlxrno7fkKmpfuiHtUz3uPnSUXkaBbXsG2/dCfl/V1xjznMVpz9RrLsK04jaiXlPmFAI6a11rvW/x2a+HkPXFTMzb/Sg3wjloemuZabGjcO8Z04rzkSnuUh1ttfkz1hGjTuta6pnrFC8vx5uF9teJ+fiU4w9dw7sdwKbV8/CN/xNsv263L0noGt49rAVJne3Ter4Mgzi9/3xkhKi6vQH/J7j+41VYOdXYp8G63QH9+G3KDOZ9Yu4ynCqTg9ZKuZ5KQT0GcY4i5yxhRag/ouU7t3yfO2XTT4qQ2qDCZptrVfxfoz2GbTugtncGtY1R6zr4DrA9hijHa9ensulPqW0VYNMeA6bzb20rNFpKI+mJFLdRsK1rHJfO9Plw2FeybieAdu91zPVVIivRvpLDfVrOl8T0OpU+UPjiAbSgFtsWD9t8Z6ivw3w+HO/T5rWq5177blKPQft/xjkze+f9W6j+0XQ0VLseebFEIiKidMfgKj0d0irwRkRkJecBNLVTcv5jPffzOKjdfRf1PwV6/nEGVneqpSn0yIE3ehpEvR7oMRE78EZPuNIwrv1qBMOncvHKB2ohERHRk4dpAYiIiNLArBkuwC7HncibOt5adrvRhwdYuimc8tyrRAkR05IRbGdgleix8x2ObxqBe2w62hhYJSKipwSDq0RERGlg4G7YNhdrTZM2XTNwY/xGrWqexSv/OB2hjBHUv/+tWkg0AcRCSlsXABcPjOtIbSIaH++8fxtLMzLRxnQARET0FGFaAHo6MC0A0eMpVt5EmU1+wceRfc5V+/ys4+aNMQSrgLafZ+BttSwVmBaA6CnAtABPpdIwrv3qAW6Md3oZIiKiNMPgKhEREREREREREVESmBaAiIiIiIiIiIiIKAkMrhIRERERERERERElgcFVIiIiIiIiIiIioiQwuEpERERERERERESUBAZXiYiIiIiIiIiIiJLA4OpEKzuGLZ0B7Or0o1AtoyfcdzjedgvXdn/n8HkiIiIiIiIiIkpnDK4+6UQwd+1mtYAm2jvv38bSjEyc3f2MUvIMVv9zJtw/vY3P3lCKiIiIiIiIiIgobTG4OtH8a3Cw1IM9pWXoVcvoiVW7+y6qZ01Bzz9m4G21EAA+yEDDF1OQX3UXx0vVQiIiIiIiIiIiSkcMrhKNu29R/dMHCH0xDas71TJDy+5p6Bl7gKWbwqhVC4mIiIiIiIiIKO18Lzc398/qk7FUVVWhu7sbIyMjatGk8ng8uHPnDh4+fKgWpYeyY9hStxSZ+t9jPWh5dQ2GTJUasbazGjjpgf+Fq6hd4hbP96HDZqRrYXMAFbONv0cvNODgzsO2ZargSQ8+OmT8banf34Y9m+oif2bvvYral26g5dVBlHVWI088L+9Tlr1XPn77ek7qOFVU14pti13GE8F2eLcflasAKEL9kW1YYOwS4YsHsK6xW/tjwz74KjwIdHix44hRBwBqmnyozAug3bsDka2K+hG2+9RGrdb/9Ado+3mUUauyN8YQrBpF36lcvPKBWkhEREREREREROmEI1cnSiQdgAcd/WqhWd5rAdRmncWeUg/2lDbg0lg+Kj49hmypjhYM7UOH2OaeUg/OZ23BijKtvHeTeL6xB6MimKrX21NqDqxm772Kgl6pvLEHo7Orsau50agEABlLUdu5AiONot7JPmQuqVfyuW7Eik8DqF0CXNLrlXpwAtWRY4M4/tolw8bxN/YAS+qxZe9GeWOOaIFV4Mp7Xni92uPA3VLs22CuV9NUC3xo1PF2BOBavA2tdUVahSPXEQDgKagx/0fUYG4eEL54OhJYLaprha8iS9pnOwJ5lfA1qf/3Oyx/8QEw8MP4gVUA+OCH6AOQP/9btYSIiIiIiIiIiNIMg6vpaKwHLZFRo4fR+9sQkJGF5yMVNiJ7OoD+y6bRrL2b5uOsX3rCoaGd803BVvjX4Hw/gNkLUSg9DQDBk9I+Dl1GEEDmC1JAdHM1FmWEcKnRfCxDO8uMv8uOYdlsIHhSGo3rX4MTF0LIXFJt2Wc8s2a4gNBNdJ0znutuXGcZfXp0+zo0SHVw5DSuhADXnGJo4dWjuB4EkDcXphDphrnwIIybF8QIV9Rg5WIXwhdbpO0dxY6OAJBXivoS47+i9CEKMoC+q89KT8byLC4PAPjRn5gagIiIiIiIiIgozTG4moZGf/u5ki5AdRhDIwDsRpemyJ3hkPoUgD7ckIOwNgoL84GxG+iNEeTNLilAps22hr4eBpCFbGmEqxMDd8OAewG2HakXQVKnunH7nvmZo+1XEIYHc6VRrzUFHnPw1hJsFQbuIwwXps6Snsv/E9yYguE+6bk4+oanABl/Qr5aQEREREREREREaYXB1cdU7yYPWi6EtABrZwC7OgNJTanXNGKt2Ib+kHOhOidG1I4MxgwOP5/lBpCPCmWfu15LLpzY3bgO3o6AFmD1+eDz+Wym5wMoqUerXi4elXryWN25LtwMyakBtJQAga4G6KHUoueyALiwYKt5W76tCyBlfSUiIiIiIiIioiccg6uPsaGd86W8rEBmUjlLtUW08sZ60CLlZG25YDdyNR4xonZ6jik/rEobFWvOF2s8kkttgCM7IrlU24MA1PynJfVo3boArmC7kXNVr2vSja6bYSM1wIa58CCA61KKge5vhgGETTle5YeajoCIiIiIiIiIiJ5MDK4+EQ7j7KsiwJqljP70D2JUzYsq27wQeQCC/jUxR5s6dWc4BGQUoDDG1P6Ep/9HRpzuM+dCjeLodhE0nTYzkiagaMkcuBDGlXZ9Sarouhs7ERCpAWoKPEDwemQhKyDK9P9o+r6PEB5AfVtiyc96AIx9HwlkEiAiIiIiIiIioknA4OpjqRFrPz1mHh1athz5GcCoJblnH0bGEH2hqL5hjALIKzRytxY2J5sWABjaeRZBuLGozm/aX/ZeP1bowdRDbbg0Zq0TjRYYBaDkQhWlqD+iBl21qfy4dzsylV8bberCnCWRcCvqj9ikBQAiC1t5CvZhbp5NQPZcAzqDgKei1bx4lZ3OH+LGGJA//1u1JIpvsXAWgD98Hy1qERERERERERERpRUGVydI9t6rkdyiFbMBZCxFbdK5Uuvw0SHgdTlfad1SjJ704ODOw0rdwzj7ahuCSo7TtZtFsX8NDp7sM+VuXTbckGRaAGjHVtqAS2Pm/b2ONmm6/2GcfdWDjn6bvKs2C3R1X7iJMAAo0/NFKRo2XMdcUy7VSmRdPADvdikoemQHDlwMw7V4m6izDVO77NICaI7eCAB5Hnjkhazk8u1eHLgIa95Vy6Jaz+Dzr6YAsx7iHdPzUbzxEPmYgh7fs2oJERERERERERGlme/l5ub+WX0ylqqqKnR3d2NkZEQtmlQejwd37tzBw4cP1SKiSfYtPvv1EPIHspH3y1hB0+9wvO02lv4hXj0iIiIiIiIiIkoHHLlKNO6eRdsXU4BZQ/jsDbXMULv7HpZmcNQqEREREREREdHjgsFVognQsnsG2gaA/Kq7OF6qlgJ4Ywz1P32AvlMzsLpTLSQiIiIiIiIionTE4CrRBHn7lzPRM/YABUXfKSXf4fj/PIrQFzPxygdKERERERERERERpS0GV4kmzDNYXZ2Lebufcfg8ERERERERERGlMwZXiYiIiIiIiIiIiJLA4CoRERERERERERFREhhcJSIiIiIiIiIiIkoCg6tERERERERERERESWBwlYiIiIiIiIiIiCgJDK4SERERERERERERJYHBVZpEG7Hi0wB2dQawdrNaRkRERERERERElN4YXH2MrSk/iuOr38JStYCiKmwOYNenx5CtFhARERERERERESWIwVWaRIdx9lUP9pR68NEhtYyIiIiIiIiIiCi9MbhKRERERERERERElITv5ebm/ll9Mpaqqip0d3djZGRELZpUHo8Hd+7cwcOHD9Wi9PDif8Dx4hn4fz7djK//p6Mon6kX3MKZD/49jlnq5hp/3z6L1Wf+s/bvGW/h8KvzMcUoNfvvV/FPx/ejR6QNKM8w/gaM/z/cVYN/9xUALMHfr/63+B/HzmL1//0/mLb94MZ/wsbfXAAALP3ZIfxd7n/DPx3/f1Hxxgrk2dRxbiNWfFqPRRn63yFcapyPs35zrey9V1H70g20vDqIss7qyD5HLzTg4M7D1rpL3MYT/W3Ys6lO+3fZMWypW4pMo9RsrActr67BkP73Zj92vZYvVehDR2kZeiN/N2JtZzVw0gP/C/J+1XqCuj352CK0beqvMeq2iIiIiIiIiIgobXDk6oSagv/x1aMox1ms/qAGqz/4T/h//nsuyqW8qUt/dkgEYWtEnbMIzlyB4+X/i1bh7n5s/EArO3NbBFPF36s/qMFqOZCaiJkrcPzVv8Tv9f123cKUgn+L/+NFqc6/mY+/e6MEo7HqOGKkA9hzsk8tNMtYitrOFRhpNOpnLqk3LYClBVaBS3qdUg9ahlcYdfxrcFA839Evgqni7z2lHuyRA6tlx7Cl8LJRVtqAS2P5qOj0o9DYJQAg77UAarPOmusp+VwLmwPY9Vo+giel/fUuNC/gVXYMWzqrkXmhIVKno99+n0RERERERERElD4YXJ1gD278J2MUKi7g/K0HwL/JhAcA8L+gomAKHtxoxT/c1f/Hf8a/67oFzCzB38/QnxsPt3Dmg83Gfr/6LYIAsqYtMdUKdsWvk2rBk9Ko1kOXEQSQ+cLGSPnzWW5g7AZ6pZGvQzvnJ5fH1b8GB02jSg/jrL8PQD4K5IAoRJA2Uvcwen8bAjKy8LxeXnYMy2YDwZNKTtlDZaa/C19fisyxHpyQRuP2bmpDEPlYttd4nURERERERERElF4YXJ1gw/fMU+h7frMZq/W0AC++hDw8wO9/r0yzHxnFA0xB5nTz0yn130cRMD3xn/HvPqhRpvzfwpdfSX9OiD7ciBMkvTMc0ka4KqNGU6ZvGKPqcwBGf/u5MeLVRnZJATLjHn8jCmbbbasPI2NAZpacnoCIiIiIiIiIiNIJg6tpZOm0GZHUAcffkB6xcqwShnbO19ILZCxFbWcAuzoD2NXcqFZzrLBZbEN/xMrXGoM2onYYd9QCWVkOMgFkLqk377NTzklLRERERERERETpiMHVNNJz7y6AB1K+VfNDW4CKbB0qk/KVAphdnVSAtbA5gIrZIVP+1j2NPbYjV+PRRtRKaQLs+AcxKhbpMvK8Sg/LwldERERERERERJQuGFxNJwlO/w+MyvlanVn647984kfB9m4SAdbpOZY0AbEDntoUffSfNXK8PoKhr4ftc7WacPo/EREREREREdHjisHVdHJ3Pz6/DeQVH3K0eJU20jUXy39mv6CUFnz9SywT21r6s0P4u4InLbS6ESs+9aPQ9JwIko4MWnKi6gFP+4WitEAnZi80trfZn3RaABxqw6UxIO+1q1hRJj2/2Y+1kYCrWDBrdjW22B4TERERERERERGlKwZX08yxMzX4pxuw5l1d/RaWqpW/+vf4pxsPMKXg39rW6/nNZpy5beRw/bvc/4Z/+uAsgspmJlzZMWzRc4u+lg/AjUV14u+EF6U6jLOvXkaBKV9pNTIvNNhPqT9UhpYLIXOO08g+D+Psq20IIh8VelnZMFqSTAugbc+Djn7p9XUGsKvwMj6SF7k6VIY9jT2AJe+qEpQlIiIiIiIiIqK08r3c3Nw/q0/GUlVVhe7uboyMjKhFk8rj8eDOnTt4+PChWkRERERERERERESUchy5SkRERERERERERJQEBleJiIiIiIiIiIiIksDgKhEREREREREREVESGFwlIiIiIiIiIiIiSgKDq0RERERERERERERJYHCViIiIiIiIiIiIKAnfy83N/bP6JBERERERERERERHFxpGrRERERERERERERElgcJWIiIiIiIiIiIgoCQyuEhERERERERERESWBwVUiIiIiIiIiIiKiJDC4SkRERERERERERJQEBleJiIiIiIiIiIiIksDgKhEREREREREREVESGFwlIiIiIiIiIiIiSgKDq0RERERERERERERJYHCViIiIiIiIiIiIKAkMrhIRERERERERERElgcFVIiIiIiIiIiIioiQwuEpERERERERERESUBAZXiYiIiIiIiIiIiJLA4CoRERERERERERFREhhcJSIiIiIiIiIiIkrC/w+XyVUZBbPy4QAAAABJRU5ErkJggg==;" vertex="1" parent="1">
          <mxGeometry x="-294.1999969482422" y="511.5999755859375" width="1367" height="857" as="geometry" />
        </mxCell>
        <mxCell id="iRvrH8neB90cJZZumifG-2" value="" style="endArrow=classic;html=1;rounded=0;strokeColor=#FF0000;" edge="1" parent="1">
          <mxGeometry width="50" height="50" relative="1" as="geometry">
            <mxPoint x="271" y="593" as="sourcePoint" />
            <mxPoint x="82" y="561" as="targetPoint" />
          </mxGeometry>
        </mxCell>
        <mxCell id="iRvrH8neB90cJZZumifG-3" value="One To One Relationship between a DoctorUser and a User. The details for the user are nested in the request data." style="text;html=1;align=center;verticalAlign=middle;whiteSpace=wrap;rounded=0;fontSize=18;" vertex="1" parent="1">
          <mxGeometry x="272" y="549" width="212" height="57" as="geometry" />
        </mxCell>
        <mxCell id="iRvrH8neB90cJZZumifG-4" value="" style="endArrow=classic;html=1;rounded=0;strokeColor=#FF0000;" edge="1" parent="1">
          <mxGeometry width="50" height="50" relative="1" as="geometry">
            <mxPoint x="699" y="645" as="sourcePoint" />
            <mxPoint x="94" y="693" as="targetPoint" />
          </mxGeometry>
        </mxCell>
        <mxCell id="iRvrH8neB90cJZZumifG-5" value="Code that is executed when a new object of the model is created." style="text;html=1;align=center;verticalAlign=middle;whiteSpace=wrap;rounded=0;fontSize=18;" vertex="1" parent="1">
          <mxGeometry x="674" y="602" width="212" height="57" as="geometry" />
        </mxCell>
        <mxCell id="iRvrH8neB90cJZZumifG-8" value="" style="labelPosition=right;align=left;strokeWidth=1;shape=mxgraph.mockup.markup.curlyBrace;html=1;shadow=0;dashed=0;strokeColor=#FF0000;direction=north;flipH=1;" vertex="1" parent="1">
          <mxGeometry x="525" y="689" width="20" height="209" as="geometry" />
        </mxCell>
        <mxCell id="iRvrH8neB90cJZZumifG-10" value="Gets the appropriate model references (creates them if required), and then replaces the JSON data with the reference to the model" style="text;html=1;align=center;verticalAlign=middle;whiteSpace=wrap;rounded=0;fontSize=18;" vertex="1" parent="1">
          <mxGeometry x="554" y="765" width="212" height="57" as="geometry" />
        </mxCell>
        <mxCell id="iRvrH8neB90cJZZumifG-12" value="" style="labelPosition=right;align=left;strokeWidth=1;shape=mxgraph.mockup.markup.curlyBrace;html=1;shadow=0;dashed=0;strokeColor=#FF0000;direction=north;flipH=1;" vertex="1" parent="1">
          <mxGeometry x="351" y="904" width="20" height="60" as="geometry" />
        </mxCell>
        <mxCell id="iRvrH8neB90cJZZumifG-13" value="Tries creating a user&amp;nbsp;" style="text;html=1;align=center;verticalAlign=middle;whiteSpace=wrap;rounded=0;fontSize=18;" vertex="1" parent="1">
          <mxGeometry x="374" y="908" width="212" height="57" as="geometry" />
        </mxCell>
        <mxCell id="iRvrH8neB90cJZZumifG-14" value="" style="labelPosition=right;align=left;strokeWidth=1;shape=mxgraph.mockup.markup.curlyBrace;html=1;shadow=0;dashed=0;strokeColor=#FF0000;direction=north;flipH=1;" vertex="1" parent="1">
          <mxGeometry x="491" y="981" width="20" height="60" as="geometry" />
        </mxCell>
        <mxCell id="iRvrH8neB90cJZZumifG-15" value="If the doctor user creation is unsuccessful, the user created initially is deleted so that the new corrected data can be used to create one more user, which would otherwise have created a username clash. An error is also raised." style="text;html=1;align=center;verticalAlign=middle;whiteSpace=wrap;rounded=0;fontSize=18;" vertex="1" parent="1">
          <mxGeometry x="514" y="987" width="493" height="57" as="geometry" />
        </mxCell>
        <mxCell id="iRvrH8neB90cJZZumifG-16" value="" style="labelPosition=right;align=left;strokeWidth=1;shape=mxgraph.mockup.markup.curlyBrace;html=1;shadow=0;dashed=0;strokeColor=#FF0000;direction=north;flipH=1;" vertex="1" parent="1">
          <mxGeometry x="775" y="1082" width="20" height="247" as="geometry" />
        </mxCell>
        <mxCell id="iRvrH8neB90cJZZumifG-17" value="If en existing doctor user profile needs to be updated, this method is executed." style="text;html=1;align=center;verticalAlign=middle;whiteSpace=wrap;rounded=0;fontSize=18;" vertex="1" parent="1">
          <mxGeometry x="801" y="1102" width="247" height="221" as="geometry" />
        </mxCell>
        <mxCell id="iRvrH8neB90cJZZumifG-20" value="" style="edgeStyle=segmentEdgeStyle;endArrow=classic;html=1;curved=0;rounded=0;endSize=8;startSize=8;strokeColor=#FF0000;" edge="1" parent="1">
          <mxGeometry width="50" height="50" relative="1" as="geometry">
            <mxPoint x="50" y="1076" as="sourcePoint" />
            <mxPoint x="174" y="1112" as="targetPoint" />
          </mxGeometry>
        </mxCell>
        <mxCell id="iRvrH8neB90cJZZumifG-21" value="First argument is used if it is present in the request data" style="text;html=1;align=center;verticalAlign=middle;whiteSpace=wrap;rounded=0;fontSize=18;" vertex="1" parent="1">
          <mxGeometry x="-190" y="1041" width="245" height="57" as="geometry" />
        </mxCell>
        <mxCell id="iRvrH8neB90cJZZumifG-22" value="" style="edgeStyle=segmentEdgeStyle;endArrow=classic;html=1;curved=0;rounded=0;endSize=8;startSize=8;strokeColor=#FF0000;" edge="1" parent="1">
          <mxGeometry width="50" height="50" relative="1" as="geometry">
            <mxPoint x="310" y="1078" as="sourcePoint" />
            <mxPoint x="227" y="1114" as="targetPoint" />
          </mxGeometry>
        </mxCell>
        <mxCell id="iRvrH8neB90cJZZumifG-23" value="Falls back to the second argument if the first argument is not present" style="text;html=1;align=center;verticalAlign=middle;whiteSpace=wrap;rounded=0;fontSize=18;" vertex="1" parent="1">
          <mxGeometry x="316" y="1050" width="245" height="57" as="geometry" />
        </mxCell>
        <mxCell id="iRvrH8neB90cJZZumifG-24" value="" style="endArrow=classic;html=1;rounded=0;strokeColor=#FF0000;" edge="1" parent="1">
          <mxGeometry width="50" height="50" relative="1" as="geometry">
            <mxPoint x="110" y="1338" as="sourcePoint" />
            <mxPoint x="-47" y="1329" as="targetPoint" />
          </mxGeometry>
        </mxCell>
        <mxCell id="iRvrH8neB90cJZZumifG-25" value="Saves the updated instance and returns it back to the calling code" style="text;html=1;align=center;verticalAlign=middle;whiteSpace=wrap;rounded=0;fontSize=18;" vertex="1" parent="1">
          <mxGeometry x="108" y="1308" width="276" height="57" as="geometry" />
        </mxCell>
      </root>
    </mxGraphModel>
  </diagram>
</mxfile>
